<?xml version="1.0" encoding="UTF-8"?>
<svg width="56px" height="47px" viewBox="0 0 56 47" version="1.1" xmlns="http://www.w3.org/2000/svg" xmlns:xlink="http://www.w3.org/1999/xlink">
    <!-- Generator: Sketch 43.2 (39069) - http://www.bohemiancoding.com/sketch -->
    <title>Group 41</title>
    <desc>Created with Sketch.</desc>
    <defs></defs>
    <g id="Design-1" stroke="none" stroke-width="1" fill="none" fill-rule="evenodd">
        <g id="Group-41">
            <path d="M53.7149541,36.2002225 C50.7596422,37.7312475 35.449944,43.9881225 32.190826,45.6765975 C28.9317079,47.3662475 27.1206927,47.3497975 24.546025,46.1266225 C21.9713572,44.9034475 5.67931332,38.3622225 2.7452796,36.9674975 C1.27826273,36.2707225 0.506335245,35.6820475 0.506335245,35.1262725 L0.506335245,29.5626475 C0.506335245,29.5626475 21.7172003,24.9730975 25.1406337,23.7522725 C28.5652492,22.5314475 29.7532847,22.4867975 32.6672223,23.5478225 C35.5811599,24.6088475 53.0044971,27.7343475 55.8841531,28.7824475 C55.8841531,28.7824475 55.882971,33.7515225 55.882971,34.2673475 C55.8841531,34.8172475 55.219799,35.4211975 53.7149541,36.2002225" id="Fill-6" fill="#912725"></path>
            <path d="M53.7140084,30.6692625 C50.7586965,32.2002875 35.4501804,38.4571625 32.1910624,40.1456375 C28.9319444,41.8352875 27.1209292,41.8188375 24.5462614,40.5944875 C21.9715936,39.3724875 5.67954975,32.8300875 2.74551602,31.4365375 C-0.189699831,30.0418125 -0.25117032,29.0830125 2.63203204,27.9608875 C5.5152344,26.8375875 21.7162546,20.5196125 25.1408702,19.2987875 C28.5654857,18.0779625 29.7535211,18.0333125 32.6662766,19.0943375 C35.5813963,20.1553625 50.7988887,26.1760625 53.6785447,27.2241625 C56.5582007,28.2746125 56.6693204,29.1382375 53.7140084,30.6692625" id="Fill-8" fill="#C6302B"></path>
            <path d="M53.7149541,27.197725 C50.7596422,28.72875 35.449944,34.985625 32.190826,36.675275 C28.9317079,38.36375 27.1206927,38.3473 24.546025,37.124125 C21.9713572,35.90095 5.67931332,29.359725 2.7452796,27.965 C1.27826273,27.268225 0.506335245,26.680725 0.506335245,26.12495 L0.506335245,20.56015 C0.506335245,20.56015 21.7172003,15.9706 25.1406337,14.749775 C28.5652492,13.52895 29.7532847,13.4843 32.6672223,14.545325 C35.5811599,15.60635 53.0044971,18.730675 55.8841531,19.77995 C55.8841531,19.77995 55.882971,24.749025 55.882971,25.26485 C55.8841531,25.81475 55.219799,26.4187 53.7149541,27.197725" id="Fill-10" fill="#912725"></path>
            <path d="M53.7140084,21.666765 C50.7586965,23.19779 35.4501804,29.454665 32.1910624,31.14314 C28.9319444,32.83279 27.1209292,32.81634 24.5462614,31.59199 C21.9715936,30.36999 5.67954975,23.82759 2.74551602,22.43404 C-0.189699831,21.04049 -0.25117032,20.080515 2.63203204,18.957215 C5.5152344,17.836265 21.7162546,11.517115 25.1408702,10.29629 C28.5654857,9.075465 29.7535211,9.030815 32.6662766,10.09184 C35.5813963,11.152865 50.7988887,17.173565 53.6785447,18.221665 C56.5582007,19.27094 56.6693204,20.13574 53.7140084,21.666765 L53.7140084,21.666765" id="Fill-12" fill="#C6302B"></path>
            <path d="M53.7149541,17.8612925 C50.7596422,19.3923175 35.449944,25.6491925 32.190826,27.3388425 C28.9317079,29.0273175 27.1206927,29.0108675 24.546025,27.7876925 C21.9713572,26.5645175 5.67931332,20.0232925 2.7452796,18.6285675 C1.27826273,17.9317925 0.506335245,17.3442925 0.506335245,16.7885175 L0.506335245,11.2248925 C0.506335245,11.2248925 21.7172003,6.6353425 25.1406337,5.4145175 C28.5652492,4.1925175 29.7532847,4.1490425 32.6672223,5.2100675 C35.5811599,6.2710925 53.0044971,9.3954175 55.8841531,10.4435175 C55.8841531,10.4435175 55.882971,15.4125925 55.882971,15.9295925 C55.8841531,16.4783175 55.219799,17.0822675 53.7149541,17.8612925" id="Fill-14" fill="#912725"></path>
            <path d="M53.7140084,12.3303325 C50.7586965,13.8613575 35.4501804,20.1182325 32.1910624,21.8067075 C28.9319444,23.4963575 27.1209292,23.4799075 24.5462614,22.2567325 C21.9715936,21.0335575 5.67954975,14.4911575 2.74551602,13.0976075 C-0.189699831,11.7040575 -0.25117032,10.7440825 2.63203204,9.6219575 C5.5152344,8.4998325 21.7162546,2.1818575 25.1408702,0.9598575 C28.5654857,-0.2609675 29.7535211,-0.3044425 32.6662766,0.7565825 C35.5813963,1.8176075 50.7988887,7.8383075 53.6785447,8.8864075 C56.5582007,9.9345075 56.6693204,10.7993075 53.7140084,12.3303325" id="Fill-16" fill="#C6302B"></path>
            <polygon id="Fill-18" fill="#FEFEFE" points="34.9627904 6.91793 30.2023739 7.40908 29.1360973 9.95883 27.4137415 7.114155 21.9168612 6.623005 26.0188342 5.151905 24.7882423 2.89473 28.6289658 4.388155 32.249814 3.20963 31.2710147 5.54318"></polygon>
            <polygon id="Fill-20" fill="#FEFEFE" points="28.8514417 19.2851575 19.9654096 15.6215075 32.6980757 13.6792325"></polygon>
            <path d="M16.5320464,8.334745 C20.2912032,8.334745 23.3375388,9.50857 23.3375388,10.957345 C23.3375388,12.404945 20.2912032,13.57877 16.5320464,13.57877 C12.7740717,13.57877 9.72655396,12.404945 9.72655396,10.957345 C9.72655396,9.50857 12.7740717,8.334745 16.5320464,8.334745" id="Fill-22" fill="#FEFEFE"></path>
            <polygon id="Fill-24" fill="#621C1C" points="40.5897044 7.614705 48.1257499 10.57453 40.595615 13.532005"></polygon>
            <polygon id="Fill-26" fill="#9A2A28" points="32.2527693 10.8926025 40.5902954 7.6143525 40.5962061 13.5316525 39.7793578 13.8500775"></polygon>
        </g>
    </g>
</svg>