<?xml version="1.0" encoding="UTF-8"?>
<svg width="40px" height="39px" viewBox="0 0 40 39" version="1.1" xmlns="http://www.w3.org/2000/svg" xmlns:xlink="http://www.w3.org/1999/xlink">
    <!-- Generator: Sketch 43.2 (39069) - http://www.bohemiancoding.com/sketch -->
    <title>Page 1</title>
    <desc>Created with Sketch.</desc>
    <defs></defs>
    <g id="Community" stroke="none" stroke-width="1" fill="none" fill-rule="evenodd">
        <g id="Page-1" fill="#2F5266">
            <path d="M15.0941,32.3545 C15.1221,32.5155 14.9571,32.6805 14.7211,32.7245 C14.4891,32.7675 14.2741,32.6675 14.2441,32.5085 C14.2161,32.3435 14.3841,32.1775 14.6161,32.1355 C14.8521,32.0945 15.0641,32.1905 15.0941,32.3545 M13.4451,32.4175 C13.4501,32.5825 13.2581,32.7195 13.0201,32.7225 C12.7811,32.7275 12.5881,32.5945 12.5851,32.4315 C12.5851,32.2655 12.7731,32.1295 13.0121,32.1255 C13.2501,32.1215 13.4451,32.2535 13.4451,32.4175 M11.7661,32.2315 C11.7181,32.3885 11.4931,32.4595 11.2661,32.3925 C11.0401,32.3245 10.8921,32.1405 10.9381,31.9825 C10.9851,31.8245 11.2111,31.7505 11.4391,31.8215 C11.6651,31.8905 11.8131,32.0725 11.7661,32.2315 M10.2911,31.7925 C10.1811,31.9135 9.9481,31.8805 9.7771,31.7155 C9.6021,31.5545 9.5531,31.3255 9.6631,31.2045 C9.7741,31.0835 10.0091,31.1175 10.1811,31.2815 C10.3551,31.4425 10.4081,31.6725 10.2911,31.7925 M9.1491,30.4915 C9.0271,30.5765 8.8261,30.4965 8.7031,30.3195 C8.5801,30.1415 8.5801,29.9275 8.7051,29.8425 C8.8291,29.7565 9.0271,29.8335 9.1521,30.0105 C9.2751,30.1915 9.2751,30.4045 9.1491,30.4915 M8.4741,29.3685 C8.3791,29.4565 8.1931,29.4155 8.0661,29.2765 C7.9351,29.1365 7.9111,28.9505 8.0071,28.8605 C8.1061,28.7715 8.2871,28.8135 8.4181,28.9525 C8.5491,29.0935 8.5741,29.2795 8.4741,29.3685 M7.4911,28.4905 C7.4471,28.5895 7.2901,28.6195 7.1481,28.5515 C7.0031,28.4865 6.9211,28.3505 6.9681,28.2515 C7.0111,28.1485 7.1681,28.1205 7.3131,28.1885 C7.4581,28.2545 7.5411,28.3905 7.4911,28.4905 M20.0001,-0.0005 C8.9561,-0.0005 0.0001,8.9545 0.0001,20.0005 C0.0001,28.8365 5.7311,36.3335 13.6771,38.9785 C14.6771,39.1635 15.0441,38.5445 15.0441,38.0165 C15.0441,37.5395 15.0251,35.9635 15.0171,34.2925 C9.4531,35.5025 8.2781,31.9325 8.2781,31.9325 C7.3691,29.6215 6.0581,29.0065 6.0581,29.0065 C4.2431,27.7645 6.1951,27.7905 6.1951,27.7905 C8.2031,27.9315 9.2601,29.8515 9.2601,29.8515 C11.0441,32.9095 13.9391,32.0255 15.0811,31.5145 C15.2601,30.2215 15.7781,29.3395 16.3501,28.8395 C11.9081,28.3335 7.2381,26.6195 7.2381,18.9555 C7.2381,16.7715 8.0191,14.9875 9.2991,13.5875 C9.0911,13.0835 8.4071,11.0495 9.4931,8.2945 C9.4931,8.2945 11.1721,7.7565 14.9941,10.3445 C16.5891,9.9015 18.3001,9.6795 20.0001,9.6715 C21.7001,9.6795 23.4121,9.9015 25.0101,10.3445 C28.8281,7.7565 30.5051,8.2945 30.5051,8.2945 C31.5941,11.0495 30.9091,13.0835 30.7011,13.5875 C31.9831,14.9875 32.7591,16.7715 32.7591,18.9555 C32.7591,26.6375 28.0811,28.3285 23.6271,28.8235 C24.3441,29.4445 24.9841,30.6615 24.9841,32.5275 C24.9841,35.2035 24.9601,37.3575 24.9601,38.0165 C24.9601,38.5485 25.3201,39.1715 26.3341,38.9755 C34.2771,36.3285 40.0001,28.8335 40.0001,20.0005 C40.0001,8.9545 31.0451,-0.0005 20.0001,-0.0005" id="Fill-1"></path>
        </g>
    </g>
</svg>