<?xml version="1.0" encoding="UTF-8"?>
<svg width="39px" height="39px" viewBox="0 0 39 39" version="1.1" xmlns="http://www.w3.org/2000/svg" xmlns:xlink="http://www.w3.org/1999/xlink">
    <!-- Generator: Sketch 43.2 (39069) - http://www.bohemiancoding.com/sketch -->
    <title>Page 1</title>
    <desc>Created with Sketch.</desc>
    <defs>
        <polygon id="path-1" points="35.1219512 16.792 35.1219512 0.763594383 0.688848561 0.763594383 0.688848561 16.792 35.1219512 16.792"></polygon>
        <polygon id="path-3" points="16.7213972 0.229268293 0.717712198 0.229268293 0.717712198 34.41127 16.7213972 34.41127 16.7213972 0.229268293"></polygon>
    </defs>
    <g id="Community" stroke="none" stroke-width="1" fill="none" fill-rule="evenodd">
        <g id="Page-1" transform="translate(0.000000, -1.000000)">
            <path d="M3.32165854,21.5119024 C1.86604878,21.5226341 0.631902439,20.6553171 0.177268293,19.3011707 C0.160682927,19.2494634 0.145073171,19.1987317 0.130439024,19.1460488 C-0.365170732,17.4123902 0.595804878,15.5977561 2.3177561,15.0172683 L29.9450732,5.76068293 C30.272878,5.66604878 30.6123902,5.61629268 30.9538537,5.61336585 C32.4484878,5.60165854 33.7158049,6.4884878 34.1821463,7.87190244 L34.223122,8.00556098 C34.7401951,9.81141463 33.4562927,11.4240976 31.9177561,11.9411707 C31.9167805,11.9421463 31.6367805,12.0367805 4.44360976,21.3206829 C4.08263415,21.4436098 3.70312195,21.5089756 3.32165854,21.5119024 L3.32165854,21.5119024 Z" id="Fill-1" fill="#71C9DA"></path>
            <g id="Group-5" transform="translate(3.902439, 18.307610)">
                <mask id="mask-2" fill="white">
                    <use xlink:href="#path-1"></use>
                </mask>
                <g id="Clip-4"></g>
                <path d="M4.02409756,16.7910244 C2.55678049,16.8017561 1.31873171,15.9461463 0.86897561,14.6115122 C0.852390244,14.5607805 0.836780488,14.5090732 0.822146341,14.4573659 C0.319707317,12.7022439 1.27873171,10.8690732 3.0075122,10.2876098 L30.6348293,0.947121951 C30.9919024,0.828097561 31.3606829,0.766634146 31.7314146,0.763707317 C33.2036098,0.752 34.4962927,1.6515122 34.9519024,3.00078049 L34.9948293,3.14126829 C35.2611707,4.07492683 35.1040976,5.12370732 34.5733659,5.95102439 C34.1772683,6.56663415 32.930439,7.10809756 32.930439,7.10809756 L5.1977561,16.5910244 C4.81921951,16.7188293 4.42312195,16.787122 4.02409756,16.792 L4.02409756,16.7910244 Z" id="Fill-3" fill="#DF1765" mask="url(#mask-2)"></path>
            </g>
            <g id="Group-8" transform="translate(17.560976, 0.746634)">
                <mask id="mask-4" fill="white">
                    <use xlink:href="#path-3"></use>
                </mask>
                <g id="Clip-7"></g>
                <path d="M13.3638049,34.411122 C11.8945366,34.4247805 10.5833171,33.4920976 10.116,32.0989268 L0.895512195,4.71063415 L0.849658537,4.55746341 C0.350146341,2.81112195 1.31014634,0.988682927 3.03209756,0.408195122 C3.3764878,0.293073171 3.73356098,0.232585366 4.09160976,0.228682927 C4.62429268,0.224780488 5.14039024,0.344780488 5.62526829,0.584780488 C6.43307317,0.984780488 7.04868293,1.68917073 7.33453659,2.54380488 L16.5540488,29.9301463 L16.5813659,30.0179512 C17.098439,31.8316098 16.1403902,33.6540488 14.418439,34.2345366 C14.0779512,34.3486829 13.7228293,34.4081951 13.3638049,34.411122 L13.3638049,34.411122 Z" id="Fill-6" fill="#E7A724" mask="url(#mask-4)"></path>
            </g>
            <path d="M17.2193171,39.7708293 C15.7490732,39.7844878 14.4378537,38.8508293 13.969561,37.4566829 L4.752,10.0703415 C4.152,8.29570732 5.10419512,6.37082927 6.87882927,5.77082927 C6.88078049,5.76985366 6.88370732,5.76887805 6.88565854,5.76887805 C7.22614634,5.65473171 7.58321951,5.59521951 7.9422439,5.59131707 C9.4115122,5.57668293 10.7227317,6.51034146 11.1900488,7.9035122 L20.4085854,35.2918049 C21.0085854,37.066439 20.0563902,38.9903415 18.2817561,39.5903415 C18.2788293,39.5913171 18.2759024,39.5922927 18.2729756,39.5942439 C17.9324878,39.7074146 17.5763902,39.7669268 17.2183415,39.7708293 L17.2193171,39.7708293 L17.2193171,39.7708293 Z" id="Fill-9" fill="#3FB78F"></path>
            <polygon id="Fill-11" fill="#CC2028" points="26.3792195 28.9899512 32.8084878 26.7919024 30.7070244 20.5499512 24.2699512 22.725561"></polygon>
            <polygon id="Fill-13" fill="#351337" points="12.6949268 33.6687805 19.1232195 31.4707317 17.0061463 25.1819512 10.5710244 27.357561"></polygon>
            <polygon id="Fill-15" fill="#668639" points="21.8021463 15.3949268 28.2314146 13.1998049 26.1543415 7.03102439 19.7133659 9.18907317"></polygon>
            <polygon id="Fill-17" fill="#1D937D" points="8.11629268 20.0674146 14.545561 17.8722927 12.443122 11.6244878 6.00214634 13.7825366"></polygon>
        </g>
    </g>
</svg>