<?xml version="1.0" encoding="UTF-8"?>
<svg width="157px" height="53px" viewBox="0 0 157 53" version="1.1" xmlns="http://www.w3.org/2000/svg" xmlns:xlink="http://www.w3.org/1999/xlink">
    <!-- Generator: Sketch 43.2 (39069) - http://www.bohemiancoding.com/sketch -->
    <title>Group 53</title>
    <desc>Created with Sketch.</desc>
    <defs></defs>
    <g id="Design-1" stroke="none" stroke-width="1" fill="none" fill-rule="evenodd">
        <g id="Group-53" fill="#07509E">
            <path d="M120.803445,33.9446692 L114.817098,33.9446692 L110.798401,20.7495064 L110.731944,20.7495064 L110.954771,33.9446692 L106.78231,33.9446692 L106.78231,17.4546227 L113.018849,17.4546227 L116.733928,30.1314599 L116.819931,30.1314599 L116.601014,17.4546227 L120.803445,17.4546227 L120.803445,33.9446692 Z M102.26714,29.3735064 C102.273656,29.6847622 102.243685,30.3098785 102.226745,30.4687622 C101.970038,33.2140645 100.006297,34.6088552 96.4032829,34.6088552 C92.7859344,34.6088552 90.8208907,33.2140645 90.5654871,30.4687622 C90.5485471,30.3098785 90.5172732,29.6847622 90.5250916,29.3748087 L90.5250916,17.452018 L94.8265568,17.452018 L94.8265568,29.7511808 C94.8226476,30.0259715 94.8356784,30.2304366 94.863043,30.3710878 C94.9164693,30.6445762 95.1888129,31.5327622 96.4032829,31.5327622 C97.6138437,31.5327622 97.8861873,30.6445762 97.9422197,30.3736925 C97.9669782,30.2304366 97.980009,30.0155529 97.980009,29.7511808 L97.980009,17.452018 L102.26714,17.452018 L102.26714,29.3735064 Z M86.6927351,30.8855064 C86.2340511,34.1126692 83.0714774,34.6752738 80.8366962,34.6752738 C77.1242229,34.6752738 74.8295001,33.0916459 74.8295001,29.8631808 L74.8308032,28.547832 L79.3277302,28.547832 L79.3316395,30.1874599 C79.3316395,31.0769483 79.9597237,31.6226227 80.9292148,31.6226227 C81.7944596,31.6226227 82.3000544,31.2749018 82.4759701,30.5625297 C82.556761,30.2304366 82.5919442,29.7459715 82.4473023,29.380018 C81.6198469,27.308018 75.7768388,26.2935064 75.0666605,22.9322041 C74.9037756,22.1690413 74.893351,21.5230878 75.0262651,20.7052273 C75.5214352,17.6590878 78.4468485,17.0248552 80.801513,17.0248552 C82.9085925,17.0248552 84.4423169,17.4845762 85.3609879,18.404018 C86.0464077,19.0903436 86.3943299,20.031925 86.3943299,21.2027157 L86.3943299,22.4047622 L82.1892926,22.4047622 L82.1892926,21.3446692 C82.1892926,20.4369483 81.6250592,19.9108087 80.719419,19.9108087 C79.915419,19.9108087 79.4280673,20.2676459 79.2703947,20.9709018 C79.2378177,21.1193669 79.2052408,21.4631808 79.291244,21.8082971 C79.7408064,23.6549948 85.9903753,24.7841111 86.674492,28.1779715 C86.7617983,28.6129483 86.8829847,29.5428087 86.6927351,30.8855064 L86.6927351,30.8855064 Z M66.6435552,34.1139715 L66.541915,19.647739 L66.4689425,19.647739 L63.7741743,34.1139715 L59.4779215,34.1139715 L56.7974871,19.647739 L56.7219085,19.647739 L56.6241775,34.1139715 L52.365714,34.1139715 L52.7344855,17.4546227 L59.5821678,17.4546227 L61.5771824,29.8306227 L61.6749134,29.8306227 L63.6725341,17.4546227 L70.5176103,17.4546227 L70.8850787,34.1139715 L66.6435552,34.1139715 Z M44.6228161,34.1139715 L42.4505827,19.3625297 L42.372398,19.3625297 L40.1454352,34.1139715 L35.5651111,34.1139715 L38.6442878,17.4546227 L46.113539,17.4546227 L49.1744725,34.1139715 L44.6228161,34.1139715 Z M156.900048,12.4029018 C154.764301,0.151925012 117.934064,-3.6717029 74.6340382,3.86355292 C56.4482618,7.02820408 40.0294612,11.6983436 27.2423429,16.951925 C29.2047805,16.9949018 30.6629263,17.4455064 31.5477173,18.3271808 C32.2396524,19.0187157 32.5888777,19.9694134 32.5888777,21.1545297 L32.5888777,22.3682971 L28.343445,22.3682971 L28.343445,21.2951808 C28.343445,20.4017855 27.8065763,19.8469948 26.8566314,19.8469948 C26.0591468,19.8469948 25.5652797,20.207739 25.407607,20.9175064 C25.3633023,21.1154599 25.3515746,21.4540645 25.4258502,21.764018 C25.8793218,23.6211343 32.18362,24.7723901 32.8716459,28.2001111 C32.9615584,28.6402971 33.0840479,29.5818785 32.8911921,30.9336925 C32.4976622,33.695925 30.0687221,34.7625297 26.9778177,34.7625297 C22.6620187,34.7625297 20.9093769,32.7191808 20.9093769,29.9022506 L20.9119831,28.5699715 L25.4636395,28.5699715 L25.4662456,30.2304366 C25.4662456,31.1629018 26.1438469,31.6786227 27.0690333,31.6786227 C27.9447027,31.6786227 28.4555098,31.3256925 28.6327286,30.6042041 C28.7148226,30.2721111 28.7513088,29.7850413 28.6014547,29.4112738 C27.7596654,27.2989018 21.8710495,26.3130413 21.1478404,22.8983436 C20.9849555,22.1312738 20.9719247,21.4775064 21.1061419,20.651832 C21.1791143,20.203832 21.3172408,19.8209483 21.4827318,19.4706227 C7.29871239,26.1007622 -0.999297331,33.3937855 0.0965924587,39.691832 C2.23494578,51.9428087 39.0638793,55.763832 82.3626022,48.2285762 C101.396683,44.9167622 118.507419,39.9614134 131.531698,34.4056925 C131.342751,34.4148087 131.161623,34.4356459 130.966161,34.4356459 C128.001656,34.4356459 125.356404,33.3247622 125.081455,30.2981576 C125.031938,29.7472738 125.022816,29.5167622 125.021513,29.2015994 L125.022816,22.2432738 C125.022816,21.9424366 125.057999,21.4162971 125.091879,21.1441111 C125.443711,18.2177855 127.75798,17.011832 130.966161,17.011832 C133.448528,17.011832 136.492521,17.7242041 136.827413,21.1467157 C136.871717,21.5764832 136.866505,22.0349018 136.866505,22.1859715 L136.866505,22.1885762 L136.866505,22.8436459 L132.576767,22.8436459 L132.576767,21.8655994 L132.576767,21.8616925 C132.576767,21.8408552 132.571555,21.4749018 132.523341,21.2456925 C132.452975,20.8953669 132.155873,20.0866227 130.933584,20.0866227 C129.726933,20.0866227 129.414194,20.8979715 129.336009,21.2469948 C129.291704,21.4384366 129.270855,21.7132273 129.270855,22.0179715 L129.270855,29.5818785 C129.266946,29.8436459 129.279977,30.0481111 129.306038,30.2004832 C129.328191,30.3202971 129.543199,31.3621576 130.947918,31.3621576 C132.342213,31.3621576 132.557221,30.3202971 132.576767,30.2004832 C132.613254,29.996018 132.618466,29.7511808 132.617163,29.5818785 L132.617163,27.2376925 L130.928372,27.2376925 L130.928372,24.7137855 L136.896476,24.7137855 L136.896476,29.2029018 C136.89387,29.5089483 136.88996,29.7355529 136.837837,30.2981576 C136.766168,31.0912738 136.515977,31.7645762 136.122447,32.3389018 C149.940301,25.7855994 157.981604,18.6097855 156.900048,12.4029018 L156.900048,12.4029018 Z" id="Fill-40"></path>
        </g>
    </g>
</svg>