<?xml version="1.0" encoding="UTF-8"?>
<svg width="266px" height="53px" viewBox="0 0 266 53" version="1.1" xmlns="http://www.w3.org/2000/svg" xmlns:xlink="http://www.w3.org/1999/xlink">
    <!-- Generator: Sketch 43.2 (39069) - http://www.bohemiancoding.com/sketch -->
    <title>Group 51</title>
    <desc>Created with Sketch.</desc>
    <defs>
        <polygon id="path-1" points="0 0.0749334906 0 52.1676611 59.1046734 52.1676611 59.1046734 0.0749334906 0 0.0749334906"></polygon>
    </defs>
    <g id="Design-1" stroke="none" stroke-width="1" fill="none" fill-rule="evenodd">
        <g id="Group-51">
            <path d="M252.727838,42.3555665 L246.50824,42.3555665 L246.50824,25.5438456 C246.433964,23.1267293 248.333854,21.10552 250.75237,21.0312875 C250.79928,21.0299851 250.844888,21.0286828 250.890496,21.0286828 L252.712201,21.0286828 L252.727838,42.3555665 Z M233.030489,37.133241 C236.02236,37.0121247 238.34966,34.4908223 238.228473,31.5006828 C238.116408,28.725427 235.923326,26.485427 233.150373,26.3109154 C230.265355,26.2770549 227.89766,28.5873805 227.86378,31.4720317 C227.862476,31.5371479 227.862476,31.6035665 227.865083,31.6699851 C227.706107,34.5168689 229.887462,36.9522177 232.735994,37.1097991 C232.833724,37.1150084 232.931455,37.117613 233.030489,37.117613 L233.030489,37.133241 Z M226.193232,14.0000317 L228.076182,14.0000317 L228.076182,22.7751014 C229.70894,21.1484968 231.946327,20.2759386 234.250172,20.3671014 C238.69237,20.3671014 244.700869,23.5421712 244.700869,31.5788223 C244.700869,39.2247758 239.385608,43.0627293 233.979131,43.0627293 C231.590587,43.1421712 229.324532,42.0104503 227.954995,40.0530549 L227.954995,42.325613 L221.735397,42.325613 L221.735397,18.4097061 C221.791429,15.9808689 223.761686,14.0312875 226.193232,14.0000317 L226.193232,14.0000317 Z M208.37753,37.133241 C211.3694,37.0121247 213.6967,34.4908223 213.575514,31.5006828 C213.463449,28.725427 211.271669,26.485427 208.498716,26.3109154 C205.612395,26.2770549 203.2447,28.5873805 203.21082,31.4720317 C203.21082,31.5371479 203.21082,31.6035665 203.212123,31.6699851 C203.054451,34.5168689 205.235806,36.9522177 208.084337,37.1097991 C208.182068,37.1150084 208.279799,37.117613 208.37753,37.117613 L208.37753,37.133241 Z M201.525938,14.0000317 L203.46883,14.0000317 L203.46883,22.7751014 C205.100285,21.1458921 207.338976,20.273334 209.64282,20.3671014 C214.085018,20.3671014 220.093517,23.5421712 220.093517,31.5788223 C220.093517,39.2247758 214.778256,43.0627293 209.37178,43.0627293 C206.983235,43.1421712 204.71718,42.0104503 203.347643,40.0530549 L203.347643,42.325613 L196.992525,42.325613 L196.992525,18.4097061 C197.049861,15.9522177 199.065724,13.9909154 201.525938,14.0000317 L201.525938,14.0000317 Z M182.641712,37.117613 C185.535851,37.1618921 187.916577,34.8515665 187.960882,31.9604037 C187.962185,31.8679386 187.960882,31.7767758 187.956972,31.6843107 C188.247559,28.773613 186.120934,26.1780782 183.207248,25.8876596 C180.294865,25.597241 177.697828,27.7226363 177.407241,30.6346363 C177.370755,31.0084037 177.373361,31.3860782 177.41506,31.7598456 C177.382483,34.6744503 179.709783,37.0681247 182.626075,37.117613 L182.641712,37.117613 Z M194.312091,42.3555665 L190.246483,42.3555665 C189.007254,42.3803107 187.983034,41.3970549 187.956972,40.1585433 L187.956972,40.0830084 L187.881394,40.0830084 C186.812869,42.1602177 184.162405,43.0926828 181.677433,43.0926828 C174.945724,43.0926828 171,37.7948223 171,31.7142642 C171,24.7468223 176.015553,20.3671014 181.677433,20.3671014 C184.129828,20.217334 186.481887,21.3594735 187.881394,23.3767758 L187.956972,23.3767758 C187.932214,22.1460782 188.909524,21.1289619 190.13963,21.1042177 L190.216512,21.1042177 L194.312091,21.1042177 L194.312091,42.3555665 Z" id="Fill-25" fill="#52AE46"></path>
            <path d="M249.328065,13 C251.16671,13 252.65613,14.4885581 252.65613,16.3261395 C252.65613,18.1637209 251.16671,19.6522791 249.328065,19.6522791 C247.48942,19.6522791 246,18.1637209 246,16.3261395 C246,14.4885581 247.48942,13 249.328065,13" id="Fill-27" fill="#52AE46"></path>
            <path d="M264.325135,35.9585116 C263.652746,35.9337674 262.993387,35.7592558 262.39788,35.4466977 C261.438814,34.9270698 260.90846,33.8617674 261.072648,32.7834419 L261.072648,25.9501395 L265.213835,25.9501395 L265.213835,20.9830698 L261.072648,20.9830698 L261.072648,14.0143256 L259.189699,14.0143256 C256.694301,14.0143256 254.671922,16.0355349 254.671922,18.5294884 L254.671922,32.8433488 C254.553342,38.020093 258.656739,42.3138605 263.83648,42.4323721 C263.999365,42.4349767 264.16225,42.4349767 264.325135,42.4297674 L265.243806,42.4297674 L265.243806,35.9585116 L264.325135,35.9585116 Z M158.487721,28.2982326 L156.002749,28.2982326 L156.002749,20.4256744 L158.5633,20.4256744 C161.349284,20.4256744 163.23093,21.675907 163.23093,24.2493023 C163.276538,25.6180465 162.778762,28.2982326 158.532026,28.2982326 L158.487721,28.2982326 Z M167.523274,35.9585116 C166.440415,35.8933953 165.426619,35.399814 164.707319,34.5884651 L163.697433,33.2939535 L163.186626,32.6922791 C167.435968,31.9108837 170.442172,28.0950698 170.203708,23.7830698 C170.283196,20.8189767 169.021815,17.9773023 166.770094,16.0459535 C164.932752,14.6316279 163.005498,14 158.035553,14 L149,14 L149,42.3698605 L155.957141,42.3698605 L155.957141,33.8813023 L158.653212,37.2673488 L159.721737,38.6074419 C161.663326,40.9203721 164.504039,42.2904186 167.523274,42.3698605 L170.339229,42.3698605 L170.339229,35.9585116 L167.523274,35.9585116 Z" id="Fill-29" fill="#52AE46"></path>
            <path d="M73.4352188,20.5171836 L67.0045219,20.5171836 L67.0045219,18.5155092 C66.8963663,16.1322534 68.7415268,14.1123464 71.1261621,14.0042534 C71.2030438,14.0016487 71.2799255,13.9990441 71.3568072,14.0003464 L86.8986354,14.0003464 L86.8986354,20.4116952 L80.6790373,20.4116952 L80.6790373,42.4613697 L77.9686321,42.4613697 C75.473235,42.4613697 73.4508558,40.4401604 73.4508558,37.9462069 L73.4352188,20.5171836 Z" id="Fill-31" fill="#2A4F25"></path>
            <path d="M126.898139,36.6856977 L126.898139,42.3599302 L133.313199,42.3599302 L133.313199,32.2603953 C133.313199,32.2603953 134.2019,33.5705349 136.686872,37.362907 C139.954995,42.3742558 146.429997,42.4055116 146.701037,42.4055116 L148.207397,42.4055116 L148.207397,36.7755581 L146.701037,36.7755581 C146.701037,36.7755581 142.876499,36.7755581 141.250256,34.2321163 L139.036324,30.9059767 L138.779618,30.4540698 L146.776616,21.0929535 L139.247423,21.0929535 L133.358807,28.7545349 L133.283229,28.7545349 L133.283229,18.4140698 C133.335352,16.0295116 131.44328,14.0525814 129.057342,14.0004884 C128.959611,13.999186 128.863183,14.0004884 128.765452,14.0043953 L126.898139,14.0043953 L126.898139,36.6856977 Z M118.420305,27.0380698 C118.420305,26.6161163 118.299118,25.4427209 116.431806,25.4427209 C115.090937,25.4427209 114.640071,26.2853256 114.640071,26.8570465 C114.640071,28.0017907 116.145128,28.6633721 117.892558,29.1608605 C121.491663,30.1532326 125.317504,31.2224419 125.317504,35.8131395 C125.317504,40.4038372 121.37178,43.007186 116.672875,43.007186 C113.45036,43.007186 108.600298,41.5016977 108.028246,35.9329535 L114.33906,35.9329535 C114.417245,37.1441163 115.462314,38.0622558 116.674178,37.9841163 C116.693724,37.982814 116.713271,37.9815116 116.732817,37.9802093 C117.802645,37.9802093 118.946749,37.3928605 118.946749,36.354907 C118.946749,34.7139767 117.440389,34.5329535 113.31484,32.9532326 C110.558827,32.0806744 108.269316,30.2743488 108.254982,27.4144419 C108.254982,23.2001163 112.07952,20.4014186 116.491747,20.4014186 C119.293368,20.4014186 124.112156,21.4992791 124.6386,27.0836512 L118.420305,27.0380698 Z M94.715987,37.1219767 C97.6101264,37.1662558 99.9921556,34.8559302 100.035157,31.9634651 C100.03646,31.8723023 100.035157,31.7811395 100.032551,31.6886744 C100.321835,28.7779767 98.1952091,26.1824419 95.2828266,25.8920233 C92.369141,25.6016047 89.7721037,27.727 89.4828201,30.639 C89.4450308,31.0127674 89.447637,31.3904419 89.4906386,31.7642093 C89.4567585,34.6840233 91.794483,37.0803023 94.715987,37.1219767 L94.715987,37.1219767 Z M106.387669,42.3599302 L102.320759,42.3599302 C101.08153,42.3846744 100.05731,41.4014186 100.032551,40.162907 C100.031248,40.1381628 100.031248,40.1121163 100.032551,40.0873721 L99.8813938,40.0873721 C98.8128687,42.1645814 96.1624052,43.0970465 93.6774327,43.0970465 C86.9457245,43.0970465 83,37.799186 83,31.7186279 C83,24.7498837 88.0142496,20.3701628 93.6774327,20.3701628 C96.1298282,20.2216977 98.4818865,21.3638372 99.8813938,23.3811395 L99.9569724,23.3811395 C99.9322139,22.1504419 100.909524,21.1333256 102.13963,21.1085814 C102.165692,21.1072791 102.190451,21.1072791 102.215209,21.1085814 L106.312091,21.1085814 L106.387669,42.3599302 Z" id="Fill-33" fill="#2A4F25"></path>
            <g id="Group-37">
                <mask id="mask-2" fill="white">
                    <use xlink:href="#path-1"></use>
                </mask>
                <g id="Clip-36"></g>
                <path d="M57.8320979,23.765414 C54.8206814,18.7683907 52.6210833,18.1510884 50.7237997,17.5949953 C49.1131935,17.1274605 47.7123831,16.7211349 45.0319488,12.2216 C43.1125128,8.99183256 40.6692389,6.10327442 37.8024642,3.67313488 C34.2189958,0.692111628 31.6284739,0.0761116279 30.1221141,0.0761116279 C29.1395922,0.053972093 28.1753135,0.344390698 27.3674042,0.903088372 L26.1464188,1.77694884 C25.7854658,1.66494884 25.411482,1.59853023 25.0322859,1.58029767 C24.4250509,1.56076279 23.8282405,1.75220465 23.3461011,2.12206512 C22.7401692,2.64299535 22.4534917,3.44392558 22.5929212,4.22922791 C22.8835079,5.54457674 23.541563,6.75053023 24.4902049,7.70643721 C24.9124026,8.20262326 25.394542,8.7443907 25.9965647,9.30178605 C18.1468143,7.87573953 10.1498159,10.8906233 5.19941718,17.1430884 L4.73291475,17.1430884 C3.10015624,17.1222512 1.57555332,17.9557395 0.711611669,19.3401116 C-0.0129004862,20.4731349 -0.195331605,21.8679256 0.215138412,23.1481116 C0.426237277,23.8318326 0.779371799,24.4634605 1.25369271,25.0000186 C-1.8476363,36.4917395 4.95965057,48.3220651 16.4580233,51.4216 C26.0747494,54.0145302 36.2166165,49.6869023 40.9950088,40.953507 C41.3611741,40.9743442 41.7286425,40.9743442 42.0948078,40.953507 C43.0056603,40.9821581 43.9099974,40.7907163 44.7309374,40.3961116 C45.6509115,39.9546233 46.2724804,39.0638326 46.3715144,38.0480186 C46.4588207,37.0074605 45.9675598,36.0007628 45.0918904,35.4303442 C44.5289601,35.0669953 43.9217251,34.7778791 43.2845193,34.5721116 C43.3744318,34.0902512 43.4500104,33.5888558 43.509952,33.0666233 C45.0110995,33.5589023 46.5852194,33.7881116 48.1645517,33.7438326 C48.842153,33.7438326 49.564059,33.7438326 50.5127008,33.6539721 C55.6781076,33.337507 57.7265485,31.425693 58.53967,29.8915535 C59.2029374,28.7624372 59.6094982,26.6552744 57.8320979,23.765414 L57.8320979,23.765414 Z" id="Fill-35" fill="#52AE46" mask="url(#mask-2)"></path>
            </g>
            <path d="M51.718527,24.948977 C50.9314671,24.9112095 50.2629873,24.3603258 50.076647,23.5945584 C49.9267928,22.9720467 50.3098982,22.3456281 50.9327701,22.1958607 C51.0370165,22.1711165 51.143869,22.1606979 51.2520246,22.1646049 C52.0729646,22.197163 52.7635967,22.7884188 52.9238755,23.5945584 C53.0750327,24.2157677 52.6932304,24.8434886 52.0716616,24.9945584 C51.9517783,25.0245119 51.8266826,25.0336281 51.7028901,25.0245119 L51.718527,24.948977 Z M56.9139047,24.948977 C51.5830068,16.0996746 49.7456648,22.48107 44.0538139,13.3595816 C39.5360376,5.98451185 32.5332888,0.732232782 29.1439792,2.26767464 C29.0280052,2.31195371 28.9693666,2.4434886 29.0149744,2.55939557 C29.0371267,2.61930255 29.0853407,2.66618627 29.1439792,2.6883258 C32.503318,4.05837232 39.6858917,10.04907 42.8328285,16.0840467 C42.874527,16.1504653 42.8549808,16.2377212 42.7885238,16.2793956 C42.7220667,16.32107 42.6334573,16.3015351 42.5930619,16.2351165 C38.7372499,11.3579072 26.8258009,2.11660487 24.7773601,3.7419072 C23.0911753,5.08200022 32.0511494,13.5861863 39.3549095,17.2886979 C39.5190975,17.3668374 39.5894638,17.5647909 39.509976,17.7301863 C39.5086729,17.7327909 39.5073698,17.7366979 39.5047637,17.7393025 C39.1737815,18.3422793 38.3606599,19.2447909 36.1323941,19.169256 C32.2765821,19.169256 28.6018982,13.4806979 20.2595838,13.3752095 C15.1345724,13.3074886 10.2441154,15.5123258 6.90171666,19.3958607 C6.84047193,19.4453491 6.75186253,19.4453491 6.6906178,19.3958607 C5.2155319,18.61707 3.39122072,19.0859072 2.47385281,20.4793956 C1.57994033,21.913256 1.9865011,23.7990235 3.3925238,24.7380002 C3.52152866,24.8161398 3.57886415,24.9724188 3.52804405,25.1143723 C2.91950597,27.0118607 2.60546383,28.9913956 2.59503919,30.9839537 C2.66931472,40.5208839 10.4161219,48.2163258 19.9585724,48.2319537 C23.2475449,48.2801398 26.4778787,47.3476746 29.2351948,45.55307 C31.8999922,43.9433956 33.8585206,41.8206049 33.3464103,40.285163 C32.6075643,38.0581863 29.3850489,38.780977 26.1169257,40.0598607 C26.0048609,40.0911165 25.8888868,40.0246979 25.8576129,39.9126979 C25.8393698,39.8423723 25.8576129,39.7668374 25.90713,39.7134421 C29.7407896,35.7296281 29.6169971,29.3938142 25.6308771,25.5623723 C23.7635643,23.765163 21.2707734,22.7636746 18.6776454,22.7662793 C14.5820667,22.5253491 10.8005303,24.9593956 9.32674746,28.7869305 C9.29286739,28.9158607 9.16125637,28.9926979 9.03225151,28.9601398 C8.90324665,28.9262793 8.82636496,28.7947444 8.85894195,28.6671165 C9.90401164,23.8875816 14.0295611,20.4064653 18.918715,20.1785584 C24.9206988,19.8126049 30.0834995,24.3798607 30.4483617,30.3783723 C30.583882,32.6105584 30.0287701,34.8284188 28.8586048,36.7337212 C28.7595708,36.876977 28.7947539,37.0736281 28.9380927,37.1739072 C29.0397329,37.2442328 29.1739501,37.2481398 29.2794995,37.1856281 C30.4770295,36.5201398 31.5390392,35.637163 32.4121024,34.580977 C32.4668317,34.5184653 32.5619565,34.513256 32.6245043,34.5679537 C32.6297167,34.5718607 32.6336259,34.57707 32.6388382,34.580977 C38.0596486,40.5117677 45.0024557,40.6016281 45.1822807,38.3134421 C45.3933795,35.6957677 38.6916421,37.3953025 38.2707475,30.8940932 C38.2707475,30.8107444 38.3385076,30.7430235 38.4206016,30.7430235 C38.4531786,30.7430235 38.4857556,30.7534421 38.5118172,30.772977 C39.116446,31.269163 40.0077523,31.1806049 40.5042256,30.5763258 C40.6762321,30.3666514 40.7843877,30.1113956 40.8156616,29.8405119 C40.8312985,29.7584653 40.9094833,29.70507 40.9915773,29.7206979 C41.0150327,29.7246049 41.0371851,29.7350235 41.0567313,29.7506514 C43.9482645,32.564977 46.8841024,32.7603258 50.8897685,32.4594886 C56.6128933,32.1430235 59.2789938,28.9979072 56.9139047,24.948977 L56.9139047,24.948977 Z" id="Fill-38" fill="#FEFEFE"></path>
        </g>
    </g>
</svg>