<?xml version="1.0" encoding="UTF-8"?>
<svg width="100px" height="98px" viewBox="0 0 100 98" version="1.1" xmlns="http://www.w3.org/2000/svg" xmlns:xlink="http://www.w3.org/1999/xlink">
    <!-- Generator: Sketch 43.2 (39069) - http://www.bohemiancoding.com/sketch -->
    <title>Page 1</title>
    <desc>Created with Sketch.</desc>
    <defs></defs>
    <g id="Page-1" stroke="none" stroke-width="1" fill="none" fill-rule="evenodd">
        <g id="Fill-1" fill="#2F5266">
            <path d="M37.73525,80.88625 C37.80525,81.28875 37.39275,81.70125 36.80275,81.81125 C36.22275,81.91875 35.68525,81.66875 35.61025,81.27125 C35.54025,80.85875 35.96025,80.44375 36.54025,80.33875 C37.13025,80.23625 37.66025,80.47625 37.73525,80.88625 M33.61275,81.04375 C33.62525,81.45625 33.14525,81.79875 32.55025,81.80625 C31.95275,81.81875 31.47025,81.48625 31.46275,81.07875 C31.46275,80.66375 31.93275,80.32375 32.53025,80.31375 C33.12525,80.30375 33.61275,80.63375 33.61275,81.04375 M29.41525,80.57875 C29.29525,80.97125 28.73275,81.14875 28.16525,80.98125 C27.60025,80.81125 27.23025,80.35125 27.34525,79.95625 C27.46275,79.56125 28.02775,79.37625 28.59775,79.55375 C29.16275,79.72625 29.53275,80.18125 29.41525,80.57875 M25.72775,79.48125 C25.45275,79.78375 24.87025,79.70125 24.44275,79.28875 C24.00525,78.88625 23.88275,78.31375 24.15775,78.01125 C24.43525,77.70875 25.02275,77.79375 25.45275,78.20375 C25.88775,78.60625 26.02025,79.18125 25.72775,79.48125 M22.87275,76.22875 C22.56775,76.44125 22.06525,76.24125 21.75775,75.79875 C21.45025,75.35375 21.45025,74.81875 21.76275,74.60625 C22.07275,74.39125 22.56775,74.58375 22.88025,75.02625 C23.18775,75.47875 23.18775,76.01125 22.87275,76.22875 M21.18525,73.42125 C20.94775,73.64125 20.48275,73.53875 20.16525,73.19125 C19.83775,72.84125 19.77775,72.37625 20.01775,72.15125 C20.26525,71.92875 20.71775,72.03375 21.04525,72.38125 C21.37275,72.73375 21.43525,73.19875 21.18525,73.42125 M18.72775,71.22625 C18.61775,71.47375 18.22525,71.54875 17.87025,71.37875 C17.50775,71.21625 17.30275,70.87625 17.42025,70.62875 C17.52775,70.37125 17.92025,70.30125 18.28275,70.47125 C18.64525,70.63625 18.85275,70.97625 18.72775,71.22625 M50.00025,-0.00125 C22.39025,-0.00125 0.00025,22.38625 0.00025,50.00125 C0.00025,72.09125 14.32775,90.83375 34.19275,97.44625 C36.69275,97.90875 37.61025,96.36125 37.61025,95.04125 C37.61025,93.84875 37.56275,89.90875 37.54275,85.73125 C23.63275,88.75625 20.69525,79.83125 20.69525,79.83125 C18.42275,74.05375 15.14525,72.51625 15.14525,72.51625 C10.60775,69.41125 15.48775,69.47625 15.48775,69.47625 C20.50775,69.82875 23.15025,74.62875 23.15025,74.62875 C27.61025,82.27375 34.84775,80.06375 37.70275,78.78625 C38.15025,75.55375 39.44525,73.34875 40.87525,72.09875 C29.77025,70.83375 18.09525,66.54875 18.09525,47.38875 C18.09525,41.92875 20.04775,37.46875 23.24775,33.96875 C22.72775,32.70875 21.01775,27.62375 23.73275,20.73625 C23.73275,20.73625 27.93025,19.39125 37.48525,25.86125 C41.47275,24.75375 45.75025,24.19875 50.00025,24.17875 C54.25025,24.19875 58.53025,24.75375 62.52525,25.86125 C72.07025,19.39125 76.26275,20.73625 76.26275,20.73625 C78.98525,27.62375 77.27275,32.70875 76.75275,33.96875 C79.95775,37.46875 81.89775,41.92875 81.89775,47.38875 C81.89775,66.59375 70.20275,70.82125 59.06775,72.05875 C60.86025,73.61125 62.46025,76.65375 62.46025,81.31875 C62.46025,88.00875 62.40025,93.39375 62.40025,95.04125 C62.40025,96.37125 63.30025,97.92875 65.83525,97.43875 C85.69275,90.82125 100.00025,72.08375 100.00025,50.00125 C100.00025,22.38625 77.61275,-0.00125 50.00025,-0.00125"></path>
        </g>
    </g>
</svg>