<?xml version="1.0" encoding="UTF-8"?>
<svg width="999px" height="956px" viewBox="0 0 999 956" version="1.1" xmlns="http://www.w3.org/2000/svg" xmlns:xlink="http://www.w3.org/1999/xlink">
    <!-- Generator: Sketch 44.1 (41455) - http://www.bohemiancoding.com/sketch -->
    <title>Page 1</title>
    <desc>Created with Sketch.</desc>
    <defs></defs>
    <g id="Page-1" stroke="none" stroke-width="1" fill="none" fill-rule="evenodd">
        <g>
            <polygon id="Fill-1" fill="#E14E3A" points="499.239796 0.00361509434 381.381696 364.98354 0 364.98354 83.9161884 426.331691 361.577009 426.331691 355.146099 446.259898 111.16672 446.259898 195.567921 507.951483 335.215668 507.951483 328.784758 527.879691 222.827434 527.879691 308.548948 590.556389 190.690848 955.536313 499.239796 729.963464 807.779762 955.536313 689.930644 590.556389 775.652158 527.879691 669.694834 527.879691 663.254943 507.951483 802.911671 507.951483 887.30389 446.259898 643.333493 446.259898 636.902583 426.331691 914.563403 426.331691 998.479592 364.98354 617.088914 364.98354"></polygon>
            <path d="M442.832813,594.892694 L499.238,420.211336 L555.643187,594.892694 L442.832813,594.892694 Z M674.219824,770.116317 L499.238,229.225902 L324.265157,770.116317 L405.405995,710.792619 L423.773608,653.909109 L574.702392,653.909109 L593.070004,710.792619 L674.219824,770.116317 Z" id="Fill-2" fill="#FBF9E4"></path>
        </g>
    </g>
</svg>