<?xml version="1.0" encoding="UTF-8"?>
<svg width="43px" height="41px" viewBox="0 0 43 41" version="1.1" xmlns="http://www.w3.org/2000/svg" xmlns:xlink="http://www.w3.org/1999/xlink">
    <!-- Generator: Sketch 43.2 (39069) - http://www.bohemiancoding.com/sketch -->
    <title>footer logo</title>
    <desc>Created with Sketch.</desc>
    <defs></defs>
    <g id="Design-1" stroke="none" stroke-width="1" fill="none" fill-rule="evenodd">
        <g id="Page-1">
            <g id="footer-logo">
                <polygon id="Fill-1" fill="#E14E3A" points="21.0632218 0.719370175 16.090537 16.0109316 -0.000143968872 16.0109316 3.54077043 18.5817035 15.2555175 18.5817035 14.9834163 19.4160895 4.69036187 19.4160895 8.25143191 22.0019667 14.143358 22.0019667 13.8719767 22.8363526 9.40102335 22.8363526 13.0182412 25.4617912 8.04555642 40.7540719 21.0632218 31.3032123 34.081607 40.7540719 29.1089222 25.4617912 32.7261401 22.8363526 28.2551868 22.8363526 27.9838054 22.0019667 33.8757315 22.0019667 37.4368016 19.4160895 27.1437471 19.4160895 26.8716459 18.5817035 38.586393 18.5817035 42.1273074 16.0109316 26.0359066 16.0109316"></polygon>
                <path d="M18.6836323,25.6438456 L21.0634377,18.324986 L23.4432432,25.6438456 L18.6836323,25.6438456 Z M28.4461615,32.9857228 L21.0634377,10.3235123 L13.680714,32.9857228 L17.1042938,30.4998281 L17.8795661,28.116793 L24.2473093,28.116793 L25.0225817,30.4998281 L28.4461615,32.9857228 Z" id="Fill-2" fill="#FBF9E4"></path>
            </g>
        </g>
    </g>
</svg>