<?xml version="1.0" encoding="UTF-8"?>
<svg width="960px" height="230px" viewBox="0 0 960 230" version="1.1" xmlns="http://www.w3.org/2000/svg" xmlns:xlink="http://www.w3.org/1999/xlink">
    <!-- Generator: Sketch 43.2 (39069) - http://www.bohemiancoding.com/sketch -->
    <title>Page 1</title>
    <desc>Created with Sketch.</desc>
    <defs>
        <polygon id="path-1" points="480 329.638 0 329.638 0 -5.68434189e-14 480 -5.68434189e-14 960 -5.68434189e-14 960 329.638 480 329.638"></polygon>
    </defs>
    <g id="Page-1" stroke="none" stroke-width="1" fill="none" fill-rule="evenodd">
        <g transform="translate(0.000000, -100.000000)">
            <mask id="mask-2" fill="white">
                <use xlink:href="#path-1"></use>
            </mask>
            <g id="Clip-2"></g>
            <path d="M960.05288,213 C956.365874,213.259097 950.391013,214.696198 947.174639,216.200298 C942.546639,158.217298 892.579,100 833.405,100 C784.853,100 743.478,130.707 727.629,173.758 C708.215,173.663 693.791,186.878 691.844,203.884 C666.36,208.208 645.257,225.387 635.489,248.529 C623.953,240.702 610.041,236.115 595.047,236.115 C567.795,236.115 544.075,251.22 531.791,273.512 C523.028,269.728 513.375,267.614 503.221,267.614 C490.703,267.614 478.933,270.805 468.671,276.412 C459.255,247.507 432.105,226.615 400.057,226.615 C373.943,226.615 351.076,240.486 338.403,261.258 C330.046,240.66 309.88,226.125 286.28,226.125 C285.925,203.716 267.683,185.643 245.195,185.643 C243.355,185.643 241.557,185.805 239.781,186.04 C228.633,141.206 188.126,107.975 139.842,107.975 C82.961,107.975 36.849,154.087 36.849,210.969 C36.849,212.07 36.897,213.159 36.932,214.251 C30.551,211.804 23.649,210.406 16.406,210.406 C-15.298,210.406 -41,236.108 -41,267.813 C-41,272.438 -40.393,276.912 -39.361,281.22 L-41,429.638 L1020.468,429.638 L1020.468,286.271 L1024.366,286.271 C1027.324,278.994 1028.986,271.052 1028.986,262.713 C1028.986,228.107 993.792272,210.629035 960.05288,213 Z" id="Fill-1" fill="#FBF9E4" mask="url(#mask-2)"></path>
        </g>
    </g>
</svg>