<?xml version="1.0" encoding="UTF-8"?>
<svg width="211px" height="160px" viewBox="0 0 211 160" version="1.1" xmlns="http://www.w3.org/2000/svg" xmlns:xlink="http://www.w3.org/1999/xlink">
    <!-- Generator: Sketch 43.2 (39069) - http://www.bohemiancoding.com/sketch -->
    <title>Group 23</title>
    <desc>Created with Sketch.</desc>
    <defs>
        <polygon id="path-1" points="2.20720538 0.00872093023 0.263011327 0.00872093023 0.263011327 1.93424911 2.20720538 1.93424911 2.20720538 0.00872093023"></polygon>
    </defs>
    <g id="Page-1" stroke="none" stroke-width="1" fill="none" fill-rule="evenodd">
        <g id="Group-23">
            <ellipse id="Oval-1-Copy-7" fill="#FFFEF3" cx="107.014354" cy="80" rx="80.7655502" ry="80"></ellipse>
            <g id="Page-1" transform="translate(0.000000, 13.000000)">
                <path d="M169.194583,81.256032 C168.725016,81.5132994 168.554064,82.0990552 168.813794,82.5641715 C169.073523,83.0292878 169.664884,83.1986192 170.134451,82.9413517 C170.604018,82.6840843 170.77497,82.0983285 170.515241,81.6332122 C170.255511,81.1680959 169.66415,80.9987645 169.194583,81.256032" id="Fill-1" fill="#2F5266"></path>
                <path d="M75.136027,123.185683 C74.6664599,123.442951 74.4955081,124.028706 74.7552374,124.493823 C75.0149668,124.958939 75.6063279,125.12827 76.075895,124.871003 C76.5454622,124.613735 76.716414,124.02798 76.4566847,123.562863 C76.1969553,123.097747 75.6055942,122.928416 75.136027,123.185683" id="Fill-3" fill="#2F5266"></path>
                <path d="M140.129697,122.22282 C139.66013,122.480087 139.489178,123.065843 139.748907,123.530959 C140.008637,123.996076 140.599998,124.165407 141.069565,123.90814 C141.539132,123.650872 141.710084,123.065116 141.450355,122.6 C141.190625,122.134884 140.599264,121.965552 140.129697,122.22282" id="Fill-5" fill="#2F5266"></path>
                <g id="Group-9" transform="translate(118.125487, 0.718023)">
                    <mask id="mask-2" fill="white">
                        <use xlink:href="#path-1"></use>
                    </mask>
                    <g id="Clip-8"></g>
                    <path d="M0.765174349,0.128706395 C0.295607197,0.385973837 0.124655405,0.971729651 0.384384736,1.43684593 C0.644114068,1.90196221 1.2354752,2.0712936 1.70504235,1.81402616 C2.17460951,1.55675872 2.3455613,0.971002907 2.08583197,0.505886628 C1.82610263,0.0407703488 1.2347415,-0.128561047 0.765174349,0.128706395" id="Fill-7" fill="#2F5266" mask="url(#mask-2)"></path>
                </g>
                <path d="M155.299504,23.4676599 C154.829937,23.7249273 154.658985,24.3106831 154.918715,24.7757994 C155.178444,25.2409157 155.769805,25.4102471 156.239372,25.1529797 C156.708939,24.8957122 156.879891,24.3099564 156.620162,23.8448401 C156.360432,23.3797238 155.769071,23.2103924 155.299504,23.4676599" id="Fill-10" fill="#2F5266"></path>
                <path d="M47.9059746,40.7693314 C47.4364074,41.0265988 47.2654557,41.6123547 47.525185,42.0774709 C47.7849143,42.5425872 48.3762755,42.7119186 48.8458426,42.4546512 C49.3154098,42.1973837 49.4863616,41.6116279 49.2266322,41.1465116 C48.9669029,40.6813953 48.3755418,40.512064 47.9059746,40.7693314" id="Fill-12" fill="#2F5266"></path>
                <path d="M196.093224,31.6047238 C195.623657,31.8619913 195.452705,32.4477471 195.712434,32.9128634 C195.972164,33.3779797 196.563525,33.547311 197.033092,33.2900436 C197.502659,33.0327762 197.673611,32.4470203 197.413882,31.9819041 C197.154152,31.5167878 196.562791,31.3474564 196.093224,31.6047238" id="Fill-14" fill="#2F5266"></path>
                <path d="M187.850486,26.4531977 C187.380919,26.7104651 187.209967,27.2962209 187.469697,27.7613372 C187.729426,28.2264535 188.320787,28.3957849 188.790354,28.1385174 C189.259921,27.88125 189.430873,27.2954942 189.171144,26.8303779 C188.911414,26.3652616 188.320053,26.1959302 187.850486,26.4531977" id="Fill-16" fill="#2F5266"></path>
                <path d="M184.47826,76.4364099 C184.001356,76.4364099 183.613963,76.0534157 183.613963,75.5803052 L183.613963,68.6762355 C183.613963,68.2038517 184.001356,67.8208576 184.47826,67.8208576 C184.955164,67.8208576 185.342557,68.2038517 185.342557,68.6762355 L185.342557,75.5803052 C185.342557,76.0534157 184.955164,76.4364099 184.47826,76.4364099" id="Fill-18" fill="#2F5266"></path>
                <path d="M187.963329,72.984375 L180.993192,72.984375 C180.516287,72.984375 180.128895,72.6013808 180.128895,72.1282703 C180.128895,71.6558866 180.516287,71.2728924 180.993192,71.2728924 L187.963329,71.2728924 C188.440233,71.2728924 188.827626,71.6558866 188.827626,72.1282703 C188.827626,72.6013808 188.440233,72.984375 187.963329,72.984375" id="Fill-20" fill="#2F5266"></path>
                <path d="M152.284369,13.2835029 C151.807465,13.2835029 151.420072,12.9005087 151.420072,12.4273983 L151.420072,5.52332849 C151.420072,5.05094477 151.807465,4.66795058 152.284369,4.66795058 C152.761274,4.66795058 153.148666,5.05094477 153.148666,5.52332849 L153.148666,12.4273983 C153.148666,12.9005087 152.761274,13.2835029 152.284369,13.2835029" id="Fill-22" fill="#2F5266"></path>
                <path d="M155.769438,9.83146802 L148.799301,9.83146802 C148.322397,9.83146802 147.935004,9.44847384 147.935004,8.97536337 C147.935004,8.50297965 148.322397,8.11998547 148.799301,8.11998547 L155.769438,8.11998547 C156.246342,8.11998547 156.633735,8.50297965 156.633735,8.97536337 C156.633735,9.44847384 156.246342,9.83146802 155.769438,9.83146802" id="Fill-24" fill="#2F5266"></path>
                <path d="M65.3374812,122.578997 C64.8605771,122.578997 64.4731842,122.196003 64.4731842,121.722892 L64.4731842,114.818823 C64.4731842,114.346439 64.8605771,113.963445 65.3374812,113.963445 C65.8143854,113.963445 66.2017783,114.346439 66.2017783,114.818823 L66.2017783,121.722892 C66.2017783,122.196003 65.8143854,122.578997 65.3374812,122.578997" id="Fill-26" fill="#2F5266"></path>
                <path d="M68.8225499,119.126962 L61.8524125,119.126962 C61.3755084,119.126962 60.9881155,118.743968 60.9881155,118.270858 C60.9881155,117.798474 61.3755084,117.41548 61.8524125,117.41548 L68.8225499,117.41548 C69.2994541,117.41548 69.686847,117.798474 69.686847,118.270858 C69.686847,118.743968 69.2994541,119.126962 68.8225499,119.126962" id="Fill-28" fill="#2F5266"></path>
                <path d="M32.9981713,56.1833576 C32.5212672,56.1833576 32.1338743,55.8003634 32.1338743,55.3272529 L32.1338743,48.4231831 C32.1338743,47.9507994 32.5212672,47.5678052 32.9981713,47.5678052 C33.4750755,47.5678052 33.8624684,47.9507994 33.8624684,48.4231831 L33.8624684,55.3272529 C33.8624684,55.8003634 33.4750755,56.1833576 32.9981713,56.1833576" id="Fill-30" fill="#2F5266"></path>
                <path d="M36.48324,52.7313227 L29.5131026,52.7313227 C29.0361985,52.7313227 28.6488056,52.3483285 28.6488056,51.875218 C28.6488056,51.4028343 29.0361985,51.0198401 29.5131026,51.0198401 L36.48324,51.0198401 C36.9601442,51.0198401 37.3475371,51.4028343 37.3475371,51.875218 C37.3475371,52.3483285 36.9601442,52.7313227 36.48324,52.7313227" id="Fill-32" fill="#2F5266"></path>
                <path d="M185.566996,46.747093 C179.282867,46.747093 173.418413,46.3655523 169.055107,45.6722384 C163.480464,44.7856105 160.884639,43.5021802 160.884639,41.6329942 C160.884639,37.3023256 166.173139,33.4622093 174.686244,31.6111919 C175.152877,31.5116279 175.612906,31.8023256 175.71489,32.2630814 C175.817608,32.7252907 175.522661,33.181686 175.056762,33.2834302 C167.497465,34.9265988 162.612499,38.2042151 162.612499,41.6329942 C162.612499,42.7819767 169.544484,45.0356105 185.566996,45.0356105 C201.589507,45.0356105 208.521493,42.7819767 208.521493,41.6329942 C208.521493,38.653343 204.899956,35.7965116 198.833735,33.9890988 C198.376641,33.8531977 198.117645,33.3757267 198.254847,32.9236919 C198.392782,32.4709302 198.874822,32.2143895 199.331183,32.349564 C206.269771,34.4171512 210.249353,37.8001453 210.249353,41.6329942 C210.249353,46.377907 191.357346,46.747093 185.566996,46.747093" id="Fill-34" fill="#2F5266"></path>
                <path d="M185.566996,24.3663517 C181.458283,24.3663517 178.115552,27.6773983 178.115552,31.7471657 C178.115552,33.1570494 181.458283,34.3038517 185.566996,34.3038517 C189.675708,34.3038517 193.018439,33.1570494 193.018439,31.7471657 C193.018439,27.6773983 189.675708,24.3663517 185.566996,24.3663517 M185.566996,36.0146076 C183.289595,36.0146076 181.153064,35.6933866 179.5514,35.1090843 C176.936498,34.1555959 176.386958,32.7544331 176.386958,31.7471657 C176.386958,26.7340843 180.505209,22.6548692 185.566996,22.6548692 C190.628783,22.6548692 194.747034,26.7340843 194.747034,31.7471657 C194.747034,34.6955669 190.136471,36.0146076 185.566996,36.0146076" id="Fill-36" fill="#2F5266"></path>
                <path d="M35.2083652,92.944186 C34.7387981,93.2014535 34.5678463,93.7872093 34.8275756,94.2523256 C35.0873049,94.7174419 35.6786661,94.8867733 36.1482332,94.6295058 C36.6178004,94.3722384 36.7887522,93.7864826 36.5290228,93.3213663 C36.2692935,92.85625 35.6779324,92.6869186 35.2083652,92.944186" id="Fill-38" fill="#2F5266"></path>
                <path d="M26.9656274,87.7926599 C26.4960603,88.0499273 26.3251085,88.6356831 26.5848378,89.1007994 C26.8445672,89.5659157 27.4359283,89.7352471 27.9054954,89.4779797 C28.3750626,89.2207122 28.5460144,88.6349564 28.2862851,88.1698401 C28.0265557,87.7047238 27.4351946,87.5353924 26.9656274,87.7926599" id="Fill-40" fill="#2F5266"></path>
                <path d="M24.6824305,108.086701 C18.3983014,108.086701 12.5338478,107.70516 8.17054182,107.011846 C2.59589929,106.125218 7.33698676e-05,104.841788 7.33698676e-05,102.972602 C7.33698676e-05,98.6419331 5.28857343,94.8018169 13.8009455,92.9507994 C14.2675778,92.8490552 14.7283406,93.1419331 14.8303247,93.602689 C14.9323088,94.0648983 14.6380957,94.5212936 14.1714633,94.6230378 C6.61289954,96.2662064 1.72793375,99.5438227 1.72793375,102.972602 C1.72793375,104.121584 8.65991884,106.375218 24.6824305,106.375218 C40.7049422,106.375218 47.6369273,104.121584 47.6369273,102.972602 C47.6369273,99.9936773 44.0153906,97.1361192 37.9484363,95.3279797 C37.491342,95.1920785 37.2323464,94.7146076 37.3702817,94.2625727 C37.5074834,93.8090843 37.9873223,93.5539971 38.4466177,93.6884448 C45.3852061,95.7567587 49.3647877,99.1404797 49.3647877,102.972602 C49.3647877,107.717515 30.4727805,108.086701 24.6824305,108.086701" id="Fill-42" fill="#2F5266"></path>
                <path d="M24.6824305,85.7059593 C20.5737179,85.7059593 17.2309868,89.0170058 17.2309868,93.0867733 C17.2309868,94.496657 20.5737179,95.6434593 24.6824305,95.6434593 C28.7911431,95.6434593 32.1338743,94.496657 32.1338743,93.0867733 C32.1338743,89.0170058 28.7911431,85.7059593 24.6824305,85.7059593 M24.6824305,97.3542151 C22.4050298,97.3542151 20.2684993,97.0329942 18.6668351,96.4486919 C16.051933,95.4952035 15.5023927,94.0940407 15.5023927,93.0867733 C15.5023927,88.0736919 19.6206434,83.9944767 24.6824305,83.9944767 C29.7442177,83.9944767 33.8624684,88.0736919 33.8624684,93.0867733 C33.8624684,96.0351744 29.2519059,97.3542151 24.6824305,97.3542151" id="Fill-44" fill="#2F5266"></path>
                <path d="M45.1017049,27.8126453 C42.6005261,27.8126453 40.2622284,27.6600291 38.517493,27.3824128 C36.7089257,27.0953488 34.8592714,26.6207849 34.8592714,25.2806686 C34.8592714,23.2872093 37.0449597,21.6229651 40.7053824,20.827907 C41.1705474,20.7261628 41.6320439,21.018314 41.7347617,21.4805233 C41.8367458,21.9420058 41.5417989,22.3984012 41.0759003,22.4994186 C38.5754552,23.0430233 36.7888989,24.0953488 36.6032731,25.1077035 C37.2753411,25.5335756 40.2409512,26.1018895 45.1017049,26.1018895 C49.9624586,26.1018895 52.9280687,25.5335756 53.6001367,25.1077035 C53.4145109,24.0953488 51.6279546,23.0430233 49.1275095,22.4994186 C48.6616109,22.3984012 48.366664,21.9420058 48.4686481,21.4805233 C48.5713659,21.018314 49.0321287,20.7290698 49.4980274,20.827907 C53.1584501,21.6229651 55.3441384,23.2872093 55.3441384,25.2806686 C55.3441384,26.9609012 51.8979557,27.8126453 45.1017049,27.8126453" id="Fill-46" fill="#2F5266"></path>
                <path d="M45.1017049,19.0008721 C43.7722429,19.0008721 42.6915047,20.072093 42.6915047,21.3882267 C42.7942226,21.5110465 43.6541174,21.8758721 45.1017049,21.8758721 C46.4971998,21.8758721 47.3460891,21.5372093 47.511905,21.3468023 C47.4891604,20.0488372 46.4164929,19.0008721 45.1017049,19.0008721 M45.1017049,23.5880814 C44.1442281,23.5880814 43.238844,23.4492733 42.552102,23.1985465 C41.1698137,22.6949128 40.9629107,21.8482558 40.9629107,21.3882267 C40.9629107,19.1280523 42.819902,17.2893895 45.1017049,17.2893895 C47.3835078,17.2893895 49.2404991,19.1280523 49.2404991,21.3882267 C49.2404991,23.0103198 47.1025012,23.5880814 45.1017049,23.5880814" id="Fill-48" fill="#2F5266"></path>
                <path d="M179.433715,95.666061 C177.732268,95.666061 176.138674,95.5614099 174.947881,95.3724564 C173.610349,95.1595203 172.243468,94.7925145 172.243468,93.6791424 C172.243468,92.1944041 173.800377,90.9698401 176.407942,90.4029797 C176.876041,90.3012355 177.334603,90.5941134 177.436587,91.0555959 C177.539305,91.5170785 177.244358,91.9734738 176.77846,92.075218 C175.184132,92.4211483 174.312498,93.0054506 174.054236,93.4313227 C175.760086,94.1478924 183.108812,94.1478924 184.813927,93.4313227 C184.555665,93.0054506 183.683298,92.4211483 182.089704,92.075218 C181.623072,91.9734738 181.328859,91.5170785 181.430843,91.0555959 C181.532827,90.5941134 181.994323,90.3019622 182.460222,90.4029797 C185.067053,90.9698401 186.623962,92.1944041 186.623962,93.6791424 C186.623962,94.2227471 186.623962,95.666061 179.433715,95.666061" id="Fill-50" fill="#2F5266"></path>
                <path d="M178.098897,90.890407 C178.615421,91.171657 180.252303,91.171657 180.768826,90.890407 C180.687386,90.2327035 180.119503,89.7218023 179.434229,89.7218023 C178.74822,89.7218023 178.180338,90.2327035 178.098897,90.890407 M179.433495,92.8148256 C178.756291,92.8148256 178.110636,92.7159884 177.616857,92.5357558 C176.483293,92.1222384 176.360765,91.3606105 176.360765,91.0531977 C176.360765,89.3751453 177.739385,88.009593 179.434229,88.009593 C181.128339,88.009593 182.506959,89.3751453 182.506959,91.0531977 C182.506959,92.140407 181.329372,92.8148256 179.433495,92.8148256" id="Fill-52" fill="#2F5266"></path>
                <path d="M107.642327,17.3479651 C79.0845732,17.3479651 55.8512709,40.3610465 55.8512709,68.6481105 C55.8512709,96.9351744 79.0845732,119.948256 107.642327,119.948256 C136.20008,119.948256 159.433383,96.9351744 159.433383,68.6481105 C159.433383,40.3610465 136.20008,17.3479651 107.642327,17.3479651 M107.642327,121.659738 C78.1314986,121.659738 54.1226769,97.8792151 54.1226769,68.6481105 C54.1226769,39.4170058 78.1314986,15.6364826 107.642327,15.6364826 C137.153155,15.6364826 161.161977,39.4170058 161.161977,68.6481105 C161.161977,97.8792151 137.153155,121.659738 107.642327,121.659738" id="Fill-54" fill="#2F5266"></path>
                <path d="M107.642327,17.3479651 C79.0845732,17.3479651 55.8512709,40.3610465 55.8512709,68.6481105 C55.8512709,96.9351744 79.0845732,119.948256 107.642327,119.948256 C136.20008,119.948256 159.433383,96.9351744 159.433383,68.6481105 C159.433383,40.3610465 136.20008,17.3479651 107.642327,17.3479651 M107.642327,121.659738 C78.1314986,121.659738 54.1226769,97.8792151 54.1226769,68.6481105 C54.1226769,39.4170058 78.1314986,15.6364826 107.642327,15.6364826 C137.153155,15.6364826 161.161977,39.4170058 161.161977,68.6481105 C161.161977,97.8792151 137.153155,121.659738 107.642327,121.659738" id="Fill-56" fill="#2F5266"></path>
                <path d="M107.642327,17.3479651 C87.8559409,17.3479651 71.7585919,40.3610465 71.7585919,68.6481105 C71.7585919,96.9351744 87.8559409,119.948256 107.642327,119.948256 C127.428713,119.948256 143.526062,96.9351744 143.526062,68.6481105 C143.526062,40.3610465 127.428713,17.3479651 107.642327,17.3479651 M107.642327,121.659738 C86.9028663,121.659738 70.0299978,97.8792151 70.0299978,68.6481105 C70.0299978,39.4170058 86.9028663,15.6364826 107.642327,15.6364826 C128.381787,15.6364826 145.254656,39.4170058 145.254656,68.6481105 C145.254656,97.8792151 128.381787,121.659738 107.642327,121.659738" id="Fill-58" fill="#2F5266"></path>
                <path d="M107.642327,17.3479651 C87.8559409,17.3479651 71.7585919,40.3610465 71.7585919,68.6481105 C71.7585919,96.9351744 87.8559409,119.948256 107.642327,119.948256 C127.428713,119.948256 143.526062,96.9351744 143.526062,68.6481105 C143.526062,40.3610465 127.428713,17.3479651 107.642327,17.3479651 M107.642327,121.659738 C86.9028663,121.659738 70.0299978,97.8792151 70.0299978,68.6481105 C70.0299978,39.4170058 86.9028663,15.6364826 107.642327,15.6364826 C128.381787,15.6364826 145.254656,39.4170058 145.254656,68.6481105 C145.254656,97.8792151 128.381787,121.659738 107.642327,121.659738" id="Fill-60" fill="#2F5266"></path>
                <path d="M107.642327,17.3479651 C97.7630741,17.3479651 89.4172517,40.8399709 89.4172517,68.6481105 C89.4172517,96.45625 97.7630741,119.948256 107.642327,119.948256 C117.521579,119.948256 125.867402,96.45625 125.867402,68.6481105 C125.867402,40.8399709 117.521579,17.3479651 107.642327,17.3479651 M107.642327,121.659738 C96.453422,121.659738 87.6886576,98.3741279 87.6886576,68.6481105 C87.6886576,38.922093 96.453422,15.6364826 107.642327,15.6364826 C118.831232,15.6364826 127.595996,38.922093 127.595996,68.6481105 C127.595996,98.3741279 118.831232,121.659738 107.642327,121.659738" id="Fill-62" fill="#2F5266"></path>
                <path d="M107.642327,17.3479651 C97.7630741,17.3479651 89.4172517,40.8399709 89.4172517,68.6481105 C89.4172517,96.45625 97.7630741,119.948256 107.642327,119.948256 C117.521579,119.948256 125.867402,96.45625 125.867402,68.6481105 C125.867402,40.8399709 117.521579,17.3479651 107.642327,17.3479651 M107.642327,121.659738 C96.453422,121.659738 87.6886576,98.3741279 87.6886576,68.6481105 C87.6886576,38.922093 96.453422,15.6364826 107.642327,15.6364826 C118.831232,15.6364826 127.595996,38.922093 127.595996,68.6481105 C127.595996,98.3741279 118.831232,121.659738 107.642327,121.659738" id="Fill-64" fill="#2F5266"></path>
                <path d="M107.642327,120.600291 C107.165423,120.600291 106.77803,120.217297 106.77803,119.744186 L106.77803,16.4920058 C106.77803,16.0196221 107.165423,15.6359012 107.642327,15.6359012 C108.119231,15.6359012 108.506624,16.0196221 108.506624,16.4920058 L108.506624,119.744186 C108.506624,120.217297 108.119231,120.600291 107.642327,120.600291" id="Fill-66" fill="#2F5266"></path>
                <path d="M159.762887,69.5039244 L55.5219136,69.5039244 C55.0442758,69.5039244 54.6576166,69.1209302 54.6576166,68.6478198 C54.6576166,68.175436 55.0442758,67.7924419 55.5219136,67.7924419 L159.762887,67.7924419 C160.239791,67.7924419 160.627184,68.175436 160.627184,68.6478198 C160.627184,69.1209302 160.239791,69.5039244 159.762887,69.5039244" id="Fill-68" fill="#2F5266"></path>
                <path d="M156.91731,86.8897529 L58.3676373,86.8897529 C57.8899994,86.8897529 57.5033402,86.5067587 57.5033402,86.0336483 C57.5033402,85.5612645 57.8899994,85.1782703 58.3676373,85.1782703 L156.91731,85.1782703 C157.394214,85.1782703 157.781607,85.5612645 157.781607,86.0336483 C157.781607,86.5067587 157.394214,86.8897529 156.91731,86.8897529" id="Fill-70" fill="#2F5266"></path>
                <path d="M146.767689,104.274855 L68.5172579,104.274855 C68.0403538,104.274855 67.6529609,103.89186 67.6529609,103.41875 C67.6529609,102.946366 68.0403538,102.563372 68.5172579,102.563372 L146.767689,102.563372 C147.244593,102.563372 147.631986,102.946366 147.631986,103.41875 C147.631986,103.89186 147.244593,104.274855 146.767689,104.274855" id="Fill-72" fill="#2F5266"></path>
                <path d="M156.91731,52.1188953 L58.3676373,52.1188953 C57.8899994,52.1188953 57.5033402,51.7359012 57.5033402,51.2627907 C57.5033402,50.790407 57.8899994,50.4074128 58.3676373,50.4074128 L156.91731,50.4074128 C157.394214,50.4074128 157.781607,50.790407 157.781607,51.2627907 C157.781607,51.7359012 157.394214,52.1188953 156.91731,52.1188953" id="Fill-74" fill="#2F5266"></path>
                <path d="M146.767689,34.7330669 L68.5172579,34.7330669 C68.0403538,34.7330669 67.6529609,34.3500727 67.6529609,33.8769622 C67.6529609,33.4045785 68.0403538,33.0215843 68.5172579,33.0215843 L146.767689,33.0215843 C147.244593,33.0215843 147.631986,33.4045785 147.631986,33.8769622 C147.631986,34.3500727 147.244593,34.7330669 146.767689,34.7330669" id="Fill-76" fill="#2F5266"></path>
                <path d="M85.3587974,78.7846657 C85.2678188,74.528125 81.7622065,71.1029797 77.4429224,71.1029797 C77.441455,71.1029797 77.4399876,71.1037064 77.4385202,71.1037064 C77.3930309,67.9787064 74.8250855,65.4590843 71.6599095,65.4590843 C71.4009138,65.4590843 71.1477878,65.4816134 70.8975965,65.5143169 C69.3282151,59.2635901 63.6266427,54.6305959 56.8303918,54.6305959 C48.8242719,54.6305959 42.3339734,61.059375 42.3339734,68.9903343 C42.3339734,69.1436773 42.3405767,69.2955669 42.3457126,69.4474564 C41.4469317,69.1066134 40.4755146,68.9118459 39.4564072,68.9118459 C34.9940518,68.9118459 31.3761837,72.4954215 31.3761837,76.9154797 C31.3761837,77.5601017 31.4612927,78.184375 31.606565,78.7846657 L85.3587974,78.7846657 Z" id="Fill-78" fill="#2F5266"></path>
                <path d="M159.762813,111.356395 C159.754743,107.83314 156.869839,104.979942 153.311401,104.979942 C152.482321,104.979942 151.692862,105.139826 150.965032,105.421802 C150.984842,105.178343 151.002451,104.934884 151.002451,104.686337 C151.002451,99.6027616 146.841646,95.4813953 141.709424,95.4813953 C136.576468,95.4813953 132.415663,99.6027616 132.415663,104.686337 C132.415663,105.318605 132.480228,105.93561 132.602756,106.532267 C131.972509,106.36657 131.313647,106.269913 130.630574,106.269913 C127.279772,106.269913 124.436689,108.394913 123.380897,111.356395 L159.762813,111.356395 Z" id="Fill-80" fill="#2F5266"></path>
                <path d="M170.02403,61.4998547 C170.342455,60.7229651 170.522211,59.8748547 170.522211,58.984593 C170.522211,55.2898256 167.497905,52.2949128 163.767781,52.2949128 C162.987859,52.2949128 162.241688,52.4322674 161.54394,52.6735465 C161.045025,46.4831395 155.818889,41.6117733 149.440113,41.6117733 C144.207374,41.6117733 139.74722,44.890843 138.039169,49.4867733 C137.970935,49.4831395 137.904169,49.4765988 137.835201,49.4765988 C135.945927,49.4765988 134.39122,50.887936 134.181382,52.703343 C130.377154,53.3428779 127.476843,56.6146802 127.476843,60.5652616 C127.476843,60.8821221 127.500322,61.1924419 127.537007,61.4998547 L170.02403,61.4998547 Z" id="Fill-82" fill="#2F5266"></path>
            </g>
        </g>
    </g>
</svg>