<?xml version="1.0" encoding="UTF-8"?>
<svg width="701px" height="47px" viewBox="0 0 701 47" version="1.1" xmlns="http://www.w3.org/2000/svg" xmlns:xlink="http://www.w3.org/1999/xlink">
    <!-- Generator: Sketch 44.1 (41455) - http://www.bohemiancoding.com/sketch -->
    <title>Page 1</title>
    <desc>Created with Sketch.</desc>
    <defs>
        <polygon id="path-1" points="48.1351757 0 0.656315683 0 0.656315683 46.999765 48.1351757 46.999765 48.1351757 0"></polygon>
        <polygon id="path-3" points="44.9013551 0 0.316336594 0 0.316336594 46.999765 44.9013551 46.999765 44.9013551 0"></polygon>
        <polygon id="path-5" points="52.5927319 47 0 47 0 23.500038 0 7.60206246e-05 52.5927319 7.60206246e-05 52.5927319 47"></polygon>
    </defs>
    <g id="Page-1" stroke="none" stroke-width="1" fill="none" fill-rule="evenodd">
        <g>
            <polygon id="Fill-1" fill="#CB2026" points="659.244752 11.83601 659.244752 35.07046 679.33378 46.697085 699.422809 35.07046 699.422809 11.83601 679.33378 0.209385"></polygon>
            <polygon id="Fill-2" fill="#FEFEFE" points="679.897418 23.4441875 679.897418 45.9689375 699.330367 34.3047125 698.578536 12.7505125"></polygon>
            <path d="M679.220769,23.724425 L679.315339,46.173975 L698.802666,34.9398 L698.859408,12.0978 L679.220769,23.724425 Z M682.469248,25.590325 L695.536456,17.863525 L695.517542,33.0551 L692.251331,34.9586 L692.251331,23.6128 L688.983938,25.533925 L689.004034,36.8433 L682.524808,40.595075 L682.469248,25.590325 Z" id="Fill-3" fill="#CB2026"></path>
            <g id="Group-69">
                <path d="M681.549319,44.4759825 C680.64854,44.9800575 679.934536,44.5688075 679.934536,43.5430325 L679.934536,25.7582325 C679.934536,24.7312825 680.667454,23.4810825 681.549319,22.9770075 L697.019786,14.1504075 C697.921747,13.6463325 698.634568,14.0575825 698.634568,15.0833575 L698.634568,32.8681575 C698.634568,33.8951075 697.902833,35.1453075 697.019786,35.6493825 L681.549319,44.4759825 Z M659.338376,14.8037075 C659.338376,13.7767575 660.070111,13.3666825 660.953159,13.8707575 L676.892929,22.9770075 C677.793708,23.4810825 678.507712,24.7500825 678.507712,25.7582325 L678.507712,43.8226825 C678.507712,44.8496325 677.775976,45.2597075 676.892929,44.7556325 L660.953159,35.6493825 C660.052379,35.1453075 659.338376,33.8763075 659.338376,32.8681575 L659.338376,14.8037075 Z M696.400352,11.0155075 C697.301132,11.5195825 697.301132,12.3585325 696.400352,12.8626075 L680.817583,21.7644075 C679.915622,22.2684825 678.469884,22.2684825 677.569105,21.7644075 L661.76055,12.7321825 C660.858589,12.2281075 660.858589,11.3879825 661.76055,10.8850825 L677.343319,1.9832825 C678.24528,1.4792075 679.691019,1.4792075 680.591798,1.9832825 L696.400352,11.0155075 Z M680.610712,0.3782325 C679.709933,-0.1258425 678.264194,-0.1258425 677.362233,0.3782325 L659.564162,10.5490325 C658.662201,11.0519325 657.949379,12.3221075 657.949379,13.3290825 L657.949379,33.6706825 C657.949379,34.6976325 658.681115,35.9478325 659.564162,36.4519075 L677.362233,46.6215325 C678.264194,47.1256075 679.709933,47.1256075 680.610712,46.6215325 L698.408782,36.4519075 C699.310744,35.9478325 700.023565,34.6788325 700.023565,33.6706825 L700.023565,13.3290825 C700.023565,12.3033075 699.29183,11.0519325 698.408782,10.5490325 L680.610712,0.3782325 Z" id="Fill-4" fill="#90191B"></path>
                <path d="M442.714954,36.2002225 C439.759642,37.7312475 424.449944,43.9881225 421.190826,45.6765975 C417.931708,47.3662475 416.120693,47.3497975 413.546025,46.1266225 C410.971357,44.9034475 394.679313,38.3622225 391.74528,36.9674975 C390.278263,36.2707225 389.506335,35.6820475 389.506335,35.1262725 L389.506335,29.5626475 C389.506335,29.5626475 410.7172,24.9730975 414.140634,23.7522725 C417.565249,22.5314475 418.753285,22.4867975 421.667222,23.5478225 C424.58116,24.6088475 442.004497,27.7343475 444.884153,28.7824475 C444.884153,28.7824475 444.882971,33.7515225 444.882971,34.2673475 C444.884153,34.8172475 444.219799,35.4211975 442.714954,36.2002225" id="Fill-6" fill="#912725"></path>
                <path d="M442.714008,30.6692625 C439.758696,32.2002875 424.45018,38.4571625 421.191062,40.1456375 C417.931944,41.8352875 416.120929,41.8188375 413.546261,40.5944875 C410.971594,39.3724875 394.67955,32.8300875 391.745516,31.4365375 C388.8103,30.0418125 388.74883,29.0830125 391.632032,27.9608875 C394.515234,26.8375875 410.716255,20.5196125 414.14087,19.2987875 C417.565486,18.0779625 418.753521,18.0333125 421.666277,19.0943375 C424.581396,20.1553625 439.798889,26.1760625 442.678545,27.2241625 C445.558201,28.2746125 445.66932,29.1382375 442.714008,30.6692625" id="Fill-8" fill="#C6302B"></path>
                <path d="M442.714954,27.197725 C439.759642,28.72875 424.449944,34.985625 421.190826,36.675275 C417.931708,38.36375 416.120693,38.3473 413.546025,37.124125 C410.971357,35.90095 394.679313,29.359725 391.74528,27.965 C390.278263,27.268225 389.506335,26.680725 389.506335,26.12495 L389.506335,20.56015 C389.506335,20.56015 410.7172,15.9706 414.140634,14.749775 C417.565249,13.52895 418.753285,13.4843 421.667222,14.545325 C424.58116,15.60635 442.004497,18.730675 444.884153,19.77995 C444.884153,19.77995 444.882971,24.749025 444.882971,25.26485 C444.884153,25.81475 444.219799,26.4187 442.714954,27.197725" id="Fill-10" fill="#912725"></path>
                <path d="M442.714008,21.666765 C439.758696,23.19779 424.45018,29.454665 421.191062,31.14314 C417.931944,32.83279 416.120929,32.81634 413.546261,31.59199 C410.971594,30.36999 394.67955,23.82759 391.745516,22.43404 C388.8103,21.04049 388.74883,20.080515 391.632032,18.957215 C394.515234,17.836265 410.716255,11.517115 414.14087,10.29629 C417.565486,9.075465 418.753521,9.030815 421.666277,10.09184 C424.581396,11.152865 439.798889,17.173565 442.678545,18.221665 C445.558201,19.27094 445.66932,20.13574 442.714008,21.666765 L442.714008,21.666765" id="Fill-12" fill="#C6302B"></path>
                <path d="M442.714954,17.8612925 C439.759642,19.3923175 424.449944,25.6491925 421.190826,27.3388425 C417.931708,29.0273175 416.120693,29.0108675 413.546025,27.7876925 C410.971357,26.5645175 394.679313,20.0232925 391.74528,18.6285675 C390.278263,17.9317925 389.506335,17.3442925 389.506335,16.7885175 L389.506335,11.2248925 C389.506335,11.2248925 410.7172,6.6353425 414.140634,5.4145175 C417.565249,4.1925175 418.753285,4.1490425 421.667222,5.2100675 C424.58116,6.2710925 442.004497,9.3954175 444.884153,10.4435175 C444.884153,10.4435175 444.882971,15.4125925 444.882971,15.9295925 C444.884153,16.4783175 444.219799,17.0822675 442.714954,17.8612925" id="Fill-14" fill="#912725"></path>
                <path d="M442.714008,12.3303325 C439.758696,13.8613575 424.45018,20.1182325 421.191062,21.8067075 C417.931944,23.4963575 416.120929,23.4799075 413.546261,22.2567325 C410.971594,21.0335575 394.67955,14.4911575 391.745516,13.0976075 C388.8103,11.7040575 388.74883,10.7440825 391.632032,9.6219575 C394.515234,8.4998325 410.716255,2.1818575 414.14087,0.9598575 C417.565486,-0.2609675 418.753521,-0.3044425 421.666277,0.7565825 C424.581396,1.8176075 439.798889,7.8383075 442.678545,8.8864075 C445.558201,9.9345075 445.66932,10.7993075 442.714008,12.3303325" id="Fill-16" fill="#C6302B"></path>
                <polygon id="Fill-18" fill="#FEFEFE" points="423.96279 6.91793 419.202374 7.40908 418.136097 9.95883 416.413741 7.114155 410.916861 6.623005 415.018834 5.151905 413.788242 2.89473 417.628966 4.388155 421.249814 3.20963 420.271015 5.54318"></polygon>
                <polygon id="Fill-20" fill="#FEFEFE" points="417.851442 19.2851575 408.96541 15.6215075 421.698076 13.6792325"></polygon>
                <path d="M405.532046,8.334745 C409.291203,8.334745 412.337539,9.50857 412.337539,10.957345 C412.337539,12.404945 409.291203,13.57877 405.532046,13.57877 C401.774072,13.57877 398.726554,12.404945 398.726554,10.957345 C398.726554,9.50857 401.774072,8.334745 405.532046,8.334745" id="Fill-22" fill="#FEFEFE"></path>
                <polygon id="Fill-24" fill="#621C1C" points="429.589704 7.614705 437.12575 10.57453 429.595615 13.532005"></polygon>
                <polygon id="Fill-26" fill="#9A2A28" points="421.252769 10.8926025 429.590295 7.6143525 429.596206 13.5316525 428.779358 13.8500775"></polygon>
                <g id="Group-30" transform="translate(291.984823, 0.000000)">
                    <mask id="mask-2" fill="white">
                        <use xlink:href="#path-1"></use>
                    </mask>
                    <g id="Clip-29"></g>
                    <path d="M48.1351757,24.61719 C48.1351757,20.649215 45.6550779,17.220565 41.9727592,15.871665 C42.1276175,15.02449 42.2056378,14.21609 42.2056378,13.328965 C42.2056378,5.971115 36.1980796,-0.000235 28.794432,-0.000235 C24.4926799,-0.000235 20.4616344,2.041915 17.9425265,5.54694 C16.7024776,4.584615 15.19054,4.084065 13.6017642,4.084065 C9.68656695,4.084065 6.4700054,7.242465 6.4700054,11.171665 C6.4700054,12.020015 6.62486374,12.86719 6.89675245,13.63799 C3.17542361,14.90934 0.656315683,18.45314 0.656315683,22.38234 C0.656315683,26.350315 3.13641349,29.81774 6.85774233,31.16664 C6.70288398,31.97504 6.62486374,32.82339 6.62486374,33.70934 C6.62486374,41.028415 12.6324219,46.999765 19.9970594,46.999765 C24.3378216,46.999765 28.329857,44.920015 30.8489649,41.45259 C32.0890138,42.41609 33.6399616,42.955415 35.2287373,42.955415 C39.1427524,42.955415 42.3604961,39.79584 42.3604961,35.86664 C42.3604961,35.01829 42.2056378,34.171115 41.9337491,33.400315 C45.5770577,32.091365 48.1351757,28.54639 48.1351757,24.61719" id="Fill-28" fill="#FEFEFE" mask="url(#mask-2)"></path>
                </g>
                <path d="M311.206408,20.1868525 L321.787607,25.0020025 L332.484655,15.6795525 C332.639513,14.9087525 332.717533,14.1379525 332.717533,13.3295525 C332.717533,6.7801025 327.368419,1.4644025 320.779255,1.4644025 C316.82623,1.4644025 313.143911,3.3902275 310.935702,6.6261775 L309.151876,15.7947025 L311.206408,20.1868525 Z" id="Fill-31" fill="#F2BC19"></path>
                <path d="M300.237827,31.3204475 C300.082969,32.0912475 300.004949,32.8996475 300.004949,33.7092225 C300.004949,40.2586725 305.393073,45.6131475 311.981055,45.6131475 C315.97309,45.6131475 319.655409,43.6485475 321.90381,40.4125975 L323.647444,31.2428975 L321.283195,26.7743725 L310.664168,21.9592225 L300.237827,31.3204475 Z" id="Fill-33" fill="#3FBEB1"></path>
                <path d="M300.16028,13.0983125 L307.407887,14.7938375 L309.035673,6.5876375 C308.028502,5.8168375 306.826281,5.4314375 305.547222,5.4314375 C302.408681,5.4314375 299.811553,7.9741375 299.811553,11.1337125 C299.811553,11.7881875 299.927401,12.4814375 300.16028,13.0983125" id="Fill-35" fill="#E8488C"></path>
                <path d="M299.540137,14.832025 C296.284565,15.8719 294.036164,18.9927 294.036164,22.382575 C294.036164,25.696075 296.090697,28.661775 299.19141,29.817975 L309.384872,20.64945 L307.524208,16.681475 L299.540137,14.832025 Z" id="Fill-37" fill="#2B458E"></path>
                <path d="M323.764002,40.3738225 C324.771172,41.1446225 325.973393,41.5676225 327.213442,41.5676225 C330.353165,41.5676225 332.949111,39.0249225 332.949111,35.8665225 C332.949111,35.1732725 332.833263,34.5176225 332.600385,33.9019225 L325.352778,32.2063975 L323.764002,40.3738225 Z" id="Fill-39" fill="#95C53E"></path>
                <path d="M325.236929,30.3188775 L333.221,32.1683275 C336.476572,31.0896775 338.724973,28.0076525 338.724973,24.6177775 C338.724973,21.3042775 336.67044,18.3761775 333.569727,17.1823775 L323.105558,26.2733525 L325.236929,30.3188775 Z" id="Fill-41" fill="#1A6655"></path>
                <path d="M206.46105,0 L232.652207,0 C233.926537,0 235.164222,0.2021 236.365261,0.623925 C238.101802,1.24785 239.671664,2.35 240.853788,3.782325 C242.053645,5.213475 242.848033,6.975975 243.125832,8.8125 C243.23577,9.49165 243.254684,10.1708 243.254684,10.84995 L243.254684,34.4604 L243.254684,36.2417 C243.254684,37.048925 243.218038,37.87495 243.051358,38.66455 C242.682535,40.482275 241.813674,42.18955 240.558257,43.56665 C239.320573,44.94375 237.695151,45.971875 235.940878,46.52295 C234.868691,46.853125 233.76104,47 232.634475,47 C232.135618,47 206.387758,47 205.998839,46.9812 C204.115714,46.88955 202.250321,46.284425 200.679277,45.2375 C199.147244,44.209375 197.890645,42.77705 197.078525,41.125 C196.376343,39.711475 196.025252,38.132275 196.025252,36.553075 L196.025252,10.446925 C195.988606,8.88535 196.320783,7.34375 197.004051,5.94785 C197.798439,4.2958 199.036124,2.84585 200.56934,1.817725 C202.139202,0.753175 203.98568,0.128075 205.869987,0.036425 C206.054399,0 206.257724,0 206.46105,0" id="Fill-43" fill="#F7931D"></path>
                <path d="M235.847845,38.4968775 C235.681165,38.2395525 235.496753,37.9834025 235.293428,37.7437025 C234.832399,37.1938025 234.296897,36.7155775 233.705834,36.3125525 C232.965824,35.8167025 232.098145,35.5041525 231.211551,35.4677275 C230.583843,35.4313025 229.956135,35.5405775 229.365072,35.7614775 C228.77401,35.9635775 228.200679,36.2573275 227.647445,36.5510775 C227.000823,36.8812525 226.3542,37.2114275 225.670932,37.4875525 C224.85763,37.8177275 224.007683,38.0750525 223.140003,38.2583525 C222.050084,38.4604525 220.942433,38.5333025 219.852514,38.5156775 C217.876001,38.4780775 215.899489,38.1843275 214.015182,37.6344275 C212.353114,37.1385775 210.764339,36.4594275 209.268951,35.5958025 C207.956792,34.8438025 206.738022,33.9801775 205.592543,33.0072775 C204.650389,32.2000525 203.78271,31.3364275 202.97059,30.4187525 C202.416173,29.7760275 201.880671,29.0968775 201.381814,28.3989275 C201.178489,28.1239775 200.994077,27.8302275 200.827398,27.5364775 L195.951133,22.3042025 L195.951133,10.4625525 C195.951133,4.7156275 200.624072,0.0520525 206.405845,0.0520525 L215.732809,0.0520525 L222.641146,7.0292025 C238.231008,17.5677775 233.188064,29.1885275 233.188064,29.1885275 C233.188064,29.1885275 237.621032,34.1458525 235.847845,38.4968775" id="Fill-45" fill="#F05A28"></path>
                <path d="M222.678265,3.5420375 C238.268127,14.0806125 233.225182,25.7013625 233.225182,25.7013625 C233.225182,25.7013625 237.65815,30.6774875 235.866049,35.0285125 C235.866049,35.0285125 234.037302,31.9805625 230.972053,31.9805625 C228.016741,31.9805625 226.280199,35.0285125 220.33293,35.0285125 C207.088403,35.0285125 200.82787,24.0305125 200.82787,24.0305125 C212.759056,31.8336875 220.905078,26.3076625 220.905078,26.3076625 C215.529956,23.2044875 204.096446,8.3701125 204.096446,8.3701125 C214.052301,16.7972125 218.356417,19.0191375 218.356417,19.0191375 C215.788842,16.9076625 208.584973,6.5899875 208.584973,6.5899875 C214.347832,12.3909625 225.800257,20.4878875 225.800257,20.4878875 C229.0511,11.5285125 222.678265,3.5420375 222.678265,3.5420375" id="Fill-47" fill="#FEFEFE"></path>
                <path d="M608.526279,32.3924 C608.248479,29.681675 606.26842,28.4726 604.408938,28.4726 C603.557808,28.4726 602.880451,28.71465 602.620383,28.81805 L602.255107,28.97315 L601.943026,29.197575 C601.508004,29.526575 600.744351,29.975425 600.066994,30.2163 C600.03153,29.66405 600.049262,28.9567 600.135557,28.3692 L600.153289,28.2658 C600.656874,23.5 599.649704,20.71995 597.164877,20.0126 C596.748769,19.891575 596.313748,19.839875 595.879908,19.839875 C594.369152,19.839875 593.030987,20.56485 592.162125,21.186425 C591.432754,20.2711 590.216348,19.752925 588.687861,19.752925 C586.41227,19.752925 584.588252,20.8069 583.928626,22.4989 C583.858881,22.671625 583.772586,22.930125 583.667377,23.275575 C582.330393,20.340425 579.603232,19.2183 577.066392,19.2183 C574.669043,19.2183 572.341439,20.150075 571.472577,20.8069 C571.438296,20.840975 571.386282,20.8586 571.334269,20.9103 C569.058678,22.51535 567.286673,24.53635 566.035985,26.97095 C565.428373,24.864175 564.090208,22.89605 561.692859,21.41085 L561.658577,21.376775 C561.588832,21.341525 561.536818,21.30745 561.467073,21.2722 C563.812409,17.12915 565.896495,11.638375 564.645807,6.4061 C563.325373,0.828375 560.024881,0 558.166581,0 C557.401746,0 556.620361,0.13865 555.821245,0.414775 L555.769232,0.431225 L555.717218,0.44885 C552.225221,1.813025 550.696734,3.8681 550.366921,4.351025 C550.019377,4.8692 546.197567,10.6361 545.276692,19.07965 C545.172665,20.0126 545.068638,20.979625 544.964611,21.945475 C544.425562,21.186425 543.540151,20.495525 542.13224,20.0643 C541.6984,19.92565 541.246828,19.87395 540.795257,19.87395 C538.867211,19.87395 537.30326,21.047775 536.469862,21.825625 L536.45213,21.808 C535.722759,20.737575 534.558366,20.098375 533.273397,20.046675 L532.960134,20.046675 C530.910329,20.046675 529.277815,20.944375 528.07914,21.9631 C527.315488,20.634175 525.907577,19.804625 524.257331,19.804625 C524.119022,19.804625 523.997264,19.804625 523.875505,19.82225 L523.597705,19.82225 C521.322115,19.82225 519.532378,20.892675 518.803007,22.671625 C518.750994,22.8091 518.681248,22.981825 518.611503,23.20625 C516.822948,20.996075 514.547358,19.9609 511.489201,19.9609 L511.194852,19.9609 C509.283356,19.994975 504.524122,20.789275 501.605456,27.3164 C501.153884,28.3175 500.806339,29.336225 500.54509,30.337325 C499.903196,30.043575 499.312134,29.975425 498.878294,29.975425 C497.349807,29.975425 496.203146,30.837875 495.646365,31.6498 C495.194793,32.306625 493.753783,34.63665 494.465422,36.91615 C494.847248,38.141675 495.733842,39.074625 496.98453,39.55755 C498.079178,39.98995 499.468174,40.404725 500.510808,40.6973 C501.153884,42.148425 502.300545,43.8228 504.332618,45.3597 C505.77481,46.44775 507.615378,47 509.786941,47 C513.434979,47 516.961257,45.429025 517.344265,45.2563 L517.482574,45.186975 L517.518038,45.1529 C518.211945,45.877875 519.13282,46.39605 520.297213,46.620475 C520.644758,46.6898 521.096329,46.7415 521.617646,46.7415 C523.597705,46.7415 524.970152,45.739225 526.23739,43.85805 C527.280024,45.480725 529.173788,46.39605 531.415097,46.39605 L531.431646,46.39605 C531.553405,46.39605 531.675164,46.481825 531.814655,46.481825 C532.995597,46.481825 534.472071,46.068225 535.705027,44.098925 C536.72993,45.929575 538.605962,46.982375 540.829538,46.982375 C542.81078,46.982375 544.529589,46.171625 544.842852,46.01535 L544.912597,45.981275 C545.572223,45.635825 546.127822,45.325625 546.562844,45.083575 C548.039318,45.86025 550.279444,46.723875 553.024338,46.723875 C553.493641,46.723875 553.962945,46.70625 554.432248,46.65455 L554.552825,46.636925 L554.674584,46.620475 C560.494184,45.480725 564.281712,44.098925 566.53957,43.046125 C568.120071,44.80745 570.639179,46.49945 574.235203,46.75795 C574.634761,46.7932 575.052051,46.80965 575.451609,46.80965 C578.404557,46.80965 580.766442,45.981275 582.504166,45.06595 C583.059764,45.65345 583.754854,46.188075 584.657997,46.55115 C585.197046,46.775575 585.752645,46.878975 586.325975,46.878975 C589.938549,46.878975 591.624259,42.597275 592.09238,41.14615 L592.961242,38.832575 C593.726076,39.6445 594.698965,40.30015 595.931921,40.6456 C596.609279,40.83595 597.33865,40.93935 598.085753,40.93935 C602.063603,40.93935 605.885412,38.141675 606.494206,37.676375 C607.587672,36.778675 608.786346,34.9304 608.526279,32.3924" id="Fill-49" fill="#FEFEFE"></path>
                <path d="M605.574868,32.6818025 C605.401095,30.8687775 603.750849,31.5420525 603.750849,31.5420525 C603.750849,31.5420525 601.109982,33.5795025 598.782379,33.3550775 C596.472507,33.1130275 597.201878,27.9677025 597.201878,27.9677025 C597.201878,27.9677025 597.705463,23.2371525 596.333016,22.8400025 C594.960569,22.4428525 593.276041,24.0655275 593.276041,24.0655275 C593.276041,24.0655275 591.174224,26.3791025 590.183603,29.3142525 L589.905804,29.4012025 C589.905804,29.4012025 590.219067,24.2382525 589.85379,23.0644275 C589.575991,22.4769275 587.074615,22.5286275 586.675057,23.5649775 C586.257767,24.6013275 584.259976,31.8358025 584.121667,34.8743525 C584.121667,34.8743525 580.21238,38.1725775 576.790129,38.7248275 C573.367878,39.2606275 572.552212,37.1362275 572.552212,37.1362275 C572.552212,37.1362275 581.846077,34.5641525 581.515082,27.1910275 C581.203001,19.8179025 574.028686,22.5462525 573.211837,23.1502025 C572.430453,23.7377025 568.243367,26.2416275 567.010411,33.1999775 C566.976129,33.4420275 566.888652,34.4772025 566.888652,34.4772025 C566.888652,34.4772025 563.292628,36.8777275 561.294837,37.5169275 C561.294837,37.5169275 566.888652,28.1580525 560.061881,23.8928025 C556.969443,22.0457025 554.502348,25.9302525 554.502348,25.9302525 C554.502348,25.9302525 563.7442,15.7089275 561.694396,7.0585775 C560.721507,2.9484275 558.655153,2.4995775 556.743657,3.1728525 C553.860455,4.3126025 552.765807,5.9705275 552.765807,5.9705275 C552.765807,5.9705275 549.031475,11.3579025 548.162613,19.3690525 C547.293751,27.3813775 546.025332,37.0504525 546.025332,37.0504525 C546.025332,37.0504525 544.253326,38.7765275 542.620812,38.8634775 C540.988298,38.9492525 541.717669,34.0283525 541.717669,34.0283525 C541.717669,34.0283525 542.986089,26.5177525 542.898611,25.2569775 C542.812316,23.9962025 542.724839,23.3064775 541.214084,22.8576275 C539.719878,22.4076025 538.069632,24.3075775 538.069632,24.3075775 C538.069632,24.3075775 533.744237,30.8170775 533.378961,31.8181775 L533.153175,32.2329525 L532.927389,31.9568275 C532.927389,31.9568275 535.985546,23.0820525 533.06688,22.9610275 C530.148213,22.8223775 528.2379,26.1206025 528.2379,26.1206025 C528.2379,26.1206025 524.919676,31.6454525 524.780185,32.2670275 L524.554399,31.9909025 C524.554399,31.9909025 525.926846,25.5683525 525.649047,23.9797525 C525.371247,22.3911525 523.877041,22.7189775 523.877041,22.7189775 C523.877041,22.7189775 521.966728,22.4945525 521.461961,23.7200775 C520.958375,24.9467775 519.134357,33.0448775 518.908571,35.6169525 C518.908571,35.6169525 514.131605,39.0185775 510.987153,39.0526525 C507.843883,39.1055275 508.173696,37.0680775 508.173696,37.0680775 C508.173696,37.0680775 519.691138,33.1482775 516.546686,25.4120775 C515.138775,23.4263275 513.488529,22.8047525 511.178657,22.8400025 C508.851053,22.8917025 506.123891,24.2899525 504.247859,28.4518025 C503.361266,30.4375525 502.997171,32.3187275 502.997171,33.7522275 C502.997171,33.7522275 500.842158,34.1670025 499.748692,33.2516775 C498.654045,32.3539775 498.028701,33.2516775 498.028701,33.2516775 C498.028701,33.2516775 496.117205,35.9624025 497.976687,36.6873775 C499.834988,37.4123525 502.71819,38.0868025 502.71819,38.0868025 C502.979439,39.2606275 503.760824,41.1770525 506.036414,42.8866775 C509.440934,45.4587525 516.007637,42.4895275 516.007637,42.4895275 L518.700517,40.9009275 C518.700517,40.9009275 518.786812,43.3002775 520.750321,43.6633525 C522.712649,44.0264275 523.529497,43.6292775 526.934016,35.4101525 C528.931807,31.1966025 529.071298,31.4210275 529.071298,31.4210275 L529.297084,31.3693275 C529.297084,31.3693275 527.750864,39.4157275 528.341927,41.5918275 C528.931807,43.7667525 531.52066,43.5423275 531.52066,43.5423275 C531.52066,43.5423275 532.927389,44.0428775 534.07405,40.0549275 C535.220711,36.0658025 537.392274,31.9051275 537.392274,31.9051275 L537.670074,31.9051275 C537.670074,31.9051275 536.714917,39.9162775 538.173659,42.5412275 C539.632401,45.1661775 543.402197,43.3179025 543.402197,43.3179025 C543.402197,43.3179025 546.043063,41.9372775 546.460353,41.5225025 C546.460353,41.5225025 549.587074,44.1474525 554.016495,43.6633525 C563.901423,41.7293025 567.409969,39.1055275 567.409969,39.1055275 C567.409969,39.1055275 569.112229,43.3696025 574.358498,43.7667525 C580.368421,44.2156025 583.652364,40.4520775 583.652364,40.4520775 C583.652364,40.4520775 583.60035,42.8866775 585.702168,43.7503025 C587.803986,44.6127525 589.210714,40.0549275 589.210714,40.0549275 L592.720443,30.7136775 L593.032524,30.7136775 C593.032524,30.7136775 593.206296,36.6873775 596.680561,37.6896525 C600.172558,38.6731275 604.671724,35.2198025 604.671724,35.2198025 C604.671724,35.2198025 605.766372,34.4948275 605.574868,32.6818025 M507.670111,33.5618775 C507.808419,28.1756775 511.352429,25.8268525 512.585385,27.0006775 C513.819524,28.1756775 513.367952,30.7136775 511.039166,32.3022775 C508.729294,33.8908775 507.670111,33.5618775 507.670111,33.5618775 M553.877004,12.7209025 C553.877004,12.7209025 557.108934,4.3466775 557.890318,8.4215775 C558.671703,12.4964775 551.115561,24.6177775 551.115561,24.6177775 C551.185306,21.8906025 553.877004,12.7209025 553.877004,12.7209025 M557.750827,36.0141025 C555.614728,41.5742025 550.420472,39.3123275 550.420472,39.3123275 C550.420472,39.3123275 549.830591,37.3265775 551.515119,31.7488525 C553.199647,26.1899275 557.160947,28.3648525 557.160947,28.3648525 C557.160947,28.3648525 559.888109,30.4540025 557.750827,36.0141025 M572.082908,33.5618775 C572.082908,33.5618775 571.579323,31.8017275 573.455355,28.4001025 C575.313655,25.0149275 576.773579,26.8632025 576.773579,26.8632025 C576.773579,26.8632025 578.371812,28.5892775 576.547794,31.1625275 C574.723775,33.7522275 572.082908,33.5618775 572.082908,33.5618775" id="Fill-51" fill="#E14C31"></path>
                <g id="Group-55" transform="translate(101.662732, 0.000000)">
                    <mask id="mask-4" fill="white">
                        <use xlink:href="#path-3"></use>
                    </mask>
                    <g id="Clip-54"></g>
                    <polygon id="Fill-53" fill="#E13336" mask="url(#mask-4)" points="0.316336594 7.790015 22.3133147 -0.000235 44.9013551 7.651365 41.243861 36.57869 22.3133147 46.999765 3.67711737 36.71734"></polygon>
                </g>
                <polygon id="Fill-56" fill="#B52F31" points="146.56456 7.6516 123.975337 0 123.975337 47 142.907066 36.59655"></polygon>
                <path d="M124.045437,15.1992125 L128.678184,24.8248125 L124.236941,24.8248125 L124.011156,24.8248125 L119.969471,24.8248125 L124.045437,15.1992125 Z M124.011156,5.4878375 L124.011156,5.4878375 L110.304419,35.7993125 L115.424201,35.7135375 L118.176188,28.8750375 L124.027705,28.8750375 L124.045437,28.8750375 L130.471468,28.8750375 L133.484704,35.7993125 L138.3787,35.8862625 L124.011156,5.4878375 Z" id="Fill-58" fill="#FEFEFE"></path>
                <g id="Group-62">
                    <mask id="mask-6" fill="white">
                        <use xlink:href="#path-5"></use>
                    </mask>
                    <g id="Clip-61"></g>
                    <path d="M0,23.415635 C0,27.363635 3.87855143,31.048435 9.99250084,33.125835 C8.77136594,39.235835 9.77380776,44.16026 13.1215852,46.079035 C16.5627504,48.05186 21.6884435,46.68651 26.552887,42.460035 C31.2955717,46.516135 36.0890877,48.11296 39.4333187,46.18831 C42.8709376,44.20961 43.9159359,38.951485 42.6617015,32.651135 C49.0298078,30.55846 52.5927319,27.415335 52.5927319,23.415635 C52.5927319,19.559285 48.7070877,16.22346 42.6747049,14.158985 C44.0258735,7.597785 42.8815767,2.79321 39.3954907,0.794535 C36.0347099,-1.13129 31.1856341,0.547785 26.373204,4.709635 C21.3669056,0.291635 16.5662968,-1.057265 13.0837572,0.947285 C9.72652277,2.878985 8.76781956,7.89271 9.99250084,14.11551 C4.08424115,16.163535 0,19.57456 0,23.415635" id="Fill-60" fill="#FEFEFE" mask="url(#mask-6)"></path>
                </g>
                <path d="M41.3974191,16.23521 C40.9127479,16.069535 40.4103449,15.912085 39.8937563,15.764035 C39.9788693,15.41976 40.0568895,15.07901 40.1266349,14.74531 C41.263839,9.25336 40.5202825,4.829485 37.9787142,3.372485 C35.542355,1.976585 31.5574123,3.43241 27.5334595,6.913935 C27.1457226,7.24881 26.7579857,7.60366 26.3702487,7.97496 C26.1113634,7.72821 25.8536602,7.49086 25.595957,7.264085 C21.3781358,3.541685 17.1508575,1.97306 14.6116535,3.433585 C12.1776585,4.834185 11.4565624,8.993685 12.4814646,14.19776 C12.5807631,14.70066 12.6954292,15.214135 12.826645,15.735835 C12.2284899,15.90386 11.6504309,16.08481 11.0983786,16.276335 C6.15355059,17.989485 2.99491315,20.675535 2.99491315,23.46146 C2.99491315,26.33786 6.38524705,29.22366 11.5357648,30.973235 C11.9424157,31.111885 12.3644342,31.24231 12.798274,31.36686 C12.6576012,31.93086 12.5346602,32.484285 12.4318153,33.02361 C11.4553803,38.13721 12.2178508,42.19801 14.6459351,43.590385 C17.1532218,45.02741 21.361586,43.550435 25.4600126,39.98901 C25.7839148,39.708185 26.1089992,39.409735 26.4340835,39.09601 C26.856102,39.50021 27.2781206,39.88326 27.6977749,40.241635 C31.6661678,43.637385 35.5872757,45.007435 38.0129958,43.611535 C40.5179182,42.170985 41.3324022,37.80821 40.2755826,32.500735 C40.194016,32.09536 40.1006282,31.68176 39.9954191,31.259935 C40.2909503,31.172985 40.5805708,31.083685 40.8630987,30.99086 C46.2181239,29.227185 49.7018457,26.376635 49.7018457,23.46146 C49.7018457,20.66496 46.4415455,17.961285 41.3974191,16.23521" id="Fill-63" fill="#53C0DE"></path>
                <path d="M36.9823012,5.0913925 C38.5462523,5.9879175 39.1550465,9.6033925 38.1715187,14.3445175 C38.1088661,14.6476675 38.0391207,14.9555175 37.9622826,15.2680675 C36.0247801,14.8239175 33.920598,14.4925675 31.7171174,14.2869425 C30.4333298,12.4703925 29.1034395,10.8195175 27.7688206,9.3895425 C28.1270044,9.0464425 28.4863703,8.7186175 28.843372,8.4095925 C32.29163,5.4274425 35.5141022,4.2500925 36.9823012,5.0913925 L36.9823012,5.0913925 Z M32.8661427,27.2389675 C32.1355895,28.4962175 31.3861224,29.6982425 30.6260162,30.8321175 C29.2393838,30.9308175 27.8078307,30.9813425 26.3479066,30.9813425 C24.8950752,30.9813425 23.481254,30.9366925 22.1194462,30.8485675 C21.3274226,29.6994175 20.5625879,28.4950425 19.8367632,27.2495425 L19.8367632,27.2495425 C19.1133029,26.0075675 18.4477666,24.7538425 17.8437008,23.5083425 C18.4465845,22.2604925 19.1109386,21.0055925 19.8308526,19.7659675 L19.8308526,19.7659675 C20.5519487,18.5228175 21.3108728,17.3243175 22.0958037,16.1822175 C23.4848003,16.0788175 24.9092607,16.0235925 26.3479066,16.0235925 L26.3479066,16.0235925 C27.7948273,16.0235925 29.2204698,16.0788175 30.6094664,16.1845675 C31.3813939,17.3172675 32.1355895,18.5122425 32.860232,19.7553925 C33.5919673,21.0126425 34.2645963,22.2593175 34.8733906,23.4801425 C34.2669605,24.7232925 33.5955137,25.9817175 32.8661427,27.2389675 L32.8661427,27.2389675 Z M35.9491241,25.7690425 C36.573286,27.1837425 37.0993315,28.5526175 37.5178037,29.8533425 C36.1630887,30.1600175 34.7008003,30.4079425 33.1604917,30.5912425 C33.6451629,29.8274925 34.1239234,29.0402425 34.5944091,28.2294925 C35.0708054,27.4093425 35.5223771,26.5880175 35.9491241,25.7690425 L35.9491241,25.7690425 Z M26.4259268,36.2547425 C25.480227,35.2407175 24.5368914,34.1185925 23.6160162,32.9118675 C24.5097025,32.9459425 25.4211207,32.9647425 26.3479066,32.9647425 C27.3006992,32.9647425 28.2416705,32.9435925 29.1672742,32.9024675 C28.2582202,34.1303425 27.3397093,35.2536425 26.4259268,36.2547425 L26.4259268,36.2547425 Z M19.5766958,30.6276675 C18.0470263,30.4572925 16.6036519,30.2281675 15.2713973,29.9391175 C15.6839589,28.6160675 16.1922725,27.2401425 16.7856992,25.8407175 C17.2041713,26.6432425 17.6451039,27.4457675 18.1096789,28.2424175 L18.1096789,28.2424175 C18.583711,29.0555175 19.0731106,29.8509925 19.5766958,30.6276675 L19.5766958,30.6276675 Z M18.1025862,18.7754425 C17.6403754,19.5709175 17.200625,20.3734425 16.7833349,21.1759675 C16.2029116,19.8070925 15.7052371,18.4593675 15.2997683,17.1586425 C16.6320229,16.8625425 18.0529369,16.6204925 19.5341393,16.4371925 C19.0435575,17.1974175 18.564797,17.9776175 18.1025862,18.7754425 L18.1025862,18.7754425 Z M26.3703669,10.8077675 C27.2912422,11.7982925 28.2121174,12.9051425 29.1188071,14.1059925 C28.2062067,14.0625175 27.280603,14.0401925 26.3479066,14.0401925 C25.4246671,14.0401925 24.5061562,14.0625175 23.5982843,14.1048175 C24.5061562,12.9157175 25.4353062,11.8100425 26.3703669,10.8077675 L26.3703669,10.8077675 Z M34.5861342,18.7613425 C34.1239234,17.9682175 33.6498914,17.1938925 33.1664024,16.4395425 C34.6570617,16.6275425 36.0838863,16.8754675 37.425598,17.1797925 C37.0224934,18.4628925 36.5212725,19.8035675 35.9302101,21.1783175 C35.5070094,20.3781425 35.0589841,19.5720925 34.5861342,18.7613425 L34.5861342,18.7613425 Z M14.4391815,13.8169425 C13.5620449,9.3578175 14.1448324,5.9949675 15.6118492,5.1501425 C17.1746182,4.2512675 20.629969,5.5331925 24.2709133,8.7468175 C24.5037919,8.9524425 24.7378526,9.1674675 24.9719133,9.3907175 C23.6148341,10.8383175 22.2743046,12.4880175 20.9928813,14.2845925 C18.7964934,14.4866925 16.6934934,14.8121675 14.7607194,15.2469175 C14.6389605,14.7616425 14.5313872,14.2834175 14.4391815,13.8169425 L14.4391815,13.8169425 Z M12.1813231,29.0978175 C9.90336863,28.3234925 8.02260809,27.3176925 6.73290995,26.2202425 C5.57442766,25.2344175 4.99045801,24.2556425 4.99045801,23.4613425 C4.99045801,21.7705175 7.52611568,19.6143925 11.7545761,18.1491675 C12.2676182,17.9705675 12.805485,17.8037175 13.3622658,17.6462675 C13.9474175,19.5356675 14.7134344,21.5120175 15.6390381,23.5095175 C14.7016132,25.5375675 13.923775,27.5444675 13.3338948,29.4561925 C12.9367008,29.3422175 12.5513282,29.2235425 12.1813231,29.0978175 L12.1813231,29.0978175 Z M18.9182523,41.7490425 C17.4807885,42.2542925 16.3353096,42.2683925 15.6425845,41.8724175 C14.169657,41.0275925 13.5561342,37.7669675 14.3918965,33.3936175 C14.4876486,32.8930675 14.6023147,32.3784175 14.7335305,31.8520175 C16.6462084,32.2726675 18.7633939,32.5758175 21.0271629,32.7579425 C22.3192253,34.5650925 23.6727582,36.2265425 25.0369302,37.6811925 C24.7390347,37.9678925 24.4423214,38.2393175 24.1467902,38.4966425 C22.3345929,40.0711425 20.5188492,41.1873925 18.9182523,41.7490425 L18.9182523,41.7490425 Z M38.3181022,32.8871925 C38.7850415,35.2336675 38.8512405,37.3557175 38.5427059,39.0136425 C38.2637245,40.5047175 37.7045794,41.4975925 37.0130364,41.8959175 C35.5412911,42.7430925 32.3932927,41.6421175 28.9982304,38.7386925 C28.6093113,38.4049925 28.2168459,38.0501425 27.8243804,37.6741425 C29.1400853,36.2429925 30.4557902,34.5803675 31.7395777,32.7332675 C33.9974361,32.5335175 36.1299892,32.2080425 38.0651275,31.7638925 C38.1596975,32.1457675 38.2448105,32.5205925 38.3181022,32.8871925 L38.3181022,32.8871925 Z M40.2355086,29.1083925 C39.9801696,29.1918175 39.7189201,29.2740675 39.4517599,29.3527925 C38.8606975,27.4927675 38.0627632,25.5140675 37.0863282,23.4707425 C38.0178425,21.4755925 38.7850415,19.5239175 39.3595541,17.6756425 C39.8371325,17.8131175 40.3005255,17.9576425 40.7473686,18.1103925 C45.070399,19.5897175 47.7065373,21.7763925 47.7065373,23.4613425 C47.7065373,25.2555675 44.8587987,27.5855925 40.2355086,29.1083925 L40.2355086,29.1083925 Z" id="Fill-65" fill="#FEFEFE"></path>
                <path d="M26.3483794,19.354365 C28.6523406,19.354365 30.5189157,21.210865 30.5189157,23.499765 C30.5189157,25.78984 28.6523406,27.645165 26.3483794,27.645165 C24.0444182,27.645165 22.1778432,25.78984 22.1778432,23.499765 C22.1778432,21.210865 24.0444182,19.354365 26.3483794,19.354365" id="Fill-67" fill="#53C0DE"></path>
            </g>
        </g>
    </g>
</svg>