<?xml version="1.0" encoding="UTF-8"?>
<svg width="160px" height="165px" viewBox="0 0 160 165" version="1.1" xmlns="http://www.w3.org/2000/svg" xmlns:xlink="http://www.w3.org/1999/xlink">
    <!-- Generator: Sketch 43.2 (39069) - http://www.bohemiancoding.com/sketch -->
    <title>Group 24</title>
    <desc>Created with Sketch.</desc>
    <defs>
        <polygon id="path-1" points="0.638100587 2.18666667 2.15078547 2.18666667 2.15078547 0.674242081 0.638100587 0.674242081"></polygon>
        <polygon id="path-3" points="9.87828646e-21 0.107875556 9.87828646e-21 1.82440889 8.641488 1.82440889 8.641488 0.107875556 0 0.107875556"></polygon>
    </defs>
    <g id="Design-1" stroke="none" stroke-width="1" fill="none" fill-rule="evenodd">
        <rect id="Rectangle-1-Copy-4" fill="#FBF9E4" x="-399" y="-865" width="960" height="2083"></rect>
        <g id="Group-24">
            <circle id="Oval-1-Copy-6" fill="#FFFEF3" cx="80" cy="81" r="80"></circle>
            <g id="Page-1" transform="translate(12.642222, 0.500000)">
                <path d="M58.5904942,114.034084 C58.1691964,114.034084 57.8018364,113.723577 57.7413387,113.29499 L43.5265476,12.0013013 L52.2382276,10.7782258 L66.4537476,112.072644 C66.5193476,112.542048 66.1928053,112.975737 65.7234009,113.041337 C65.2510809,113.105479 64.8195787,112.779666 64.7539787,112.31099 L50.7768053,12.7170702 L45.4646631,13.4627236 L59.4411076,113.056644 C59.5074364,113.526048 59.1801653,113.959737 58.7107609,114.025337 C58.670672,114.031168 58.6298542,114.034084 58.5904942,114.034084" id="Fill-1" fill="#2F5266"></path>
                <path d="M62.01496,55.7574489 C61.5936622,55.7574489 61.2263022,55.4469422 61.1658044,55.0183556 C61.1002044,54.5489511 61.4274756,54.1152622 61.89688,54.0489333 L110.53272,47.2236178 L120.767778,33.61672 L107.182747,23.3517778 L54.1801333,30.7900889 C53.7107289,30.85496 53.2763111,30.5284178 53.2107111,30.0597422 C53.1451111,29.5903378 53.4723822,29.15592 53.9417867,29.09032 L107.649236,21.55288 L123.169467,33.2799733 L111.476631,48.8249867 L62.1352267,55.7487022 C62.0951378,55.7545333 62.05432,55.7574489 62.01496,55.7574489" id="Fill-3" fill="#2F5266"></path>
                <path d="M28.8024818,72.1578133 L12.8412729,60.4934044 L24.9750862,44.8864356 L48.5437084,41.5787378 C49.0072818,41.5094933 49.4468018,41.8404089 49.5131307,42.3098133 C49.5787307,42.7792178 49.2514596,43.2129067 48.7820551,43.2785067 L25.9029618,46.4892622 L15.2815929,60.1508267 L29.2529351,70.3611022 L44.5421084,68.2159822 C45.0085973,68.1467378 45.4452018,68.4769244 45.5108018,68.9463289 C45.5771307,69.4157333 45.2498596,69.8494222 44.7804551,69.9157511 L28.8024818,72.1578133 Z" id="Fill-5" fill="#2F5266"></path>
                <path d="M38.3951698,104.425433 C38.1488053,104.425433 37.9031698,104.442197 37.6575342,104.476455 C35.3097831,104.805913 33.3089831,106.699566 32.1456764,109.627513 L44.3749742,107.911708 C42.651152,105.676935 40.5104053,104.425433 38.3951698,104.425433 L38.3951698,104.425433 Z M29.695152,111.704846 L30.0603253,110.434393 C31.302352,106.111353 34.0531787,103.249006 37.4191876,102.776686 C40.7866542,102.302908 44.2175342,104.299335 46.6017298,108.112882 L47.302192,109.233913 L29.695152,111.704846 Z" id="Fill-7" fill="#2F5266"></path>
                <path d="M27.4013387,112.026796 C26.5186542,115.398636 26.3313298,119.157516 26.8619609,122.936805 C27.4589209,127.192059 28.8970187,131.111294 31.0304764,134.306743 L52.2396853,131.33069 C53.4110098,127.670939 53.7149564,123.507525 53.1179964,119.252272 C52.5873653,115.472983 51.3730364,111.910903 49.5960053,108.912254 L27.4013387,112.026796 Z M30.2221387,136.153748 L29.9203787,135.723703 C27.4691253,132.230868 25.8232942,127.891792 25.162192,123.175152 C24.5703342,118.95853 24.8247164,114.755028 25.8976409,111.018014 L26.0514364,110.482281 L50.4677564,107.056503 L50.7636853,107.528823 C52.8242542,110.825588 54.2259076,114.796574 54.8177653,119.013196 C55.4795964,123.729836 55.0918276,128.354636 53.6967342,132.387579 L53.5247164,132.883223 L30.2221387,136.153748 Z" id="Fill-9" fill="#2F5266"></path>
                <path d="M36.0063093,135.341984 C35.4625582,136.08618 34.9844071,136.920028 34.5762293,137.834055 L49.8019893,135.697682 C49.1576516,134.930891 48.4681227,134.261042 47.7414204,133.695424 L36.0063093,135.341984 Z M31.9689938,139.933255 L32.4274649,138.608135 C33.0324427,136.858073 33.850256,135.312828 34.8568516,134.015406 L35.070416,133.739886 L48.1998916,131.897255 L48.4805138,132.103531 C49.8049049,133.072953 51.0163182,134.333202 52.0812249,135.85002 L52.8866471,136.99802 L31.9689938,139.933255 Z" id="Fill-11" fill="#2F5266"></path>
                <path d="M40.7878933,150.238286 C40.3665956,150.238286 39.9992356,149.92778 39.9387378,149.499193 L38.84176,141.678944 C38.7754311,141.208811 39.1027022,140.775122 39.5721067,140.709522 C40.0364089,140.643193 40.4752,140.970464 40.5415289,141.439868 L41.6385067,149.260117 C41.7048356,149.730251 41.3775644,150.16394 40.90816,150.22954 C40.8680711,150.235371 40.8279822,150.238286 40.7878933,150.238286" id="Fill-13" fill="#2F5266"></path>
                <path d="M46.0861867,160.185068 C45.6648889,160.185068 45.2975289,159.874562 45.2370311,159.445975 L42.6691556,141.141388 C42.6028267,140.671984 42.9300978,140.237566 43.3995022,140.171966 C43.8674489,140.102722 44.3025956,140.432908 44.3689244,140.902313 L46.9368,159.2069 C47.0031289,159.677033 46.6758578,160.110722 46.2064533,160.176322 C46.1663644,160.182153 46.1262756,160.185068 46.0861867,160.185068" id="Fill-15" fill="#2F5266"></path>
                <path d="M48.4422471,149.164123 C48.0209493,149.164123 47.6535893,148.853616 47.5930916,148.425029 L46.4961138,140.60478 C46.4305138,140.134647 46.757056,139.700958 47.2271893,139.635358 C47.6973227,139.567572 48.1302827,139.8963 48.1958827,140.365705 L49.2928604,148.185954 C49.3591893,148.656087 49.0319182,149.089776 48.5625138,149.155376 C48.521696,149.161207 48.4816071,149.164123 48.4422471,149.164123" id="Fill-17" fill="#2F5266"></path>
                <path d="M36.8071396,97.4764249 C36.7641351,97.4764249 36.7204018,97.4793404 36.6766684,97.4859004 C36.4288462,97.5208871 36.2101796,97.6491716 36.0600284,97.8488871 C35.9098773,98.0478738 35.846464,98.2942382 35.8807218,98.5413316 C35.9528818,99.0522827 36.4222862,99.4072516 36.9368818,99.3372782 C37.447104,99.2658471 37.8042596,98.7920693 37.7328284,98.2811182 C37.6664996,97.8146293 37.2656107,97.4764249 36.8071396,97.4764249 M36.8049529,101.062558 C35.5046151,101.062558 34.3668196,100.10334 34.1809529,98.7796782 C34.0825529,98.0784871 34.2633173,97.3809404 34.6897173,96.8153227 C35.1161173,96.2497049 35.7371307,95.8838027 36.4383218,95.7861316 C37.8902684,95.5842293 39.2292373,96.5951982 39.4325973,98.0427716 C39.6352284,99.4910738 38.6228018,100.833687 37.1752284,101.037047 C37.0505884,101.05454 36.9266773,101.062558 36.8049529,101.062558" id="Fill-19" fill="#2F5266"></path>
                <path d="M46.6563964,1.71718933 C46.613392,1.71718933 46.5696587,1.72010489 46.5259253,1.725936 C46.0157031,1.798096 45.6585476,2.27114489 45.7299787,2.782096 C45.7649653,3.02918933 45.8939787,3.24858489 46.0936942,3.398736 C46.2934098,3.54888711 46.5397742,3.61230044 46.7861387,3.57804267 C47.2963609,3.50661156 47.6535164,3.03283378 47.5820853,2.52188267 C47.5164853,2.05539378 47.1148676,1.71718933 46.6563964,1.71718933 M46.6505653,5.30405156 C46.0783876,5.30405156 45.524432,5.11964267 45.0601298,4.76904711 C44.494512,4.34264711 44.1293387,3.72163378 44.0302098,3.02044267 C43.8275787,1.57286933 44.8400053,0.229527111 46.2875787,0.0261671111 C47.7366098,-0.177921778 49.0792231,0.836691556 49.2818542,2.283536 L49.2818542,2.283536 C49.4844853,3.73110933 48.4720587,5.07445156 47.0244853,5.27781156 C46.8991164,5.29530489 46.7744764,5.30405156 46.6505653,5.30405156" id="Fill-21" fill="#2F5266"></path>
                <path d="M42.0748196,153.102236 C42.0165084,152.688956 41.6345707,152.400316 41.2205618,152.458628 C40.8072818,152.51621 40.5193707,152.898876 40.5769529,153.312156 C40.635264,153.726165 41.0172018,154.014076 41.4312107,153.956494 C41.8444907,153.898183 42.1331307,153.515516 42.0748196,153.102236" id="Fill-23" fill="#2F5266"></path>
                <path d="M42.5184942,156.263938 C42.4601831,155.850658 42.0782453,155.562018 41.6642364,155.620329 C41.2509564,155.677911 40.9630453,156.060578 41.0206276,156.473858 C41.0789387,156.887867 41.4608764,157.175778 41.8748853,157.118196 C42.2881653,157.059884 42.5768053,156.677218 42.5184942,156.263938" id="Fill-25" fill="#2F5266"></path>
                <g id="Group-29" transform="translate(45.191111, 161.445973)">
                    <mask id="mask-2" fill="white">
                        <use xlink:href="#path-1"></use>
                    </mask>
                    <g id="Clip-28"></g>
                    <path d="M2.14329778,1.32533867 C2.08498667,0.912058667 1.70304889,0.623418667 1.28904,0.681729778 C0.87576,0.739312 0.587848889,1.12197867 0.645431111,1.53525867 C0.703742222,1.94926756 1.08568,2.23717867 1.49968889,2.17959644 C1.91296889,2.12128533 2.20160889,1.73861867 2.14329778,1.32533867" id="Fill-27" fill="#2F5266" mask="url(#mask-2)"></path>
                </g>
                <path d="M49.7294649,152.028 C49.6711538,151.61472 49.289216,151.32608 48.8752071,151.384391 C48.4619271,151.441973 48.174016,151.82464 48.2315982,152.23792 C48.2899093,152.651929 48.6718471,152.93984 49.085856,152.882258 C49.499136,152.823947 49.787776,152.44128 49.7294649,152.028" id="Fill-30" fill="#2F5266"></path>
                <path d="M50.1731396,155.189701 C50.1148284,154.776421 49.7328907,154.487781 49.3188818,154.546092 C48.9056018,154.603675 48.6176907,154.986341 48.6752729,155.399621 C48.733584,155.81363 49.1155218,156.101541 49.5295307,156.043959 C49.9428107,155.985648 50.2314507,155.602981 50.1731396,155.189701" id="Fill-32" fill="#2F5266"></path>
                <path d="M84.2645849,97.9881778 C84.0182204,97.9881778 83.7725849,98.0049422 83.5269493,98.0392 C81.1791982,98.3686578 79.1783982,100.262311 78.0150916,103.190258 L90.2443893,101.474453 C88.5205671,99.23968 86.3798204,97.9881778 84.2645849,97.9881778 L84.2645849,97.9881778 Z M75.5638382,105.267591 L75.9290116,103.997138 C77.1717671,99.6740978 79.9225938,96.8117511 83.2886027,96.3394311 C86.6567982,95.8634667 90.0869493,97.86208 92.4711449,101.675627 L93.1716071,102.796658 L75.5638382,105.267591 Z" id="Fill-34" fill="#2F5266"></path>
                <path d="M73.2703893,105.589541 C72.3877049,108.960652 72.2003804,112.719532 72.7310116,116.49955 C73.3287004,120.755532 74.7667982,124.674039 76.8995271,127.869488 L98.108736,124.893435 C99.2807893,121.233684 99.584736,117.07027 98.9870471,112.815017 C98.456416,109.034999 97.2420871,105.472919 95.4657849,102.474999 L73.2703893,105.589541 Z M76.0919182,129.716492 L75.7901582,129.286448 C73.3389049,125.794341 71.6930738,121.455266 71.0312427,116.737897 C70.4393849,112.519817 70.6937671,108.316315 71.7674204,104.580759 L71.921216,104.045026 L96.337536,100.619248 L96.632736,101.091568 C98.6933049,104.387604 100.094958,108.35859 100.686816,112.575941 C101.348647,117.292581 100.961607,121.917381 99.5665138,125.950324 L99.394496,126.445968 L76.0919182,129.716492 Z" id="Fill-36" fill="#2F5266"></path>
                <path d="M81.8757973,128.904729 C81.3320462,129.648924 80.8538951,130.482773 80.4457173,131.3968 L95.6714773,129.260427 C95.0271396,128.493636 94.3376107,127.823787 93.6109084,127.258169 L81.8757973,128.904729 Z M77.8377529,133.496729 L78.296224,132.17088 C78.9026596,130.420089 79.719744,128.874844 80.7263396,127.578151 L80.939904,127.302631 L94.0693796,125.46 L94.3500018,125.666276 C95.6751218,126.635698 96.8858062,127.896676 97.949984,129.412764 L98.7554062,130.560764 L77.8377529,133.496729 Z" id="Fill-38" fill="#2F5266"></path>
                <path d="M86.6570169,143.801396 C86.2357191,143.801396 85.8683591,143.490889 85.8078613,143.062302 L84.7108836,135.241324 C84.6445547,134.77192 84.9718258,134.338231 85.4412302,134.271902 C85.9091769,134.203387 86.3443236,134.533573 86.4106524,135.002978 L87.5076302,142.823227 C87.5739591,143.29336 87.246688,143.727049 86.7772836,143.792649 C86.7371947,143.79848 86.6963769,143.801396 86.6570169,143.801396" id="Fill-40" fill="#2F5266"></path>
                <path d="M91.9556747,153.747449 C91.5343769,153.747449 91.1670169,153.436942 91.1065191,153.008356 L88.5379147,134.703769 C88.4723147,134.234364 88.7988569,133.800676 89.2682613,133.734347 C89.7347502,133.668018 90.1720836,133.995289 90.2376836,134.465422 L92.806288,152.76928 C92.8726169,153.239413 92.5453458,153.673102 92.0759413,153.738702 C92.0358524,153.744533 91.9950347,153.747449 91.9556747,153.747449" id="Fill-42" fill="#2F5266"></path>
                <path d="M94.3117351,142.727305 C93.8904373,142.727305 93.5230773,142.416798 93.4625796,141.988212 L92.3656018,134.166505 C92.2992729,133.6971 92.626544,133.263412 93.0959484,133.197812 C93.5638951,133.128567 93.9990418,133.458754 94.0653707,133.928158 L95.1623484,141.749136 C95.2286773,142.219269 94.9014062,142.652958 94.4320018,142.718558 C94.3919129,142.724389 94.3510951,142.727305 94.3117351,142.727305" id="Fill-44" fill="#2F5266"></path>
                <path d="M82.6780124,91.0391698 C82.6342791,91.0391698 82.5898169,91.0420853 82.5460836,91.0486453 C82.2982613,91.083632 82.0795947,91.2119164 81.9294436,91.411632 C81.7792924,91.6106187 81.7158791,91.8569831 81.7501369,92.1040764 C81.7851236,92.3511698 81.9141369,92.5705653 82.1131236,92.7207164 C82.3128391,92.8708676 82.5584747,92.9350098 82.805568,92.9000231 C83.0533902,92.8650364 83.2720569,92.7360231 83.422208,92.5370364 C83.573088,92.3373209 83.6357724,92.0916853 83.6015147,91.8438631 C83.566528,91.5967698 83.4375147,91.3781031 83.238528,91.227952 C83.074528,91.1040409 82.8791858,91.0391698 82.6780124,91.0391698 M82.6699947,94.626032 C82.0985458,94.626032 81.5445902,94.4416231 81.080288,94.0910276 C80.5139413,93.6653564 80.148768,93.0436142 80.050368,92.3424231 C79.951968,91.641232 80.1320036,90.9436853 80.5584036,90.3780676 C80.9848036,89.8124498 81.6058169,89.4472764 82.3077369,89.3488764 C83.0074702,89.2519342 83.7064747,89.430512 84.2720924,89.856912 C84.8377102,90.283312 85.2028836,90.9043253 85.3012836,91.6055164 C85.3996836,92.3067076 85.219648,93.0042542 84.793248,93.569872 C84.366848,94.1362187 83.7458347,94.501392 83.0439147,94.599792 C82.9192747,94.6172853 82.7939058,94.626032 82.6699947,94.626032" id="Fill-46" fill="#2F5266"></path>
                <path d="M87.9441618,146.665127 C87.8858507,146.251847 87.5039129,145.963207 87.089904,146.021518 C86.676624,146.0791 86.3887129,146.461767 86.4462951,146.875047 C86.5046062,147.289056 86.886544,147.576967 87.3005529,147.519385 C87.7138329,147.461074 88.0024729,147.078407 87.9441618,146.665127" id="Fill-48" fill="#2F5266"></path>
                <path d="M88.3878364,149.826828 C88.3295253,149.413548 87.9475876,149.124908 87.5335787,149.18322 C87.1202987,149.240802 86.8323876,149.623468 86.8899698,150.036748 C86.9482809,150.450757 87.3302187,150.738668 87.7442276,150.681086 C88.1575076,150.622775 88.4461476,150.240108 88.3878364,149.826828" id="Fill-50" fill="#2F5266"></path>
                <path d="M93.2037511,156.33413 C93.14544,155.92085 92.7635022,155.63221 92.3494933,155.690521 C91.9362133,155.748103 91.6483022,156.13077 91.7058844,156.54405 C91.7641956,156.958059 92.1461333,157.24597 92.5601422,157.188388 C92.9734222,157.130076 93.2620622,156.74741 93.2037511,156.33413" id="Fill-52" fill="#2F5266"></path>
                <path d="M93.6474258,159.495831 C93.5891147,159.082551 93.2071769,158.793911 92.793168,158.852222 C92.379888,158.909804 92.0919769,159.292471 92.1495591,159.705751 C92.2078702,160.11976 92.589808,160.407671 93.0038169,160.350089 C93.4170969,160.291778 93.7057369,159.909111 93.6474258,159.495831" id="Fill-54" fill="#2F5266"></path>
                <path d="M95.5987342,145.590891 C95.5404231,145.177611 95.1584853,144.888971 94.7444764,144.947282 C94.3311964,145.004864 94.0432853,145.387531 94.1008676,145.800811 C94.1591787,146.21482 94.5411164,146.502731 94.9551253,146.445148 C95.3684053,146.386837 95.6570453,146.004171 95.5987342,145.590891" id="Fill-56" fill="#2F5266"></path>
                <path d="M96.0424818,148.752592 C95.9841707,148.339312 95.6022329,148.050672 95.188224,148.108983 C94.774944,148.166565 94.4870329,148.549232 94.5446151,148.962512 C94.6029262,149.376521 94.984864,149.664432 95.3988729,149.60685 C95.8121529,149.548539 96.1007929,149.165872 96.0424818,148.752592" id="Fill-58" fill="#2F5266"></path>
                <path d="M53.2434382,114.836955 C52.8221404,114.836955 52.4547804,114.526448 52.3942827,114.097861 C52.3286827,113.628457 52.6559538,113.194768 53.1253582,113.128439 L71.0385316,110.614501 C71.5042916,110.544528 71.9416249,110.875444 72.0079538,111.344848 C72.0735538,111.814981 71.7462827,112.24867 71.2768782,112.31427 L53.3637049,114.828208 C53.3228871,114.834039 53.2835271,114.836955 53.2434382,114.836955" id="Fill-60" fill="#2F5266"></path>
                <path d="M54.1719698,126.697435 C53.750672,126.697435 53.383312,126.386928 53.3228142,125.958341 C53.2572142,125.488937 53.5844853,125.055248 54.0538898,124.988919 L73.410992,122.27235 C73.8774809,122.203835 74.3140853,122.533292 74.3796853,123.003426 C74.4452853,123.47283 74.1187431,123.906519 73.6493387,123.972119 L54.2922364,126.688688 C54.2514187,126.694519 54.2120587,126.697435 54.1719698,126.697435" id="Fill-62" fill="#2F5266"></path>
                <path d="M75.1691449,35.3827449 L72.8162916,42.3531093 L79.3289138,41.4390827 L75.1691449,35.3827449 Z M72.3796871,43.7423716 L71.1631716,47.2439538 C70.8985849,48.0617671 69.4590293,47.714816 69.7155982,46.835776 L74.2325227,33.6596516 C74.3185316,33.3724693 74.5896782,33.2084693 74.8586382,33.1705671 C75.1275982,33.1326649 75.3936427,33.2215893 75.5758649,33.4708693 L83.5156516,44.8357049 C84.1774827,45.6491449 82.7204338,46.3816782 82.2153138,45.6301938 L80.1525582,42.6519538 L72.3796871,43.7423716 Z" id="Fill-64" fill="#2F5266"></path>
                <path d="M86.5210062,39.9660711 L90.2208462,39.4463733 C92.9702151,39.0607911 93.8813262,37.2888622 93.6189262,35.7232089 C93.3608996,34.0314578 91.7762951,32.5037067 89.3782507,32.8404533 L85.5945884,33.3710844 L86.5210062,39.9660711 Z M86.7090596,41.3101422 L87.1762773,44.6382489 C87.309664,45.5894489 85.8176284,45.7775022 85.6900729,44.8678489 L84.0187307,32.9599911 C83.9582329,32.5263022 84.2687396,32.1873689 84.6834773,32.1297867 L89.1690596,31.5000267 C92.7449884,30.9978222 94.7538062,33.1407556 95.0876373,35.5169333 C95.4353173,37.9988 94.027104,40.2831378 90.4088996,40.7904444 L86.7090596,41.3101422 Z" id="Fill-66" fill="#2F5266"></path>
                <path d="M97.0436836,30.6905227 C96.8986347,29.6562293 98.4518969,29.4601582 98.5940302,30.4725849 L100.328786,42.8345404 C100.461444,43.7857404 98.9176569,44.0452249 98.7784391,43.0524782 L97.0436836,30.6905227 Z" id="Fill-68" fill="#2F5266"></path>
                <path d="M18.9580356,80.9638116 C18.4915467,81.2218382 18.3217156,81.8093227 18.5797422,82.2758116 C18.8377689,82.7423004 19.4252533,82.9121316 19.8917422,82.6541049 C20.3582311,82.3960782 20.5280622,81.8085938 20.2700356,81.3421049 C20.0120089,80.875616 19.4245244,80.7057849 18.9580356,80.9638116" id="Fill-70" fill="#2F5266"></path>
                <path d="M83.7819147,66.1624107 C83.3154258,66.4204373 83.1455947,67.0079218 83.4036213,67.4744107 C83.661648,67.9408996 84.2491324,68.1107307 84.7156213,67.852704 C85.1821102,67.5946773 85.3519413,67.0071929 85.0939147,66.540704 C84.835888,66.0742151 84.2484036,65.904384 83.7819147,66.1624107" id="Fill-72" fill="#2F5266"></path>
                <path d="M92.431712,3.600128 C91.9652231,3.85815467 91.795392,4.44563911 92.0534187,4.912128 C92.3114453,5.37861689 92.8989298,5.548448 93.3654187,5.29042133 C93.8319076,5.03239467 94.0017387,4.44491022 93.743712,3.97842133 C93.4856853,3.51193244 92.8982009,3.34210133 92.431712,3.600128" id="Fill-74" fill="#2F5266"></path>
                <path d="M104.53258,75.5666809 C104.058802,75.5666809 103.673948,75.1825564 103.673948,74.7080498 L103.673948,67.7836053 C103.673948,67.3098276 104.058802,66.9257031 104.53258,66.9257031 C105.006357,66.9257031 105.391211,67.3098276 105.391211,67.7836053 L105.391211,74.7080498 C105.391211,75.1825564 105.006357,75.5666809 104.53258,75.5666809" id="Fill-76" fill="#2F5266"></path>
                <path d="M107.994802,72.1044587 L101.070357,72.1044587 C100.59658,72.1044587 100.211726,71.7203342 100.211726,71.2458276 C100.211726,70.7720498 100.59658,70.3879253 101.070357,70.3879253 L107.994802,70.3879253 C108.46858,70.3879253 108.853433,70.7720498 108.853433,71.2458276 C108.853433,71.7203342 108.46858,72.1044587 107.994802,72.1044587" id="Fill-78" fill="#2F5266"></path>
                <path d="M14.06136,30.0833582 C13.5875822,30.0833582 13.2027289,29.6992338 13.2027289,29.2247271 L13.2027289,22.3002827 C13.2027289,21.8265049 13.5875822,21.4423804 14.06136,21.4423804 C14.5351378,21.4423804 14.9199911,21.8265049 14.9199911,22.3002827 L14.9199911,29.2247271 C14.9199911,29.6992338 14.5351378,30.0833582 14.06136,30.0833582" id="Fill-80" fill="#2F5266"></path>
                <path d="M17.5235822,26.621136 L10.5991378,26.621136 C10.12536,26.621136 9.74050667,26.2370116 9.74050667,25.7625049 C9.74050667,25.2887271 10.12536,24.9046027 10.5991378,24.9046027 L17.5235822,24.9046027 C17.99736,24.9046027 18.3822133,25.2887271 18.3822133,25.7625049 C18.3822133,26.2370116 17.99736,26.621136 17.5235822,26.621136" id="Fill-82" fill="#2F5266"></path>
                <path d="M4.32063467,97.48816 C3.84685689,97.48816 3.46200356,97.1040356 3.46200356,96.6295289 L3.46200356,89.7050844 C3.46200356,89.2313067 3.84685689,88.8471822 4.32063467,88.8471822 C4.79441244,88.8471822 5.17926578,89.2313067 5.17926578,89.7050844 L5.17926578,96.6295289 C5.17926578,97.1040356 4.79441244,97.48816 4.32063467,97.48816" id="Fill-84" fill="#2F5266"></path>
                <g id="Group-88" transform="translate(0.000000, 92.201529)">
                    <mask id="mask-4" fill="white">
                        <use xlink:href="#path-3"></use>
                    </mask>
                    <g id="Clip-87"></g>
                    <path d="M7.78285689,1.82440889 L0.858412444,1.82440889 C0.384634667,1.82440889 -0.000218666667,1.44028444 -0.000218666667,0.965777778 C-0.000218666667,0.492 0.384634667,0.107875556 0.858412444,0.107875556 L7.78285689,0.107875556 C8.25663467,0.107875556 8.641488,0.492 8.641488,0.965777778 C8.641488,1.44028444 8.25663467,1.82440889 7.78285689,1.82440889" id="Fill-86" fill="#2F5266" mask="url(#mask-4)"></path>
                </g>
            </g>
        </g>
    </g>
</svg>