<?xml version="1.0" encoding="UTF-8"?>
<svg width="68px" height="53px" viewBox="0 0 68 53" version="1.1" xmlns="http://www.w3.org/2000/svg" xmlns:xlink="http://www.w3.org/1999/xlink">
    <!-- Generator: Sketch 43.2 (39069) - http://www.bohemiancoding.com/sketch -->
    <title>Group 52</title>
    <desc>Created with Sketch.</desc>
    <defs></defs>
    <g id="Design-1" stroke="none" stroke-width="1" fill="none" fill-rule="evenodd">
        <g id="Group-52">
            <path d="M64.2196629,14.632 C62.482658,12.7123721 60.0185348,10.9972093 56.8937504,9.53469767 C50.6324538,6.61097674 42.3409595,5 33.5451734,5 C24.7519935,5 16.457893,6.61097674 10.1939903,9.53339535 C7.07572123,10.9933023 4.61159806,12.7084651 2.86677472,14.632 C0.964278768,16.7365581 -5.68434189e-14,19 -5.68434189e-14,21.3585116 C-5.68434189e-14,23.7170233 0.964278768,25.9804651 2.86677472,28.0837209 C4.6089919,30.0111628 7.07441815,31.7263256 10.1926872,33.1823256 C16.4526807,36.1073488 24.7454781,37.7170233 33.5451734,37.7170233 C42.3474749,37.7170233 50.6389692,36.1073488 56.8937504,33.1823256 C60.0185348,31.7237209 62.4839611,30.0072558 64.220966,28.0824186 C66.1221588,25.9856744 67.0864376,23.7222326 67.0864376,21.3585116 C67.0864376,18.9947907 66.1221588,16.7313488 64.2196629,14.632" id="Fill-1" fill="#FEFEFE"></path>
            <path d="M63.8123371,15.3663256 C62.1483047,13.5261395 59.7701848,11.8747907 56.7431313,10.4578605 C50.586081,7.58362791 42.4157731,6 33.7372642,6 C25.0600583,6 16.8871442,7.58362791 10.7274878,10.4578605 C7.70825284,11.872186 5.32882982,13.5235349 3.65828201,15.3663256 C1.89391248,17.3172093 1,19.3983256 1,21.5497674 C1,23.703814 1.89391248,25.7836279 3.65828201,27.7345116 C5.32882982,29.5812093 7.70694976,31.2325581 10.7274878,32.6429767 C16.8819319,35.5185116 25.0535429,37.1008372 33.7372642,37.1008372 C42.4235916,37.1008372 50.5925964,35.5185116 56.7431313,32.6429767 C59.7701848,31.2299535 62.1483047,29.5786047 63.8136402,27.7332093 C65.5767066,25.7888372 66.4706191,23.7077209 66.4706191,21.5497674 C66.4706191,19.3931163 65.5767066,17.3133023 63.8123371,15.3663256" id="Fill-3" fill="#000000"></path>
            <path d="M28.8283371,0 L28.35141,0.57172093 C27.9852447,1.00930233 26.9219319,2.24390698 26.3967909,2.688 C26.151812,2.89506977 25.4989692,3.41730233 24.9451605,3.75981395 L22.5553128,2.65283721 L17.4824246,5.13897674 L15.617718,0.970232558 C15.617718,0.970232558 10.3819449,5.32260465 7.09688169,5.17674419 C6.8049919,5.17674419 5.51364019,4.85767442 5.51364019,4.85767442 L6.06353971,12.7276279 L8.88210049,12.3473488 C9.00458995,13.1613023 9.13750405,14.4271628 9.1596564,15.1994419 C9.15835332,15.4052093 9.11926094,18.2911628 8.4572966,20.6548837 L8.35174716,21.0338605 L8.58499838,21.3503256 C8.59151378,21.3607442 9.58706645,22.8024186 9.73301135,25.8967442 C8.98504376,26.3108837 7.05909238,27.2173023 3.94603566,27.6223256 L3,27.7460465 L3.27755592,28.6589767 C3.35052836,28.8973023 5.08492707,34.5493953 7.47347164,38.5097674 L7.90218476,39.2208372 L8.60193841,38.7728372 C9.06713776,38.475907 12.8252188,35.7944186 14.3341848,34.5689302 C15.0938801,34.8528372 16.6484538,35.4154419 17.8446807,35.7410233 C18.0870535,36.5901395 18.5952545,39.0697674 18.4037018,42.2148837 L18.3646094,42.8569302 L18.982269,43.0392558 C19.0330891,43.0535814 20.2671053,43.4117209 22.6113452,43.5797209 L23.5534716,43.6383256 L23.8401491,43.6552558 L24.0720972,43.4898605 C24.2232545,43.3830698 27.578684,40.995907 28.4791118,40.3226047 C28.5025673,40.3213023 28.5338412,40.3213023 28.5703274,40.3213023 C28.9925251,40.3213023 30.0832026,40.4463256 32.6320259,41.2850233 L33.454269,41.555907 L33.6692771,40.7185116 L35.8858152,32.0541395 C36.6494198,32.6584186 37.751825,33.4775814 38.8555332,34.1053023 L39.2112739,34.3071628 L39.5852577,34.1404651 C39.6738671,34.1013953 41.3913258,33.3213023 43.3550665,31.6894884 C43.3342172,33.2223256 43.2,35.7136744 42.6878898,38.9499535 L42.5497634,39.819907 L47.4506451,40.0413023 L47.6031053,39.9579535 C48.7693614,39.3211163 50.256175,38.6074419 50.6145219,38.5618605 C50.6132188,38.5618605 50.6145219,38.5618605 50.615825,38.5618605 C50.6236434,38.5618605 52.2941912,38.3430698 54.7791637,39.2716279 C54.9068655,39.3106977 55.718684,39.5451163 56.8666969,39.5451163 C57.0543404,39.5451163 63.1423274,39.3367442 63.1423274,39.3367442 L60.5713517,31.3613023 L60.5687455,31.3508837 C60.5583209,31.3157209 59.2330891,26.5192558 59.2330891,26.5192558 C59.2330891,26.5192558 55.3147293,22.9157209 54.800013,20.7173953 C54.6501588,18.1140465 57.9287066,16.3676279 57.9287066,16.3676279 L57.4960843,14.2344186 C57.769731,14.1224186 58.1463209,14.0026047 58.5763371,13.9622326 C58.8799546,13.9335814 59.3412447,13.9179535 59.9432674,13.9179535 C60.9974587,13.9179535 62.1063793,13.9648372 62.118107,13.9648372 L62.9794425,14.0013023 L62.9598963,13.1391628 L62.8348006,7.59125581 L62.8321945,7.48837209 L62.8048298,7.38939535 C62.759222,7.22530233 61.6568169,3.33786047 60.8397861,1.7255814 L60.4540746,0.96372093 L59.7152285,1.39218605 C59.6956823,1.40260465 57.6824246,2.54995349 54.4625154,3.44074419 L53.833128,3.61525581 L53.8722204,4.26772093 C53.9008882,4.77823256 53.848765,5.39162791 53.7601556,5.64037209 C53.5399352,6.32148837 45.8426451,3.81451163 45.8426451,3.81451163 L39.7259903,4.20651163 L34.5306126,0.696744186 L34.1071118,1.0027907 L32.2033128,2.37934884 L29.4368752,0.429767442 L28.8283371,0 Z" id="Fill-5" fill="#FEFEFE"></path>
            <path d="M58.4595981,27.8693953 C58.4595981,27.8693953 54.5464506,24.4403721 53.9483371,21.7536744 C53.9483371,21.7536744 53.6277796,18.9797209 56.9753906,16.8894884 L56.5310405,14.704186 C56.5310405,14.704186 57.3311313,14.1728372 58.4491734,14.0673488 C59.5672156,13.9618605 62.101705,14.0673488 62.101705,14.0673488 L61.9766094,8.51944186 C61.9766094,8.51944186 60.8585673,4.56167442 60.0689011,3.00148837 C60.0689011,3.00148837 58.0009141,4.19572093 54.6285446,5.12948837 C54.6285446,5.12948837 54.6884862,6.66623256 54.3314425,7.21451163 C54.3314425,7.21451163 53.9939449,7.70288372 51.9546256,7.23925581 C49.9400648,6.78083721 46.6471831,5.83665116 45.7219968,5.55404651 C45.7115721,5.55013953 45.7011475,5.54753488 45.6907229,5.54362791 C45.6907229,5.54362791 40.6504117,5.8132093 40.3233387,5.85227907 L40.4953452,7.23013953 L38.2318963,7.1624186 C38.2318963,7.1624186 38.8664959,5.4772093 38.8664959,5.44855814 C38.8664959,5.44855814 34.6653679,2.64465116 34.5311507,2.56781395 L32.1595462,4.28167442 L28.9213938,2 C28.9213938,2 27.5635851,3.62660465 26.8690438,4.21395349 C26.8690438,4.21395349 25.7327585,5.17767442 24.9222431,5.58269767 L22.6470665,4.4744186 C22.6470665,4.4744186 22.3473582,4.59162791 21.7974587,4.84167442 C21.7974587,4.84167442 19.4102172,5.84186047 17.0203695,7.21060465 L15.3485186,3.26065116 C15.3485186,3.26065116 9.72442788,7.97246512 6.43024311,6.88372093 L6.9566872,12.6282791 C6.9566872,12.6282791 9.44556888,12.1985116 9.44556888,12.2375814 C9.44556888,12.2375814 9.87949433,14.704186 9.91728363,16.1002791 C9.91728363,16.1002791 9.90816207,19.2011163 9.18625608,21.7823256 C9.18625608,21.7823256 10.4372123,23.4870698 10.5049724,27.2533953 C10.5049724,27.2533953 8.37183144,28.7653953 4,29.3332093 C4,29.3332093 5.75133874,35.0829767 8.1151248,39.0029767 C8.1151248,39.0029767 13.3391702,35.5648372 14.3894522,34.5529302 C14.3894522,34.5529302 17.1363436,35.6130233 18.6974327,35.9789767 C18.6974327,35.9789767 19.423248,38.8584186 19.1600259,43.1743256 C19.1600259,43.1743256 20.3354036,43.5207442 22.6197018,43.6848372 L23.5540097,43.7421395 C23.5540097,43.7421395 27.4319741,40.983814 28.0639676,40.4967442 C28.0639676,40.4967442 28.6008363,40.0344186 32.8358444,41.427907 L35.3690308,31.5302326 C35.3690308,31.5302326 37.309316,33.2349767 39.2052966,34.3133023 C39.2052966,34.3133023 41.7006937,33.195907 44.0814198,30.7970233 C44.0814198,30.7970233 44.3511572,34.2091163 43.4363955,39.9862326 C43.4363955,39.9862326 46.5377245,40.2063256 47.1645057,40.1594419 C47.1645057,40.1594419 49.8253938,38.7047442 50.5082075,38.6669767 C50.5082075,38.6669767 52.0862366,38.575814 54.9608298,39.408 C54.9608298,39.408 55.9446548,39.7257674 57.3415559,39.6293953 L61.985731,39.4744186 C61.985731,39.4744186 59.9529271,33.3026977 59.7418282,32.4835349 C59.7418282,32.4835349 58.7097893,28.8813023 58.4595981,27.8693953" id="Fill-7" fill="#000000"></path>
            <path d="M10.4911767,52.0827907 C9.91130632,52.5490233 9.07212318,52.8329302 8.10132901,52.8329302 C7.18135494,52.8329302 6.36171799,52.5555349 5.78705997,52.0762791 C5.27104052,51.647814 5,51.0747907 5,50.4132093 C5,49.7581395 5.27755592,49.1903256 5.79357536,48.7618605 C6.37344571,48.2826047 7.19959806,48 8.10132901,48 C9.29364668,48 10.20059,48.3776744 10.7622172,49.0835349 L9.6089919,49.4872558 C9.23631118,49.0965581 8.71377634,48.888186 8.09481361,48.888186 C6.91031442,48.888186 6.09067747,49.5432558 6.09067747,50.4132093 C6.09067747,50.8911628 6.31089789,51.2766512 6.75915721,51.5722791 C7.09926094,51.7988837 7.57879417,51.9447442 8.10132901,51.9447442 C9.02781848,51.9447442 9.77839222,51.5475349 10.0807066,50.9862326 L7.8680778,50.9862326 L7.8680778,50.1045581 L11.3108136,50.1045581 L11.3108136,50.3689302 C11.3108136,51.0617674 11.0332577,51.6413023 10.4911767,52.0827907" id="Fill-9" fill="#EE3123"></path>
            <path d="M21.1026321,48.832186 L20.100564,50.7036279 L22.1047002,50.7036279 L21.1026321,48.832186 Z M23.0950405,52.5620465 L22.5712026,51.580093 L19.6457893,51.580093 L19.1232545,52.5620465 L18,52.5620465 L20.427637,48 L21.7958703,48 L24.2169919,52.5620465 L23.0950405,52.5620465 Z" id="Fill-11" fill="#EE3123"></path>
            <polygon id="Fill-13" fill="#EE3123" points="36.4976921 52.5620465 36.4976921 49.3231628 36.4781459 49.3231628 34.3033063 51.9382326 32.1284668 49.3231628 32.1089206 49.3231628 32.1089206 52.5620465 31 52.5620465 31 48 32.2991702 48 34.3033063 50.4197209 36.3087455 48 37.6079157 48 37.6079157 52.5620465"></polygon>
            <polygon id="Fill-15" fill="#EE3123" points="45 52.5620465 45 48 49.9490956 48 49.9490956 48.8751628 46.1102237 48.8751628 46.1102237 49.8089302 48.7763241 49.8089302 48.7763241 50.684093 46.1102237 50.684093 46.1102237 51.6855814 50.1263144 51.6855814 50.1263144 52.5620465"></polygon>
            <path d="M59.8315916,48.888186 C58.8790405,48.888186 58.3877796,49.0705116 58.3877796,49.3674419 C58.3877796,49.5250233 58.5206937,49.631814 58.7852188,49.6943256 C59.2204473,49.8024186 59.8068331,49.7698605 60.5131021,49.8336744 C61.9438833,49.9652093 62.6306062,50.3129302 62.6306062,51.2076279 C62.6306062,52.196093 61.6976013,52.7821395 59.9645057,52.7821395 C58.8230081,52.7821395 57.8769724,52.5307907 57,51.9252093 L57.6059319,51.1815814 C58.3877796,51.6608372 59.1631118,51.8874419 60.0140227,51.8874419 C60.9352998,51.8874419 61.4513193,51.6230698 61.4513193,51.2506047 C61.4513193,50.848186 60.8597212,50.848186 59.8889271,50.803907 C58.1102237,50.7283721 57.2345543,50.3754419 57.2345543,49.4612093 C57.2345543,48.5665116 58.1297699,48 59.7807715,48 C60.8975105,48 61.7992415,48.2266047 62.4677212,48.668093 L61.8370308,49.3986977 C61.1933096,49.0522791 60.544376,48.888186 59.8315916,48.888186" id="Fill-17" fill="#EE3123"></path>
            <path d="M30,13.1265116 C31.9559222,12.9051163 33.4270989,12 33.4270989,12 C31.7682788,14.8234419 30,13.1265116 30,13.1265116" id="Fill-19" fill="#FEFEFE"></path>
            <path d="M38.0199361,9.72247726 C38.0199361,9.72247726 37.0348081,10.5103842 36.4054207,10.781268 C36.393693,10.7864773 36.361116,10.7864773 36.3480852,10.7682447 C36.246445,10.6236866 35.7942764,9.97512842 35.5714499,9.48284935 C35.5466914,9.43075633 35.524539,9.3786633 35.507599,9.33047726 C35.507599,9.33047726 35.3017124,8.92284935 35.0228534,7.83280284 C35.0228534,7.83280284 34.9889734,8.93196563 35.2482862,9.74331447 C35.2482862,9.74331447 35.4867497,10.5273145 35.8698551,10.9232214 C35.8880982,10.9427563 35.9076444,10.9961517 35.8607335,11.0261052 C35.7108794,11.1211749 35.3160463,11.3621052 34.6853559,11.6368959 C34.6671128,11.6460121 34.6136865,11.6486168 34.5876249,11.6238726 C34.3700106,11.4141982 33.3405779,10.3449889 32.6903413,8.33680284 C32.6877351,8.33029121 32.686432,8.32377958 32.6838259,8.31857028 C32.6838259,8.31857028 32.7711322,9.62740749 33.0343542,10.333268 C33.2793332,10.9870354 33.7301987,11.5952214 33.9869053,11.8179191 C34.0064515,11.8361517 34.0429377,11.8726168 34.0129669,11.893454 C33.9282667,11.9520587 33.6037999,12.1057331 32.3749961,12.4169889 C32.358056,12.4221982 32.3176606,12.4208959 32.3059328,12.4039656 C32.1730187,12.2242447 31.4146265,11.1888959 31.2009215,10.8125238 C31.2009215,10.8125238 30.8986071,10.2850819 30.2314304,8.31857028 C30.2314304,8.31857028 30.551988,11.6381982 31.7000009,12.6123377 C31.7000009,12.6123377 30.717479,13.125454 30.0151192,12.9483377 C30.0151192,12.9483377 29.568163,12.9483377 28.7863153,11.3269424 C28.7863153,11.3269424 27.9810123,9.62350051 26.0042408,7.22461679 C25.9977254,7.21680284 25.9964223,7.19726796 26.0172716,7.189454 C26.171035,7.13084935 26.8564547,6.85605865 27.1496476,6.56173307 C27.1496476,6.56173307 28.40321,4.81531447 29.1368437,4.01698889 C29.1446622,4.00657028 29.1589961,3.98833772 29.1850576,4.01047726 L31.7273656,6.01475633 C31.7273656,6.01475633 31.7716703,6.06294237 31.8068534,6.02126796 C31.8511581,5.97959354 33.1412068,4.85829121 33.1412068,4.85829121 C33.1412068,4.85829121 33.1581468,4.82833772 33.2011484,4.85438423 L34.5928372,5.64750051 C34.5928372,5.64750051 34.6293234,5.66443075 34.6514758,5.63968656 L35.6587562,4.48582609 C35.6587562,4.48582609 35.688727,4.4506633 35.7226071,4.47670982 C35.7525779,4.50405865 37.4791581,5.93531447 37.4791581,5.93531447 C37.4791581,5.93531447 37.4960982,5.97568656 37.4778551,6.00564005 C37.3488502,6.21922144 36.8823478,7.16601214 37.7254401,8.62201214 C37.7254401,8.62201214 38.1919426,9.56229121 38.0199361,9.72247726" id="Fill-21" fill="#FEFEFE"></path>
            <path d="M59.9245705,7.39367442 C59.6157407,6.25283721 58.8873193,5 58.8873193,5 L55.7755656,6.57451163 C54.6523112,9.91237209 52.7354814,9.17525581 51.3477018,9.0984186 C49.9599222,9.0215814 45.3196564,7.23869767 45.3196564,7.23869767 C45.2245316,7.20874419 45.2115008,7.20223256 45.2115008,7.20093023 L41.8886483,7.58511628 C41.8886483,7.58511628 42.4528817,9.91237209 42.2834814,10.8226977 C42.1153841,11.7330233 41.4456013,11.9583256 39.373705,12.3242791 C37.3018088,12.6902326 37.4216921,12.6902326 36.207222,13.4468837 C34.9940551,14.2035349 32.9312804,16.6297674 32.9312804,16.6297674 C32.8491864,16.6584186 31.2203371,16.9722791 31.2203371,16.9722791 C29.5002723,17.2757209 28.7966094,16.8993488 28.7966094,16.8993488 C27.9873971,16.6193488 26.6673776,15.3925581 26.6673776,15.3925581 C26.5852836,15.3443721 26.6087391,15.2818605 26.6087391,15.2818605 C26.9175689,14.635907 27.2694003,13.571907 27.2694003,13.571907 C27.3645251,13.1851163 27.346282,13.0379535 26.4979773,11.6314419 C25.7656467,10.4176744 25.7083112,10.3603721 25.0528622,9.5464186 C24.2423468,8.48632558 21.4772123,6.86883721 21.4772123,6.86883721 C21.4289984,6.84018605 21.4003306,6.84018605 21.4003306,6.84018605 L20.093342,7.98623256 C18.5765575,8.26883721 15.82706,9.65451163 15.82706,9.65451163 C15.2107034,6.95869767 14.1565122,5.13544186 14.1565122,5.13544186 C9.76252836,8.52539535 7.60332577,8.01227907 7.60332577,8.01227907 L7.87306321,11.2355349 C10.9444214,11.0427907 13.03847,9.48911628 13.03847,9.48911628 C12.3061394,10.592186 10.5209206,11.5298605 10.5209206,11.5298605 C11.3040713,13.1864186 11.676752,14.2139535 11.8187877,15.4863256 C11.9595203,16.7573953 10.9574522,21.0589767 10.9574522,21.0589767 C11.201128,21.4965581 11.9855818,25.4517209 11.9855818,25.4517209 C12.332201,27.788093 11.7796953,29.6373953 11.7796953,29.6373953 L11.7666645,28.0706977 L10.9066321,27.9938605 C10.6238639,28.5330233 9.92932253,29.0461395 9.92932253,29.0461395 C9.35075527,29.4576744 7,30.0228837 7,30.0228837 C7.03909238,30.1127442 7.59029498,32.1795349 7.83527391,32.8098605 C8.07894976,33.4388837 9.26084279,35.8794419 9.26084279,35.8794419 C10.4687974,35.1970233 13.7460421,32.5780465 13.7460421,32.5780465 C14.3493679,32.0779535 14.7989303,31.8852093 15.0178476,31.7953488 C15.2354619,31.7054884 15.7371475,31.7185116 16.2258023,31.6273488 C16.713154,31.5374884 18.731624,30.2156279 18.731624,30.2156279 C18.5648298,30.0866977 17.3946645,27.3010233 17.1509887,26.619907 C16.9060097,25.940093 16.5085705,23.1387907 16.5085705,23.1387907 C16.3795656,23.0489302 14.4132188,23.3445581 14.4132188,23.3445581 C16.2518639,21.6111628 19.0143922,21.9836279 19.0143922,21.9836279 C21.1722917,21.9328372 21.7625867,26.1445581 21.7625867,26.1445581 C21.6609465,26.2213953 19.8874554,30.0866977 19.8874554,30.0866977 C19.0143922,31.6273488 19.4509238,33.1953488 19.4509238,33.1953488 C19.5786256,33.399814 20.1962853,36.6491163 20.1962853,36.6491163 C20.3630794,37.0215814 20.6197861,41.2593488 20.6197861,41.2593488 L23.0487261,41.2463256 C27.4427099,38.4476279 27.1338801,38.652093 27.7254781,38.4984186 C28.3157731,38.3447442 30.8098671,39.1274419 30.8098671,39.1274419 L32.9547358,34.015814 L27.6994165,31.872186 L27.6485964,33.5417674 C26.6843177,32.9635349 26.8902042,29.8301395 26.9801167,29.0852093 C27.0700292,28.3402791 27.5717147,24.372093 27.5717147,24.372093 C27.8153906,23.319814 27.2759157,22.6894884 27.2759157,22.6517209 C27.2759157,22.6126512 24.8990989,19.2226977 24.8990989,19.2226977 C21.9332901,22.076093 18.2937893,21.1488372 18.2937893,21.1488372 C23.2793712,21.0459535 25.5532447,17.04 25.5532447,17.04 L27.3006742,17.7979535 C27.313705,17.8865116 26.7872609,19.8009302 26.7872609,19.8009302 C28.3678963,20.4937674 29.1380162,22.4837209 29.1262885,22.4589767 C29.1132577,22.4329302 27.8414522,21.2269767 27.8414522,21.2269767 L27.7124473,22.1268837 C28.085128,22.3834419 28.2519222,22.7025116 28.2519222,22.7025116 C28.8044279,23.2546977 28.5737828,24.5648372 28.5737828,24.5648372 C28.6246029,24.6169302 27.789329,30.6011163 27.789329,30.6011163 L33.2635656,32.9374884 C33.5593647,31.7953488 33.417329,30.1648372 33.186684,29.251907 C32.9547358,28.3402791 31.6581718,24.0894884 31.6581718,24.0894884 C31.0287844,21.8677209 32.0686418,19.0677209 32.0686418,19.0677209 L33.006859,19.2226977 C32.6602399,22.0604651 32.8778541,23.640186 32.8778541,23.640186 C33.5593647,29.3925581 38.930658,32.1925581 38.930658,32.1925581 C43.3246418,29.6751628 45.8044019,26.440186 45.8044019,26.440186 C45.9842269,28.1475349 45.2662301,37.4826047 45.2662301,37.4826047 C45.9985608,37.6037209 46.9289595,37.6506047 46.9289595,37.6506047 C47.1074814,37.6453953 50.0459254,36.4602791 50.0459254,36.4602791 C50.1384441,36.408186 50.2049011,36.4420465 50.2049011,36.4420465 L55.2504246,37.2364651 C55.4719481,37.259907 58.5576402,37.2325581 58.5576402,37.2325581 C57.4200519,32.3175814 57.2636823,29.1789767 57.2636823,29.1789767 L52.6625089,23.6466977 L52.663812,23.6584186 C52.8397277,25.3735814 53.0625543,25.940093 53.1524668,26.108093 C51.3203371,23.312 52.2754943,20.9365581 52.6625089,19.7306047 C53.0521297,18.5181395 54.6718574,15.6855814 54.6718574,15.6855814 C54.4750924,12.6277209 53.8769789,11.3188837 53.8769789,11.3188837 C54.5519741,11.6692093 54.7591637,12.959814 54.7591637,12.959814 C56.7867553,11.4191628 60.0874554,11.776 60.0874554,11.776 C60.1552156,9.29116279 59.9245705,7.39367442 59.9245705,7.39367442 M20.389141,17.9255814 C20.389141,17.9255814 20.7839741,16.9631628 20.6497569,16.5151628 C20.6406353,16.4891163 20.6315138,16.4643721 20.6197861,16.4422326 C20.6197861,16.4422326 18.0944182,18.9843721 14.7415948,16.7886512 C14.7415948,16.7886512 15.3579514,17.0973023 15.9560648,17.0973023 L15.975611,13.5341395 C15.975611,13.5341395 15.4543793,13.7073488 14.432765,14.747907 C14.432765,14.747907 15.3957407,12.4545116 19.2320065,11.1834419 C19.2320065,11.1834419 21.2165964,12.5313488 22.2577569,12.9650233 C22.2577569,12.9650233 22.0271118,16.6922791 20.389141,17.9255814 M39.1899708,24.3499535 C36.9343404,24.1220465 36.33753,21.9133023 36.33753,21.9133023 C36.2319806,22.7025116 36.7336661,23.3575814 36.7336661,23.3575814 C35.8267229,22.7506977 35.894483,21.9510698 35.894483,21.9510698 C35.7785089,22.9916279 36.5694781,24.0894884 36.5694781,24.0894884 C35.3458865,23.1843721 35.4501329,21.8260465 35.4501329,21.8260465 C35.4709822,20.0340465 35.5191961,19.3711628 36.7232415,17.8969302 C37.9272869,16.4226977 38.6127066,16.3745116 39.4401621,16.2104186 C40.2702237,16.0476279 41.3491734,16.2690233 41.3491734,16.2690233 C43.6334716,16.5672558 44.0947618,17.8969302 44.0947618,17.8969302 C43.3155203,17.376 42.3316953,17.1546047 42.3316953,17.1546047 C45.6115462,20.6213953 41.9629238,24.6286512 39.1899708,24.3499535 M49.1741653,14.303814 C49.1741653,14.303814 49.086859,16.4995349 49.0686159,16.76 C49.0477666,17.0204651 49.0777374,17.8773953 48.9135494,18.4256744 C48.9135494,18.4256744 47.2364862,22.9434419 46.4272739,23.4826047 L46.0220162,20.4872558 L44.9821588,22.6061395 C44.9821588,22.6061395 45.1359222,20.9873488 45.5411799,20.4104186 C45.5411799,20.4104186 46.9967196,17.5114419 47.0253874,17.2132093 C47.0253874,17.2132093 47.3433387,16.5776744 47.102269,16.4226977 C47.102269,16.4226977 44.1820681,13.5237209 40.8474878,13.0900465 L47.921906,12.7826977 C47.921906,12.7826977 50.8603501,14.8716279 51.1118444,15.0852093 C51.1118444,15.0852093 50.070684,14.9302326 49.1741653,14.303814" id="Fill-23" fill="#EE3123"></path>
        </g>
    </g>
</svg>