<?xml version="1.0" encoding="UTF-8"?>
<svg width="96px" height="100px" viewBox="0 0 96 100" version="1.1" xmlns="http://www.w3.org/2000/svg" xmlns:xlink="http://www.w3.org/1999/xlink">
    <!-- Generator: Sketch 43.2 (39069) - http://www.bohemiancoding.com/sketch -->
    <title>Group 46</title>
    <desc>Created with Sketch.</desc>
    <defs></defs>
    <g id="Page-1" stroke="none" stroke-width="1" fill="none" fill-rule="evenodd">
        <g id="Group-46" transform="translate(-2.000000, 0.000000)">
            <polygon id="Fill-1" fill="#CB2026" points="5.10170857 25.183 5.10170857 74.618 50.7585919 99.3555 96.4154752 74.618 96.4154752 25.183 50.7585919 0.4455"></polygon>
            <polygon id="Fill-2" fill="#FEFEFE" points="52.0395853 49.88125 52.0395853 97.80625 96.2053794 72.98875 94.4966718 27.12875"></polygon>
            <path d="M50.5017484,50.4775 L50.7166802,98.2425 L95.0060601,74.34 L95.1350192,25.74 L50.5017484,50.4775 Z M57.8846551,54.4475 L87.5828537,38.0075 L87.5398674,70.33 L80.116661,74.38 L80.116661,50.24 L72.6907681,54.3275 L72.7364411,78.39 L58.0109275,86.3725 L57.8846551,54.4475 Z" id="Fill-3" fill="#CB2026"></path>
            <path d="M55.7939062,94.62975 C53.746681,95.70225 52.123946,94.82725 52.123946,92.64475 L52.123946,54.80475 C52.123946,52.61975 53.7896673,49.95975 55.7939062,48.88725 L90.9540587,30.10725 C93.0039706,29.03475 94.6240189,29.90975 94.6240189,32.09225 L94.6240189,69.93225 C94.6240189,72.11725 92.9609842,74.77725 90.9540587,75.84975 L55.7939062,94.62975 Z M5.31449103,31.49725 C5.31449103,29.31225 6.97752568,28.43975 8.98445117,29.51225 L45.2112027,48.88725 C47.2584279,49.95975 48.8811628,52.65975 48.8811628,54.80475 L48.8811628,93.23975 C48.8811628,95.42475 47.2181282,96.29725 45.2112027,95.22475 L8.98445117,75.84975 C6.93722597,74.77725 5.31449103,72.07725 5.31449103,69.93225 L5.31449103,31.49725 Z M89.5462556,23.43725 C91.5934808,24.50975 91.5934808,26.29475 89.5462556,27.36725 L54.1308715,46.30725 C52.0809597,47.37975 48.7951901,47.37975 46.7479649,46.30725 L10.8194312,27.08975 C8.76951939,26.01725 8.76951939,24.22975 10.8194312,23.15975 L46.2348153,4.21975 C48.2847271,3.14725 51.5704967,3.14725 53.6177219,4.21975 L89.5462556,23.43725 Z M53.6607083,0.80475 C51.6134831,-0.26775 48.3277135,-0.26775 46.2778016,0.80475 L5.82764066,22.44475 C3.77772881,23.51475 2.15768052,26.21725 2.15768052,28.35975 L2.15768052,71.63975 C2.15768052,73.82475 3.82071516,76.48475 5.82764066,77.55725 L46.2778016,99.19475 C48.3277135,100.26725 51.6134831,100.26725 53.6607083,99.19475 L94.1108692,77.55725 C96.1607811,76.48475 97.7808294,73.78475 97.7808294,71.63975 L97.7808294,28.35975 C97.7808294,26.17725 96.1177947,23.51475 94.1108692,22.44475 L53.6607083,0.80475 Z" id="Fill-4" fill="#90191B"></path>
        </g>
    </g>
</svg>