<?xml version="1.0" encoding="UTF-8"?>
<svg width="49px" height="47px" viewBox="0 0 49 47" version="1.1" xmlns="http://www.w3.org/2000/svg" xmlns:xlink="http://www.w3.org/1999/xlink">
    <!-- Generator: Sketch 43.2 (39069) - http://www.bohemiancoding.com/sketch -->
    <title>Group 40</title>
    <desc>Created with Sketch.</desc>
    <defs>
        <polygon id="path-1" points="48.1351757 0 0.656315683 0 0.656315683 46.999765 48.1351757 46.999765 48.1351757 0"></polygon>
    </defs>
    <g id="Design-1" stroke="none" stroke-width="1" fill="none" fill-rule="evenodd">
        <g id="Group-40" transform="translate(-1.000000, 0.000000)">
            <g id="Group-30" transform="translate(0.984823, 0.000000)">
                <mask id="mask-2" fill="white">
                    <use xlink:href="#path-1"></use>
                </mask>
                <g id="Clip-29"></g>
                <path d="M48.1351757,24.61719 C48.1351757,20.649215 45.6550779,17.220565 41.9727592,15.871665 C42.1276175,15.02449 42.2056378,14.21609 42.2056378,13.328965 C42.2056378,5.971115 36.1980796,-0.000235 28.794432,-0.000235 C24.4926799,-0.000235 20.4616344,2.041915 17.9425265,5.54694 C16.7024776,4.584615 15.19054,4.084065 13.6017642,4.084065 C9.68656695,4.084065 6.4700054,7.242465 6.4700054,11.171665 C6.4700054,12.020015 6.62486374,12.86719 6.89675245,13.63799 C3.17542361,14.90934 0.656315683,18.45314 0.656315683,22.38234 C0.656315683,26.350315 3.13641349,29.81774 6.85774233,31.16664 C6.70288398,31.97504 6.62486374,32.82339 6.62486374,33.70934 C6.62486374,41.028415 12.6324219,46.999765 19.9970594,46.999765 C24.3378216,46.999765 28.329857,44.920015 30.8489649,41.45259 C32.0890138,42.41609 33.6399616,42.955415 35.2287373,42.955415 C39.1427524,42.955415 42.3604961,39.79584 42.3604961,35.86664 C42.3604961,35.01829 42.2056378,34.171115 41.9337491,33.400315 C45.5770577,32.091365 48.1351757,28.54639 48.1351757,24.61719" id="Fill-28" fill="#FEFEFE" mask="url(#mask-2)"></path>
            </g>
            <path d="M20.2064084,20.1868525 L30.7876074,25.0020025 L41.4846546,15.6795525 C41.639513,14.9087525 41.7175332,14.1379525 41.7175332,13.3295525 C41.7175332,6.7801025 36.3684185,1.4644025 29.779255,1.4644025 C25.8262297,1.4644025 22.143911,3.3902275 19.9357019,6.6261775 L18.1518755,15.7947025 L20.2064084,20.1868525 Z" id="Fill-31" fill="#F2BC19"></path>
            <path d="M9.23782715,31.3204475 C9.0829688,32.0912475 9.00494857,32.8996475 9.00494857,33.7092225 C9.00494857,40.2586725 14.3930734,45.6131475 20.9810548,45.6131475 C24.9730902,45.6131475 28.6554089,43.6485475 30.9038103,40.4125975 L32.6474444,31.2428975 L30.2831948,26.7743725 L19.6641678,21.9592225 L9.23782715,31.3204475 Z" id="Fill-33" fill="#3FBEB1"></path>
            <path d="M9.16027976,13.0983125 L16.4078868,14.7938375 L18.0356727,6.5876375 C17.0285024,5.8168375 15.8262815,5.4314375 14.5472224,5.4314375 C11.4086811,5.4314375 8.81155295,7.9741375 8.81155295,11.1337125 C8.81155295,11.7881875 8.92740118,12.4814375 9.16027976,13.0983125" id="Fill-35" fill="#E8488C"></path>
            <path d="M8.5401371,14.832025 C5.28456543,15.8719 3.03616408,18.9927 3.03616408,22.382575 C3.03616408,25.696075 5.09069696,28.661775 8.19141029,29.817975 L18.3848723,20.64945 L16.5242079,16.681475 L8.5401371,14.832025 Z" id="Fill-37" fill="#2B458E"></path>
            <path d="M32.7640019,40.3738225 C33.7711722,41.1446225 34.9733931,41.5676225 36.213442,41.5676225 C39.3531654,41.5676225 41.9491115,39.0249225 41.9491115,35.8665225 C41.9491115,35.1732725 41.8332632,34.5176225 41.6003847,33.9019225 L34.3527776,32.2063975 L32.7640019,40.3738225 Z" id="Fill-39" fill="#95C53E"></path>
            <path d="M34.2369293,30.3188775 L42.2210002,32.1683275 C45.4765718,31.0896775 47.7249732,28.0076525 47.7249732,24.6177775 C47.7249732,21.3042775 45.6704403,18.3761775 42.569727,17.1823775 L32.1055583,26.2733525 L34.2369293,30.3188775 Z" id="Fill-41" fill="#1A6655"></path>
        </g>
    </g>
</svg>