<?xml version="1.0" encoding="UTF-8"?>
<svg width="44px" height="47px" viewBox="0 0 44 47" version="1.1" xmlns="http://www.w3.org/2000/svg" xmlns:xlink="http://www.w3.org/1999/xlink">
    <!-- Generator: Sketch 43.2 (39069) - http://www.bohemiancoding.com/sketch -->
    <title>Group 46</title>
    <desc>Created with Sketch.</desc>
    <defs></defs>
    <g id="Design-1" stroke="none" stroke-width="1" fill="none" fill-rule="evenodd">
        <g id="Group-46">
            <polygon id="Fill-1" fill="#CB2026" points="2.24475177 11.83601 2.24475177 35.07046 22.3337804 46.697085 42.4228091 35.07046 42.4228091 11.83601 22.3337804 0.209385"></polygon>
            <polygon id="Fill-2" fill="#FEFEFE" points="22.8974175 23.4441875 22.8974175 45.9689375 42.3303669 34.3047125 41.5785356 12.7505125"></polygon>
            <path d="M22.2207693,23.724425 L22.3153393,46.173975 L41.8026664,34.9398 L41.8594084,12.0978 L22.2207693,23.724425 Z M25.4692482,25.590325 L38.5364556,17.863525 L38.5175417,33.0551 L35.2513309,34.9586 L35.2513309,23.6128 L31.9839379,25.533925 L32.0040341,36.8433 L25.5248081,40.595075 L25.4692482,25.590325 Z" id="Fill-3" fill="#CB2026"></path>
            <path d="M24.5493187,44.4759825 C23.6485396,44.9800575 22.9345363,44.5688075 22.9345363,43.5430325 L22.9345363,25.7582325 C22.9345363,24.7312825 23.6674536,23.4810825 24.5493187,22.9770075 L40.0197858,14.1504075 C40.921747,13.6463325 41.6345683,14.0575825 41.6345683,15.0833575 L41.6345683,32.8681575 C41.6345683,33.8951075 40.9028331,35.1453075 40.0197858,35.6493825 L24.5493187,44.4759825 Z M2.33837605,14.8037075 C2.33837605,13.7767575 3.0701113,13.3666825 3.95315852,13.8707575 L19.8929292,22.9770075 C20.7937083,23.4810825 21.5077116,24.7500825 21.5077116,25.7582325 L21.5077116,43.8226825 C21.5077116,44.8496325 20.7759764,45.2597075 19.8929292,44.7556325 L3.95315852,35.6493825 C3.05237943,35.1453075 2.33837605,33.8763075 2.33837605,32.8681575 L2.33837605,14.8037075 Z M39.4003524,11.0155075 C40.3011315,11.5195825 40.3011315,12.3585325 39.4003524,12.8626075 L23.8175835,21.7644075 C22.9156223,22.2684825 21.4698836,22.2684825 20.5691046,21.7644075 L4.76054975,12.7321825 C3.85858853,12.2281075 3.85858853,11.3879825 4.76054975,10.8850825 L20.3433187,1.9832825 C21.2452799,1.4792075 22.6910185,1.4792075 23.5917976,1.9832825 L39.4003524,11.0155075 Z M23.6107116,0.3782325 C22.7099325,-0.1258425 21.2641939,-0.1258425 20.3622327,0.3782325 L2.56416189,10.5490325 C1.66220067,11.0519325 0.949379427,12.3221075 0.949379427,13.3290825 L0.949379427,33.6706825 C0.949379427,34.6976325 1.68111467,35.9478325 2.56416189,36.4519075 L20.3622327,46.6215325 C21.2641939,47.1256075 22.7099325,47.1256075 23.6107116,46.6215325 L41.4087825,36.4519075 C42.3107437,35.9478325 43.0235649,34.6788325 43.0235649,33.6706825 L43.0235649,13.3290825 C43.0235649,12.3033075 42.2918297,11.0519325 41.4087825,10.5490325 L23.6107116,0.3782325 Z" id="Fill-4" fill="#90191B"></path>
        </g>
    </g>
</svg>