<?xml version="1.0" encoding="UTF-8"?>
<svg width="49px" height="47px" viewBox="0 0 49 47" version="1.1" xmlns="http://www.w3.org/2000/svg" xmlns:xlink="http://www.w3.org/1999/xlink">
    <!-- Generator: Sketch 43.2 (39069) - http://www.bohemiancoding.com/sketch -->
    <title>Group 34</title>
    <desc>Created with Sketch.</desc>
    <defs></defs>
    <g id="Design-1" stroke="none" stroke-width="1" fill="none" fill-rule="evenodd">
        <g id="Group-34">
            <path d="M11.4610497,0 L37.6522066,0 C38.9265371,0 40.1642218,0.2021 41.3652605,0.623925 C43.1018019,1.24785 44.6716636,2.35 45.8537884,3.782325 C47.053645,5.213475 47.8480329,6.975975 48.1258322,8.8125 C48.2357698,9.49165 48.2546838,10.1708 48.2546838,10.84995 L48.2546838,34.4604 L48.2546838,36.2417 C48.2546838,37.048925 48.2180379,37.87495 48.0513583,38.66455 C47.6825354,40.482275 46.8136737,42.18955 45.5582572,43.56665 C44.3205725,44.94375 42.6951509,45.971875 40.9408777,46.52295 C39.8686906,46.853125 38.7610396,47 37.6344747,47 C37.135618,47 11.387758,47 10.998839,46.9812 C9.11571417,46.88955 7.25032125,46.284425 5.6792774,45.2375 C4.14724368,44.209375 2.89064503,42.77705 2.0785253,41.125 C1.37634317,39.711475 1.02525211,38.132275 1.02525211,36.553075 L1.02525211,10.446925 C0.988606239,8.88535 1.32078331,7.34375 2.00405143,5.94785 C2.79843929,4.2958 4.03612395,2.84585 5.5693398,1.817725 C7.13920152,0.753175 8.98568044,0.128075 10.8699874,0.036425 C11.0543988,0 11.2577243,0 11.4610497,0" id="Fill-43" fill="#F7931D"></path>
            <path d="M40.8478445,38.4968775 C40.6811649,38.2395525 40.4967535,37.9834025 40.293428,37.7437025 C39.8323993,37.1938025 39.2968968,36.7155775 38.7058344,36.3125525 C37.9658243,35.8167025 37.0981447,35.5041525 36.2115511,35.4677275 C35.5838428,35.4313025 34.9561346,35.5405775 34.3650722,35.7614775 C33.7740098,35.9635775 33.2006793,36.2573275 32.6474449,36.5510775 C32.0008226,36.8812525 31.3542003,37.2114275 30.6709322,37.4875525 C29.8576304,37.8177275 29.0076826,38.0750525 28.140003,38.2583525 C27.050084,38.4604525 25.9424331,38.5333025 24.852514,38.5156775 C22.8760013,38.4780775 20.8994887,38.1843275 19.0151818,37.6344275 C17.3531143,37.1385775 15.7643386,36.4594275 14.2689508,35.5958025 C12.9567922,34.8438025 11.7380216,33.9801775 10.5925427,33.0072775 C9.65038921,32.2000525 8.78270961,31.3364275 7.97058988,30.4187525 C7.41617336,29.7760275 6.88067083,29.0968775 6.38181417,28.3989275 C6.1784887,28.1239775 5.99407723,27.8302275 5.82739764,27.5364775 L0.951132884,22.3042025 L0.951132884,10.4625525 C0.951132884,4.7156275 5.62407218,0.0520525 11.4058445,0.0520525 L20.7328091,0.0520525 L27.6411464,7.0292025 C43.2310081,17.5677775 38.1880637,29.1885275 38.1880637,29.1885275 C38.1880637,29.1885275 42.6210317,34.1458525 40.8478445,38.4968775" id="Fill-45" fill="#F05A28"></path>
            <path d="M27.6782651,3.5420375 C43.2681268,14.0806125 38.2251825,25.7013625 38.2251825,25.7013625 C38.2251825,25.7013625 42.6581504,30.6774875 40.8660492,35.0285125 C40.8660492,35.0285125 39.0373022,31.9805625 35.9720526,31.9805625 C33.0167406,31.9805625 31.2801993,35.0285125 25.3329295,35.0285125 C12.0884034,35.0285125 5.82787049,24.0305125 5.82787049,24.0305125 C17.759056,31.8336875 25.9050779,26.3076625 25.9050779,26.3076625 C20.5299565,23.2044875 9.09644553,8.3701125 9.09644553,8.3701125 C19.0523005,16.7972125 23.3564169,19.0191375 23.3564169,19.0191375 C20.7888418,16.9076625 13.5849734,6.5899875 13.5849734,6.5899875 C19.3478317,12.3909625 30.8002567,20.4878875 30.8002567,20.4878875 C34.0510998,11.5285125 27.6782651,3.5420375 27.6782651,3.5420375" id="Fill-47" fill="#FEFEFE"></path>
        </g>
    </g>
</svg>