<?xml version="1.0" encoding="UTF-8"?>
<svg width="202px" height="41px" viewBox="0 0 202 41" version="1.1" xmlns="http://www.w3.org/2000/svg" xmlns:xlink="http://www.w3.org/1999/xlink">
    <!-- Generator: Sketch 44.1 (41455) - http://www.bohemiancoding.com/sketch -->
    <title>Group</title>
    <desc>Created with Sketch.</desc>
    <defs>
        <polygon id="path-1" points="0.308852632 14.1176471 11.4072947 14.1176471 11.4072947 0.663058824 0.308852632 0.663058824"></polygon>
        <polygon id="path-3" points="0 14.1176471 147.277916 14.1176471 147.277916 0.476862745 0 0.476862745"></polygon>
    </defs>
    <g id="Page-1" stroke="none" stroke-width="1" fill="none" fill-rule="evenodd">
        <g id="Group">
            <g id="Page-1">
                <polygon id="Fill-1" fill="#E14E3A" points="21.3402857 0.000154716981 16.302375 15.6203811 0 15.6203811 3.58704464 18.2459283 15.4558125 18.2459283 15.1809196 19.0988057 4.75188393 19.0988057 8.35966071 21.7390509 14.3289821 21.7390509 14.0540893 22.5919283 9.52488393 22.5919283 13.1890982 25.274334 8.1511875 40.8945604 21.3402857 31.2406075 34.529 40.8945604 29.4914732 25.274334 33.1556875 22.5919283 28.6264821 22.5919283 28.3512054 21.7390509 34.3209107 21.7390509 37.9283036 19.0988057 27.4996518 19.0988057 27.2247589 18.2459283 39.0935268 18.2459283 42.6805714 15.6203811 26.3778125 15.6203811"></polygon>
                <path d="M18.9291375,25.459917 L21.3402089,17.9839925 L23.7512804,25.459917 L18.9291375,25.459917 Z M28.8199054,32.9590491 L21.3402089,9.81029434 L13.8608964,32.9590491 L17.3293071,30.4201434 L18.1144411,27.9856717 L24.5659768,27.9856717 L25.3511107,30.4201434 L28.8199054,32.9590491 Z" id="Fill-2" fill="#FBF9E4"></path>
            </g>
            <g id="Page-1" transform="translate(54.000000, 14.000000)">
                <path d="M5.17797474,0.784235294 L0.000311578947,14.2383529 L2.33793263,14.2383529 L2.89565895,12.7246275 L7.46029053,12.7246275 L8.03593263,14.2383529 L10.3743326,14.2383529 L5.17797474,0.784235294 Z M5.17797474,6.29717647 L6.75534316,10.8375686 L3.60060632,10.8375686 L5.17797474,6.29717647 Z" id="Fill-1" fill="#FBF9E4"></path>
                <g id="Group-15" transform="translate(0.000000, 0.307765)">
                    <g id="Group-4" transform="translate(14.800000, 0.000000)">
                        <mask id="mask-2" fill="white">
                            <use xlink:href="#path-1"></use>
                        </mask>
                        <g id="Clip-3"></g>
                        <path d="M9.88523158,10.6607059 L11.4072947,12.2112941 C10.2380947,13.388549 8.62333684,14.1179608 6.82318947,14.1179608 C3.24158947,14.1179608 0.308852632,11.5014902 0.308852632,7.39090196 C0.308852632,3.44737255 3.01881053,0.663058824 6.82318947,0.663058824 C8.62333684,0.663058824 10.2380947,1.39247059 11.4072947,2.58776471 L9.88523158,4.12031373 C9.10550526,3.33521569 8.01108421,2.84972549 6.82318947,2.84972549 C4.15062105,2.84972549 2.51716842,4.75560784 2.51716842,7.39090196 C2.51716842,10.1932549 4.42870526,11.9312941 6.82318947,11.9312941 C8.01108421,11.9312941 9.10550526,11.4458039 9.88523158,10.6607059" id="Fill-2" fill="#FBF9E4" mask="url(#mask-2)"></path>
                    </g>
                    <polygon id="Fill-5" fill="#FBF9E4" points="38.6623516 2.84964706 35.9344779 2.84964706 35.9344779 13.9304314 33.7814674 13.9304314 33.7814674 2.84964706 31.0535937 2.84964706 31.0535937 0.850431373 38.6623516 0.850431373"></polygon>
                    <mask id="mask-4" fill="white">
                        <use xlink:href="#path-3"></use>
                    </mask>
                    <g id="Clip-8"></g>
                    <polygon id="Fill-7" fill="#FBF9E4" mask="url(#mask-4)" points="44.2325263 13.9309804 46.4042316 13.9309804 46.4042316 0.850196078 44.2325263 0.850196078"></polygon>
                    <path d="M58.9878147,2.81239216 C53.3832884,2.81239216 53.3645937,11.9872941 58.9878147,11.9872941 C64.6110358,11.9872941 64.6110358,2.81239216 58.9878147,2.81239216 M58.9878147,14.0986667 C50.4139411,14.0986667 50.4318568,0.682196078 58.9878147,0.682196078 C67.5063832,0.682196078 67.5242989,14.0986667 58.9878147,14.0986667" id="Fill-9" fill="#FBF9E4" mask="url(#mask-4)"></path>
                    <polygon id="Fill-10" fill="#FBF9E4" mask="url(#mask-4)" points="82.4118526 13.9308235 80.2222316 13.9308235 73.7632 4.62494118 73.7632 13.9308235 71.5922737 13.9308235 71.5922737 0.850039216 73.7818947 0.850039216 80.2588421 10.1559216 80.2588421 0.850039216 82.4118526 0.850039216"></polygon>
                    <polygon id="Fill-11" fill="#FBF9E4" mask="url(#mask-4)" points="98.8576126 0.850196078 98.8576126 13.9309804 96.6859074 13.9309804 96.6859074 8.4745098 91.2854653 8.4745098 91.2854653 13.9309804 89.1145389 13.9309804 89.1145389 0.850196078 91.2854653 0.850196078 91.2854653 6.26901961 96.6859074 6.26901961 96.6859074 0.850196078"></polygon>
                    <polygon id="Fill-12" fill="#FBF9E4" mask="url(#mask-4)" points="107.694225 3.03647059 107.694225 6.30705882 113.094667 6.30705882 113.094667 8.47411765 107.694225 8.47411765 107.694225 11.7447059 114.189867 11.7447059 114.189867 13.9305882 105.52252 13.9305882 105.52252 0.849803922 114.189867 0.849803922 114.189867 3.03647059"></polygon>
                    <path d="M122.302137,6.30682353 L124.455147,6.30682353 C124.455147,6.30682353 126.626074,6.30682353 126.626074,4.66211765 C126.626074,3.03623529 124.455147,3.03623529 124.455147,3.03623529 L122.302137,3.03623529 L122.302137,6.30682353 Z M124.065674,8.47466667 L122.302137,8.47466667 L122.302137,13.9311373 L120.130432,13.9311373 L120.130432,0.850352941 L124.455147,0.850352941 C124.455147,0.850352941 128.797779,0.850352941 128.797779,4.66211765 C128.797779,6.77427451 127.461105,7.70839216 126.292684,8.13819608 L128.945779,13.9311373 L126.552074,13.9311373 L124.065674,8.47466667 Z" id="Fill-13" fill="#FBF9E4" mask="url(#mask-4)"></path>
                    <path d="M140.882135,2.81239216 C135.277608,2.81239216 135.258914,11.9872941 140.882135,11.9872941 C146.505356,11.9872941 146.505356,2.81239216 140.882135,2.81239216 M140.882135,14.0986667 C132.308261,14.0986667 132.326177,0.682196078 140.882135,0.682196078 C149.400703,0.682196078 149.418619,14.0986667 140.882135,14.0986667" id="Fill-14" fill="#FBF9E4" mask="url(#mask-4)"></path>
                </g>
            </g>
        </g>
    </g>
</svg>