<?xml version="1.0" encoding="UTF-8"?>
<svg width="95px" height="90px" viewBox="0 0 95 90" version="1.1" xmlns="http://www.w3.org/2000/svg" xmlns:xlink="http://www.w3.org/1999/xlink">
    <!-- Generator: Sketch 43.2 (39069) - http://www.bohemiancoding.com/sketch -->
    <title>Group 5</title>
    <desc>Created with Sketch.</desc>
    <defs></defs>
    <g id="Design-1" stroke="none" stroke-width="1" fill="none" fill-rule="evenodd">
        <g id="Page-1" transform="translate(-93.000000, -1.000000)">
            <g id="Group-5" transform="translate(93.000000, 1.000000)">
                <polygon id="Fill-1" fill="#E14E3A" points="47.7213 0.0005 36.6153 34.1815 0.6743 34.1815 8.5823 39.9265 34.7483 39.9265 34.1423 41.7925 11.1503 41.7925 19.1043 47.5705 32.2643 47.5705 31.6583 49.4365 21.6723 49.4365 29.7513 55.3065 18.6453 89.4875 47.7213 68.3625 76.7973 89.4875 65.6913 55.3065 73.7703 49.4365 63.7843 49.4365 63.1783 47.5705 76.3383 47.5705 84.2923 41.7925 61.3003 41.7925 60.6943 39.9265 86.8603 39.9265 94.7683 34.1815 58.8273 34.1815"></polygon>
                <path d="M42.4059,55.7128 L47.7219,39.3538 L53.0369,55.7128 L42.4059,55.7128 Z M64.2109,72.1228 L47.7219,21.4668 L31.2319,72.1228 L38.8789,66.5668 L40.6099,61.2398 L54.8329,61.2398 L56.5639,66.5668 L64.2109,72.1228 Z" id="Fill-2" fill="#FBF9E4"></path>
            </g>
        </g>
    </g>
</svg>