<?xml version="1.0" encoding="UTF-8"?>
<svg width="210px" height="163px" viewBox="0 0 210 163" version="1.1" xmlns="http://www.w3.org/2000/svg" xmlns:xlink="http://www.w3.org/1999/xlink">
    <!-- Generator: Sketch 43.2 (39069) - http://www.bohemiancoding.com/sketch -->
    <title>Page 1</title>
    <desc>Created with Sketch.</desc>
    <defs>
        <polygon id="path-1" points="0 0.608753389 0 89.6322716 88.1173593 89.6322716 88.1173593 0.608753389 5.6971015e-21 0.608753389"></polygon>
        <polygon id="path-3" points="2.36080855 2.67187817 2.36080855 0.445454819 0.133319449 0.445454819 0.133319449 2.67187817 2.36080855 2.67187817"></polygon>
    </defs>
    <g id="Get-Started" stroke="none" stroke-width="1" fill="none" fill-rule="evenodd">
        <g id="Page-1">
            <path d="M151.274357,91.764883 C150.731236,91.764883 150.289005,91.3271356 150.284801,90.7835222 C150.279757,90.2365479 150.719466,89.7903985 151.26679,89.7861974 C160.340097,89.7156201 167.895861,83.1426871 169.230963,74.1575222 C169.795102,70.3597902 169.168748,66.5477747 167.41916,63.1331768 L166.929006,62.1770222 L167.922765,61.7678418 C172.543493,59.8622541 175.869476,55.6150119 176.602604,50.6821613 C177.757786,42.9094139 172.3703,35.6466716 164.592579,34.4913881 C161.509572,34.034316 158.434972,34.5754088 155.701714,36.0583727 L154.722247,36.5902232 L154.309442,35.5559294 C151.688844,28.9880376 145.722926,24.2643985 138.738867,23.227584 C137.595455,23.0578624 136.409166,22.9881253 135.220354,23.0234139 L134.426692,23.0460995 L134.23248,22.2764706 C132.624978,15.9177902 127.39303,11.185749 120.902488,10.2220325 C112.06627,8.91215103 103.811007,15.0263314 102.498606,23.8568985 L102.348113,25.0239448 L101.42918,24.9710119 C88.0235203,24.1913005 76.4078042,33.6410995 74.4312155,46.9382026 C73.8578283,50.794749 74.1478849,54.6244088 75.2921372,58.3221562 C75.4527192,58.8439242 75.1609811,59.3976201 74.6380385,59.5589397 C74.1167773,59.7210995 73.5618864,59.4295479 73.4004636,58.9060995 C72.1679332,54.9235222 71.8560173,50.7997902 72.4731232,46.6474912 C74.5564863,32.6303314 86.5766003,22.5923881 100.641403,22.9578778 C102.396876,13.3761665 111.487839,6.82003763 121.193385,8.26519227 C128.216958,9.30788814 133.928131,14.2835892 135.944235,21.0363263 C136.987598,21.0422077 138.022553,21.1203469 139.029764,21.2707438 C146.353483,22.3579706 152.659062,27.1320222 155.725254,33.8343469 C158.587987,32.5152232 161.730687,32.0648727 164.883476,32.5345479 C173.740712,33.8494706 179.877301,42.1213005 178.560696,50.9728727 C177.777123,56.2443263 174.39397,60.8293314 169.631157,63.1667851 C171.224366,66.7048933 171.763283,70.5841253 171.189055,74.4482335 C169.709346,84.4038366 161.337219,91.6867438 151.281924,91.764883 L151.274357,91.764883" id="Fill-1" fill="#2F5266"></path>
            <path d="M65.4762012,28.1443026 C64.7640912,28.1443026 64.0729999,28.3711582 63.4903644,28.8030242 C62.7723692,29.3348747 62.3040749,30.1145861 62.1729189,30.9976428 C61.9021994,32.8225706 63.1658373,34.527349 64.9919328,34.7987356 C65.8763953,34.9298077 66.7583355,34.7088335 67.4771714,34.176983 C68.1951666,33.6451325 68.6634609,32.8654211 68.794617,31.9815242 C68.925773,31.0976273 68.7046574,30.2154108 68.1724666,29.4978747 C67.6402757,28.7803387 66.8600655,28.3123438 65.975603,28.1812716 C65.8091358,28.1569057 65.6418278,28.1443026 65.4762012,28.1443026 M65.4946976,36.8143902 C65.2315448,36.8143902 64.9667105,36.7950655 64.7010355,36.7555758 C61.7954249,36.32455 59.7835251,33.6115242 60.2148266,30.7077716 C60.4233311,29.3004263 61.1682301,28.0594418 62.3108009,27.2133541 C63.4550532,26.3664263 64.8607768,26.0169005 66.2665004,26.2244314 C67.6739055,26.4328026 68.9156841,27.1772253 69.7631538,28.3190655 C70.6106235,29.4617459 70.9620544,30.8657304 70.7527092,32.2722356 C70.543364,33.6787407 69.7993058,34.9197253 68.6558942,35.7666531 C67.7285538,36.4539418 66.628861,36.8143902 65.4946976,36.8143902" id="Fill-3" fill="#2F5266"></path>
            <path d="M170.11223,89.7890541 C168.866248,89.7890541 167.7716,90.7023582 167.583273,91.9702294 C167.483224,92.6457552 167.651373,93.3204407 168.058293,93.8690954 C168.466054,94.41775 169.062141,94.7748376 169.738099,94.8756624 C170.413217,94.9748067 171.088334,94.8076057 171.637339,94.4001057 C172.186345,93.9934459 172.544502,93.3968995 172.644551,92.7222139 C172.744599,92.0466881 172.57645,91.3720026 172.16953,90.8233479 C171.76177,90.2746933 171.165682,89.9176057 170.489724,89.8167809 C170.362772,89.7982964 170.23666,89.7890541 170.11223,89.7890541 M170.124001,96.8829149 C169.899522,96.8829149 169.673362,96.8661108 169.446361,96.8325026 C168.248301,96.6543789 167.189805,96.0208634 166.468447,95.0470644 C165.746248,94.0741057 165.446102,92.8776521 165.625181,91.679518 C165.991745,89.205951 168.307994,87.4877294 170.780622,87.8599407 L170.780622,87.8599407 C173.256612,88.227951 174.970889,90.5393582 174.602643,93.0129253 C174.425246,94.2110593 173.790484,95.2680387 172.816903,95.9897758 C172.026604,96.5753995 171.090015,96.8829149 170.124001,96.8829149" id="Fill-5" fill="#2F5266"></path>
            <path d="M92.3689046,3.65523299 C91.2364227,3.65523299 90.139252,4.01568144 89.2127524,4.7021299 C88.0718631,5.54653711 87.3278048,6.78584124 87.1193004,8.18982577 C86.6888395,11.0893773 88.6973765,13.7982021 91.5979425,14.2283876 C94.4985086,14.6585732 97.2090665,12.6513206 97.6412088,9.75260928 C97.8497133,8.34778454 97.4991231,6.94632062 96.6524942,5.80616082 C95.8067059,4.66600103 94.5666088,3.92241856 93.161726,3.71404742 C92.8968917,3.67455773 92.6312166,3.65523299 92.3689046,3.65523299 M92.3958084,16.2667278 C92.0342885,16.2667278 91.6710872,16.2398412 91.3078859,16.186068 C89.3792197,15.8995577 87.6775542,14.8795474 86.5173278,13.3150835 C85.3562606,11.7497794 84.8745145,9.82654742 85.1612081,7.89995464 C85.447061,5.97252165 86.4677239,4.27194433 88.0340296,3.11245979 C89.5994945,1.95213505 91.5247978,1.46817629 93.4526233,1.75720722 C95.3812896,2.04287732 97.0821142,3.06288763 98.2431814,4.62735155 C99.4042486,6.19265567 99.8859948,8.11588763 99.5993011,10.0433206 C99.3126075,11.9699134 98.2919445,13.6704907 96.7264796,14.8308155 C95.455275,15.7718464 93.9486621,16.2667278 92.3958084,16.2667278" id="Fill-7" fill="#2F5266"></path>
            <path d="M164.98487,16.8121897 C162.971289,16.8121897 161.201523,18.2892722 160.896333,20.3385351 C160.73407,21.4308031 161.007311,22.5197103 161.664773,23.406968 C162.323075,24.2933856 163.287408,24.8714474 164.379535,25.0336072 L164.380375,25.0336072 C165.473342,25.195767 166.562946,24.9235402 167.450772,24.2656588 C168.337756,23.6086175 168.916188,22.644901 169.078452,21.5534732 C169.240715,20.4612052 168.967473,19.3706175 168.310012,18.4842 C167.651709,17.5977825 166.687376,17.0197206 165.59525,16.8575608 C165.390109,16.8273134 165.186649,16.8121897 164.98487,16.8121897 M165.000844,27.0585041 C164.698177,27.0585041 164.393827,27.0358186 164.088637,26.9904474 L164.089478,26.9904474 C162.473568,26.7509887 161.047667,25.896499 160.074926,24.5849371 C159.101345,23.2733753 158.697788,21.6618598 158.938241,20.0478237 C159.43428,16.7147258 162.555121,14.404999 165.886148,14.9007206 C167.502057,15.1401794 168.927118,15.9946691 169.900699,17.3053907 C170.87344,18.6169526 171.276997,20.228468 171.036544,21.8433443 C170.796932,23.4582206 169.941896,24.8832103 168.629494,25.8553289 C167.565113,26.6442825 166.302316,27.0585041 165.000844,27.0585041" id="Fill-9" fill="#2F5266"></path>
            <path d="M138.927109,120.916929 L78.4700646,120.916929 C77.9227404,120.916929 77.4796684,120.47414 77.4796684,119.927166 C77.4796684,119.381032 77.9227404,118.938243 78.4700646,118.938243 L136.947158,118.938243 L136.947158,71.9707175 L76.1344784,71.9707175 L76.1344784,82.4119598 C76.1344784,82.958934 75.6914064,83.4017227 75.1449229,83.4017227 C74.5975987,83.4017227 74.1545267,82.958934 74.1545267,82.4119598 L74.1545267,69.992032 L138.927109,69.992032 L138.927109,120.916929 Z" id="Fill-11" fill="#2F5266"></path>
            <path d="M83.364959,138.829957 C82.4006259,138.829957 81.6162119,139.613869 81.6162119,140.577586 C81.6162119,141.542142 82.4006259,142.326055 83.364959,142.326055 L129.716845,142.326055 C130.681179,142.326055 131.465592,141.542142 131.465592,140.577586 C131.465592,139.613869 130.681179,138.829957 129.716845,138.829957 L83.364959,138.829957 Z M129.716845,144.30474 L83.364959,144.30474 C81.3084997,144.30474 79.6354196,142.63273 79.6354196,140.577586 C79.6354196,138.522441 81.3084997,136.851271 83.364959,136.851271 L129.716845,136.851271 C131.773305,136.851271 133.446385,138.522441 133.446385,140.577586 C133.446385,142.63273 131.773305,144.30474 129.716845,144.30474 L129.716845,144.30474 Z" id="Fill-13" fill="#2F5266"></path>
            <path d="M72.5809907,122.940734 C70.5396648,122.940734 68.5664391,121.832502 67.5617503,119.900868 C67.3095271,119.416069 67.4986945,118.818682 67.9838036,118.56662 C68.4697536,118.314558 69.0666816,118.504445 69.3189048,118.988404 C70.2512896,120.781404 72.4691717,121.482136 74.2607968,120.550347 C74.7475874,120.298285 75.3445155,120.488172 75.5958979,120.97213 C75.848121,121.456929 75.6589537,122.054316 75.1738445,122.306378 C74.3448711,122.736563 73.456205,122.940734 72.5809907,122.940734" id="Fill-15" fill="#2F5266"></path>
            <path d="M106.890568,124.067702 C105.918668,124.067702 105.128369,124.857496 105.128369,125.829614 C105.128369,126.800053 105.918668,127.590687 106.890568,127.590687 C107.862467,127.590687 108.653607,126.800053 108.653607,125.829614 C108.653607,124.857496 107.862467,124.067702 106.890568,124.067702 M106.890568,129.569372 C104.826542,129.569372 103.147576,127.89148 103.147576,125.829614 C103.147576,123.766908 104.826542,122.089016 106.890568,122.089016 C108.954594,122.089016 110.633559,123.766908 110.633559,125.829614 C110.633559,127.89148 108.954594,129.569372 106.890568,129.569372" id="Fill-17" fill="#2F5266"></path>
            <path d="M153.641807,49.9149691 C154.283295,50.5980567 154.863408,51.3996134 155.367854,52.2977938 C155.872301,51.3996134 156.452414,50.5980567 157.09306,49.9149691 C156.452414,49.2318814 155.872301,48.4303247 155.367854,47.5321443 C154.863408,48.4303247 154.283295,49.2318814 153.641807,49.9149691 L153.641807,49.9149691 Z M155.367854,57.3675979 L154.444718,54.979732 C153.741856,53.1648866 152.748097,51.6735206 151.569374,50.6677938 L150.687434,49.9149691 L151.569374,49.1621443 C152.748097,48.1564175 153.741856,46.6650515 154.444718,44.8502062 L155.367854,42.4631804 L156.290991,44.8502062 C156.993012,46.6650515 157.987612,48.1564175 159.166335,49.1621443 L160.047434,49.9149691 L159.166335,50.6677938 C157.986771,51.6735206 156.993012,53.1648866 156.290991,54.979732 L155.367854,57.3675979 Z" id="Fill-19" fill="#2F5266"></path>
            <path d="M181.644797,59.3568701 C180.706527,61.7833856 179.359655,63.793999 177.749631,65.1685763 C179.359655,66.5439938 180.706527,68.5546072 181.644797,70.9811227 C182.583067,68.5546072 183.929938,66.5439938 185.539963,65.1685763 C183.929938,63.793999 182.583067,61.7833856 181.644797,59.3568701" id="Fill-21" fill="#2F5266"></path>
            <path d="M61.5880975,42.2348124 C60.6498275,44.6613278 59.3029559,46.6719412 57.6929316,48.0465186 C59.3029559,49.4219361 60.6498275,51.4325495 61.5880975,53.8590649 C62.5263676,51.4325495 63.8732391,49.4219361 65.4832635,48.0465186 C63.8732391,46.6719412 62.5263676,44.6613278 61.5880975,42.2348124" id="Fill-23" fill="#2F5266"></path>
            <g id="Group-27" transform="translate(0.000000, 70.711753)">
                <mask id="mask-2" fill="white">
                    <use xlink:href="#path-1"></use>
                </mask>
                <g id="Clip-26"></g>
                <path d="M47.471589,42.2555655 C48.0592689,58.0531222 62.7386554,62.375983 71.4840723,62.4179933 L71.5126575,62.4179933 C73.0915744,62.4179933 74.5788501,61.8029624 75.7046061,60.6829675 C76.8496991,59.5444881 77.4794162,58.0270758 77.4794162,56.4130397 L77.4794162,42.2555655 L47.471589,42.2555655 Z M0.991068775,89.6322716 C0.626185972,89.6322716 0.276436557,89.4306222 0.103243337,89.0827768 C-0.139731617,88.5929366 0.0603654038,87.9989108 0.549678287,87.7569314 L32.3558565,71.9896222 L32.3558565,24.5179727 C32.3558565,11.5502304 42.7407237,0.826678866 55.5057366,0.613266495 C61.8592374,0.489756186 67.8831666,2.90534897 72.4215016,7.3651634 C76.8900548,11.7569211 79.3828601,17.6022356 79.4576863,23.8533696 L87.4985599,36.3463954 C88.2703627,37.5445294 88.3233295,39.0064881 87.6398048,40.2575552 C86.9571209,41.5086222 85.6976867,42.2555655 84.2717852,42.2555655 L79.4602086,42.2555655 L79.4602086,56.4130397 C79.4602086,58.5580861 78.621987,60.5720603 77.1010815,62.0852716 C75.5927871,63.5858799 73.5977021,64.4445706 71.4748241,64.3966789 C61.8172002,64.3504675 45.473141,59.4268593 45.473141,41.2658026 L45.473141,40.2768799 L84.2717852,40.2768799 C84.9620359,40.2768799 85.5715751,39.914751 85.9019874,39.3098026 C86.2323997,38.7040139 86.2071774,37.9965603 85.8338872,37.416818 L77.4794162,24.4373129 L77.4794162,24.1466015 C77.4794162,18.3206119 75.1900709,12.8617923 71.0325928,8.77586959 C66.8767963,4.69078711 61.3884209,2.49532835 55.5385256,2.59195206 C43.8471425,2.7868799 34.3358081,12.6231737 34.3358081,24.5179727 L34.3358081,73.2171634 L1.42993703,89.5289263 C1.28869208,89.5995036 1.13903968,89.6322716 0.991068775,89.6322716 L0.991068775,89.6322716 Z" id="Fill-25" fill="#2F5266" mask="url(#mask-2)"></path>
            </g>
            <path d="M97.0352848,160.344276 C96.8839509,160.344276 96.7309356,160.309828 96.5871684,160.23673 L64.4934558,143.922446 L64.4934558,133.510611 C64.4934558,132.964477 64.9365278,132.520848 65.483852,132.520848 C66.0303355,132.520848 66.4734074,132.964477 66.4734074,133.510611 L66.4734074,142.708348 L97.4850827,158.473137 C97.9718734,158.720158 98.1660852,159.315864 97.9180658,159.803184 C97.7440318,160.146828 97.3959639,160.344276 97.0352848,160.344276" id="Fill-28" fill="#2F5266"></path>
            <path d="M103.89836,40.7153835 C105.420947,42.2126309 106.754367,44.1081361 107.834723,46.3027546 C108.914238,44.1081361 110.248498,42.2126309 111.771085,40.7153835 C110.248498,39.2181361 108.914238,37.3226309 107.834723,35.1271722 C106.754367,37.3226309 105.420947,39.2181361 103.89836,40.7153835 L103.89836,40.7153835 Z M107.834723,51.5153938 L106.910745,49.1275278 C105.668126,45.9137392 103.89836,43.2654093 101.792297,41.4682082 L100.911198,40.7153835 L101.792297,39.9625588 C103.89836,38.1653577 105.668126,35.5170278 106.910745,32.3032392 L107.834723,29.9153732 L108.757859,32.3032392 C110.000479,35.5170278 111.771085,38.1653577 113.877148,39.9625588 L114.758248,40.7153835 L113.877148,41.4682082 C111.771085,43.2654093 110.00132,45.9137392 108.757859,49.1275278 L107.834723,51.5153938 Z" id="Fill-30" fill="#2F5266"></path>
            <path d="M46.3886269,92.6436546 C43.3417714,92.6436546 40.8632588,95.1205825 40.8632588,98.1654897 C40.8632588,101.210397 43.3417714,103.688165 46.3886269,103.688165 C49.4354824,103.688165 51.9139951,101.210397 51.9139951,98.1654897 C51.9139951,95.1205825 49.4354824,92.6436546 46.3886269,92.6436546 M46.3886269,105.666851 C42.2496453,105.666851 38.8824664,102.301825 38.8824664,98.1654897 C38.8824664,94.0291546 42.2496453,90.6649691 46.3886269,90.6649691 C50.5276086,90.6649691 53.8947874,94.0291546 53.8947874,98.1654897 C53.8947874,102.301825 50.5276086,105.666851 46.3886269,105.666851" id="Fill-32" fill="#2F5266"></path>
            <path d="M46.3886269,82.4753954 C45.5436794,82.4753954 44.8567917,83.1618438 44.8567917,84.006251 C44.8567917,84.8506582 45.5436794,85.5379469 46.3886269,85.5379469 C47.2335744,85.5379469 47.9204621,84.8506582 47.9204621,84.006251 C47.9204621,83.1618438 47.2335744,82.4753954 46.3886269,82.4753954 M46.3886269,87.5166325 C44.4515532,87.5166325 42.8759994,85.9420861 42.8759994,84.006251 C42.8759994,82.0712562 44.4515532,80.4967098 46.3886269,80.4967098 C48.3257006,80.4967098 49.9012544,82.0712562 49.9012544,84.006251 C49.9012544,85.9420861 48.3257006,87.5166325 46.3886269,87.5166325" id="Fill-34" fill="#2F5266"></path>
            <path d="M46.3886269,99.1552526 C45.8421435,99.1552526 45.3982307,98.7124639 45.3982307,98.1654897 L45.3982307,86.5269536 C45.3982307,85.9808196 45.8421435,85.5371907 46.3886269,85.5371907 C46.9351104,85.5371907 47.3790231,85.9808196 47.3790231,86.5269536 L47.3790231,98.1654897 C47.3790231,98.7124639 46.9351104,99.1552526 46.3886269,99.1552526" id="Fill-36" fill="#2F5266"></path>
            <path d="M141.972368,133.387857 L76.0689844,133.387857 C75.522501,133.387857 75.079429,132.945069 75.079429,132.398094 C75.079429,131.85196 75.522501,131.409172 76.0689844,131.409172 L141.972368,131.409172 C144.529069,131.409172 146.608229,129.330502 146.608229,126.776275 L146.608229,68.6617335 C146.608229,66.1075067 144.529069,64.0296768 141.972368,64.0296768 L71.1094368,64.0296768 C68.552735,64.0296768 66.4735756,66.1075067 66.4735756,68.6617335 L66.4735756,73.7995943 C66.4735756,74.3457284 66.0305036,74.788517 65.4831794,74.788517 C64.9366959,74.788517 64.493624,74.3457284 64.493624,73.7995943 L64.493624,68.6617335 C64.493624,65.0160789 67.4614495,62.050151 71.1094368,62.050151 L141.972368,62.050151 C145.620355,62.050151 148.58818,65.0160789 148.58818,68.6617335 L148.58818,126.776275 C148.58818,130.421929 145.620355,133.387857 141.972368,133.387857" id="Fill-38" fill="#2F5266"></path>
            <path d="M67.9167123,89.2828299 C67.1213687,89.2828299 66.473996,89.9297887 66.473996,90.7246237 L66.473996,98.0445 C66.473996,98.8401753 67.1213687,99.487134 67.9167123,99.487134 C68.7120559,99.487134 69.3594286,98.8401753 69.3594286,98.0445 L69.3594286,90.7246237 C69.3594286,89.9297887 68.7120559,89.2828299 67.9167123,89.2828299 M67.9167123,101.46582 C66.0292425,101.46582 64.4932036,99.9307629 64.4932036,98.0445 L64.4932036,90.7246237 C64.4932036,88.8383608 66.0292425,87.3041443 67.9167123,87.3041443 C69.8041821,87.3041443 71.340221,88.8383608 71.340221,90.7246237 L71.340221,98.0445 C71.340221,99.9307629 69.8041821,101.46582 67.9167123,101.46582" id="Fill-40" fill="#2F5266"></path>
            <path d="M183.773056,43.2244912 C183.424147,43.2244912 183.086168,43.0396459 182.905408,42.7136459 C182.641415,42.2347284 182.814608,41.6331407 183.293832,41.369316 L188.799022,38.32945 C189.276564,38.0656253 189.879378,38.2387077 190.144212,38.7176253 C190.408206,39.1957026 190.235012,39.7972902 189.755788,40.0619552 L184.250598,43.1009809 C184.099264,43.1850015 183.934478,43.2244912 183.773056,43.2244912" id="Fill-42" fill="#2F5266"></path>
            <path d="M183.773056,36.7252443 C183.424147,36.7252443 183.086168,36.540399 182.905408,36.214399 C182.641415,35.7354814 182.814608,35.1338938 183.293832,34.8700691 L199.694221,25.8160072 C200.173445,25.5530227 200.775417,25.7244247 201.040252,26.2033423 C201.304245,26.6814196 201.131052,27.2838474 200.651828,27.5476722 L184.250598,36.601734 C184.099264,36.6857546 183.934478,36.7252443 183.773056,36.7252443" id="Fill-44" fill="#2F5266"></path>
            <path d="M176.848438,34.0491036 C176.499529,34.0491036 176.16155,33.8642582 175.98079,33.5382582 C175.716796,33.0593407 175.88999,32.4577531 176.369214,32.1939284 L183.293579,28.3709902 C183.772803,28.1071655 184.374776,28.2802479 184.63877,28.7583253 C184.903604,29.2364026 184.72957,29.8388304 184.251187,30.1026552 L177.32598,33.9255933 C177.174646,34.0096139 177.010701,34.0491036 176.848438,34.0491036" id="Fill-46" fill="#2F5266"></path>
            <path d="M193.721493,35.4709005 C193.183417,35.7683335 192.987523,36.4455397 193.285147,36.9832716 C193.58277,37.5210036 194.26041,37.7167716 194.798486,37.4193387 C195.336562,37.1219057 195.532455,36.4446995 195.234832,35.9069675 C194.937208,35.3692356 194.259569,35.1734675 193.721493,35.4709005" id="Fill-48" fill="#2F5266"></path>
            <path d="M197.83769,33.1985629 C197.299614,33.4959959 197.103721,34.1732021 197.401344,34.710934 C197.698968,35.248666 198.376607,35.444434 198.914683,35.147001 C199.452759,34.849568 199.648652,34.1723619 199.351029,33.6346299 C199.053406,33.0968979 198.375766,32.9011299 197.83769,33.1985629" id="Fill-50" fill="#2F5266"></path>
            <path d="M204.256265,23.1561665 C203.718189,23.4535995 203.522295,24.1308057 203.819919,24.6685376 C204.117542,25.2062696 204.795181,25.4020376 205.333257,25.1046046 C205.871333,24.8071716 206.067227,24.1299655 205.769603,23.5922335 C205.47198,23.0545015 204.794341,22.8587335 204.256265,23.1561665" id="Fill-52" fill="#2F5266"></path>
            <g id="Group-56" transform="translate(207.663715, 20.299381)">
                <mask id="mask-4" fill="white">
                    <use xlink:href="#path-3"></use>
                </mask>
                <g id="Clip-55"></g>
                <path d="M0.708747012,0.584447423 C0.170670989,0.881880412 -0.0252223136,1.5590866 0.272400987,2.09681856 C0.570024287,2.63455052 1.24766378,2.83031856 1.7857398,2.53288557 C2.32381582,2.23545258 2.51970913,1.55824639 2.22208583,1.02051443 C1.92446253,0.482782474 1.24682303,0.287014433 0.708747012,0.584447423" id="Fill-54" fill="#2F5266" mask="url(#mask-4)"></path>
            </g>
            <path d="M188.216555,25.5118526 C187.678479,25.8092856 187.482585,26.4864918 187.780209,27.0242237 C188.077832,27.5619557 188.755471,27.7577237 189.293547,27.4602907 C189.831624,27.1628577 190.027517,26.4856515 189.729894,25.9479196 C189.43227,25.4101876 188.754631,25.2144196 188.216555,25.5118526" id="Fill-57" fill="#2F5266"></path>
            <path d="M192.332752,23.2395149 C191.794676,23.5369479 191.598783,24.2141541 191.896406,24.7518861 C192.194029,25.289618 192.871669,25.4853861 193.409745,25.1879531 C193.947821,24.8905201 194.143714,24.2133139 193.846091,23.675582 C193.548468,23.13785 192.870828,22.942082 192.332752,23.2395149" id="Fill-59" fill="#2F5266"></path>
            <path d="M100.183114,160.206735 C99.6450376,160.504168 99.4491443,161.181374 99.7467676,161.719106 C100.044391,162.256838 100.72203,162.452606 101.260106,162.155173 C101.798182,161.85774 101.994076,161.180534 101.696452,160.642802 C101.398829,160.10507 100.72119,159.909302 100.183114,160.206735" id="Fill-61" fill="#2F5266"></path>
            <path d="M101.991553,94.3797727 C101.453477,94.6772057 101.257584,95.3544119 101.555207,95.8921438 C101.852831,96.4298758 102.53047,96.6256438 103.068546,96.3282108 C103.606622,96.0307778 103.802516,95.3535716 103.504892,94.8158397 C103.207269,94.2781077 102.52963,94.0823397 101.991553,94.3797727" id="Fill-63" fill="#2F5266"></path>
            <path d="M107.295386,87.9802582 C105.404553,87.9802582 103.514561,88.6994747 102.075208,90.1370675 C99.1973415,93.0139335 99.1973415,97.6947222 102.075208,100.570748 C103.470001,101.96465 105.323001,102.731758 107.295386,102.731758 C109.26693,102.731758 111.12077,101.96465 112.515564,100.570748 C115.39343,97.6947222 115.39343,93.0139335 112.515564,90.1370675 C111.07621,88.6994747 109.186218,87.9802582 107.295386,87.9802582 M107.295386,104.710444 C104.794173,104.710444 102.443453,103.736645 100.675369,101.969691 C98.9072849,100.202738 97.9328629,97.8526809 97.9328629,95.3539077 C97.9328629,92.8551345 98.9072849,90.5050778 100.675369,88.7381242 C104.325879,85.0907892 110.264893,85.0907892 113.915402,88.7381242 C115.683486,90.5050778 116.657908,92.8551345 116.657908,95.3539077 C116.657908,97.8526809 115.683486,100.202738 113.915402,101.969691 C112.147318,103.736645 109.795758,104.710444 107.295386,104.710444" id="Fill-65" fill="#2F5266"></path>
            <path d="M95.7676113,109.812512 C95.2059945,109.812512 94.7595595,109.64027 94.4190583,109.299986 C93.7044261,108.586651 93.1688723,107.054955 96.7487593,102.016239 C97.0657197,101.57177 97.6836664,101.466744 98.1292606,101.782661 C98.5748548,102.098579 98.6799478,102.71613 98.3629874,103.16144 C96.4015321,105.922357 95.9231489,107.347347 95.8811117,107.84727 C97.1783794,107.799378 102.241338,104.886383 109.537313,97.5950737 C116.834128,90.3037644 119.748146,85.2432026 119.796069,83.9467644 C119.280693,83.9887747 117.789213,84.4970995 114.879399,86.5908933 C114.436327,86.9110119 113.81838,86.8101871 113.498057,86.3665582 C113.178574,85.9229294 113.279464,85.3053778 113.722536,84.9852593 C118.948599,81.2236562 120.52079,81.7580273 121.250555,82.4864861 C122.325026,83.5602696 121.71885,85.6817902 119.342908,89.1627644 C117.362115,92.0656768 114.376634,95.5575737 110.937151,98.994017 C107.498509,102.43046 104.005219,105.414032 101.100449,107.394398 C98.7211442,109.015996 96.9766009,109.812512 95.7676113,109.812512" id="Fill-67" fill="#2F5266"></path>
            <path d="M132.456073,53.0275969 C131.909589,53.0275969 131.465677,52.5848082 131.465677,52.037834 L131.465677,44.0558753 C131.465677,43.5097412 131.909589,43.0669526 132.456073,43.0669526 C133.002556,43.0669526 133.446469,43.5097412 133.446469,44.0558753 L133.446469,52.037834 C133.446469,52.5848082 133.002556,53.0275969 132.456073,53.0275969" id="Fill-69" fill="#2F5266"></path>
            <path d="M136.449606,49.0366175 L128.46254,49.0366175 C127.916056,49.0366175 127.472144,48.5938289 127.472144,48.0468546 C127.472144,47.5007206 127.916056,47.057932 128.46254,47.057932 L136.449606,47.057932 C136.996089,47.057932 137.440002,47.5007206 137.440002,48.0468546 C137.440002,48.5938289 136.996089,49.0366175 136.449606,49.0366175" id="Fill-71" fill="#2F5266"></path>
            <path d="M146.113283,9.96089639 C145.566799,9.96089639 145.122887,9.51810773 145.122887,8.97113351 L145.122887,0.989174742 C145.122887,0.443040722 145.566799,0.000252061856 146.113283,0.000252061856 C146.659766,0.000252061856 147.103679,0.443040722 147.103679,0.989174742 L147.103679,8.97113351 C147.103679,9.51810773 146.659766,9.96089639 146.113283,9.96089639" id="Fill-73" fill="#2F5266"></path>
            <path d="M150.106816,5.96991701 L142.11975,5.96991701 C141.573266,5.96991701 141.129354,5.52712835 141.129354,4.98015412 C141.129354,4.4340201 141.573266,3.99123144 142.11975,3.99123144 L150.106816,3.99123144 C150.653299,3.99123144 151.097212,4.4340201 151.097212,4.98015412 C151.097212,5.52712835 150.653299,5.96991701 150.106816,5.96991701" id="Fill-75" fill="#2F5266"></path>
        </g>
    </g>
</svg>