<?xml version="1.0" encoding="UTF-8"?>
<svg width="53px" height="113px" viewBox="0 0 53 113" version="1.1" xmlns="http://www.w3.org/2000/svg" xmlns:xlink="http://www.w3.org/1999/xlink">
    <!-- Generator: Sketch 43.2 (39069) - http://www.bohemiancoding.com/sketch -->
    <title>Page 1</title>
    <desc>Created with Sketch.</desc>
    <defs>
        <polygon id="path-1" points="19.1352264 47.6991014 19.1352264 0.053204087 0.695711285 0.053204087 0.695711285 47.6991014 19.1352264 47.6991014"></polygon>
        <polygon id="path-3" points="0 112.642986 52.5016314 112.642986 52.5016314 0 0 0"></polygon>
    </defs>
    <g id="Design-1" stroke="none" stroke-width="1" fill="none" fill-rule="evenodd">
        <g id="Page-1">
            <path d="M14.3367304,28.5039225 L17.2811122,28.5039225 C16.7146971,27.468908 16.1653722,27.0725891 15.8089213,27.0725891 C15.4516566,27.0725891 14.9031455,27.468908 14.3367304,28.5039225 L14.3367304,28.5039225 Z M18.7614413,30.432292 L12.8564014,30.432292 C12.5422689,30.432292 12.2484818,30.2775312 12.0686287,30.0179587 C11.8895895,29.7575674 11.8480849,29.4267558 11.9587637,29.1311543 C13.1835549,25.835321 14.7281753,25.1434007 15.8089213,25.1434007 C16.8896673,25.1434007 18.4342877,25.835321 19.6590789,29.1311543 C19.7697577,29.4267558 19.7282532,29.7575674 19.5492139,30.0179587 C19.3701747,30.2775312 19.0755738,30.432292 18.7614413,30.432292 L18.7614413,30.432292 Z" id="Fill-1" fill="#2F5266"></path>
            <path d="M20.1328005,57.9238 L11.4852049,57.9238 C11.0913186,57.9238 10.7373091,57.6806043 10.5932639,57.3121261 C9.16990192,53.6650101 8.35364571,48.4817493 8.35364571,43.0905029 C8.35364571,37.7950609 9.10642436,32.8566333 10.4728193,29.1824957 C10.6127955,28.805829 10.9700602,28.5569014 11.3696432,28.5569014 L20.2483622,28.5569014 C20.6479452,28.5569014 21.0052099,28.8066478 21.1451861,29.1833145 C21.2143603,29.3675536 21.264003,29.4936551 21.3046938,29.5976478 C21.4235107,29.8965246 21.4878021,30.0660246 21.6399854,30.6203797 C21.7807754,31.1337928 21.4812916,31.6652203 20.9710297,31.8060609 C20.4664646,31.9485391 19.9334159,31.6472058 19.7926259,31.1337928 C19.6982234,30.7906986 19.6477669,30.6351188 19.5924275,30.485271 L12.0459233,30.485271 C10.9139069,33.8482493 10.2709933,38.3919957 10.2709933,43.0905029 C10.2709933,47.9503217 10.9521562,52.6037928 12.1500916,55.9954304 L19.4711691,55.9954304 C20.139311,54.1374812 20.4298429,52.5792275 20.9580087,49.7476768 C21.0556664,49.2236188 21.5504658,48.8764304 22.0761901,48.9771478 C22.5962178,49.0754087 22.9388338,49.5798145 22.841176,50.1022348 C22.2527879,53.2564087 21.9297035,54.9931696 21.0247415,57.3121261 C20.8806963,57.6806043 20.5266868,57.9238 20.1328005,57.9238" id="Fill-3" fill="#E14E3A"></path>
            <path d="M13.3496545,57.591187 C12.8206749,57.591187 12.3909807,57.159658 12.3909807,56.6265928 L12.3909807,52.5823391 C12.3909807,52.0492739 12.8206749,51.6177449 13.3496545,51.6177449 C13.8786341,51.6177449 14.3083283,52.0492739 14.3083283,52.5823391 L14.3083283,56.6265928 C14.3083283,57.159658 13.8786341,57.591187 13.3496545,57.591187" id="Fill-5" fill="#E14E3A"></path>
            <path d="M15.8085958,57.591187 C15.2796162,57.591187 14.849922,57.159658 14.849922,56.6265928 L14.849922,50.4713681 C14.849922,49.9383029 15.2796162,49.5067739 15.8085958,49.5067739 C16.3375754,49.5067739 16.7672696,49.9383029 16.7672696,50.4713681 L16.7672696,56.6265928 C16.7672696,57.159658 16.3375754,57.591187 15.8085958,57.591187" id="Fill-7" fill="#E14E3A"></path>
            <path d="M18.2683509,57.591187 C17.7393713,57.591187 17.3096771,57.159658 17.3096771,56.6265928 L17.3096771,52.5823391 C17.3096771,52.0492739 17.7393713,51.6177449 18.2683509,51.6177449 C18.7973305,51.6177449 19.2270247,52.0492739 19.2270247,52.5823391 L19.2270247,56.6265928 C19.2270247,57.159658 18.7973305,57.591187 18.2683509,57.591187" id="Fill-9" fill="#E14E3A"></path>
            <path d="M12.9578841,63.9372014 L18.6602841,63.9372014 C17.7634602,62.1472159 16.7380536,61.1162957 15.8086772,61.1162957 C14.8793007,61.1162957 13.8547079,62.1472159 12.9578841,63.9372014 M20.132475,65.865571 L11.4848794,65.865571 C11.1683054,65.865571 10.8720769,65.7083536 10.6938514,65.444687 C10.5148122,65.1818391 10.4773767,64.8452957 10.5937522,64.5488754 C12.3231086,60.1173101 14.3845014,59.1871072 15.8086772,59.1871072 C17.2336668,59.1871072 19.2950596,60.1173101 21.0244159,64.5488754 C21.1407915,64.8452957 21.103356,65.1818391 20.9243167,65.444687 C20.7460913,65.7083536 20.4498627,65.865571 20.132475,65.865571" id="Fill-11" fill="#2F5266"></path>
            <path d="M31.1264613,1.13433986 C31.1264613,1.7607529 30.6218961,2.26843406 29.9993278,2.26843406 C29.3767596,2.26843406 28.8721944,1.7607529 28.8721944,1.13433986 C28.8721944,0.507926812 29.3767596,0.000245652174 29.9993278,0.000245652174 C30.6218961,0.000245652174 31.1264613,0.507926812 31.1264613,1.13433986" id="Fill-13" fill="#2F5266"></path>
            <path d="M32.6181837,112.642986 C31.8027414,112.642986 31.0637976,112.168058 30.723623,111.391797 L27.582298,105.340565 C26.6952399,103.822435 26.8026635,101.878507 27.880968,100.429978 L28.9080023,99.0510507 C28.9739213,97.9013986 28.5100468,96.4037391 27.9786258,94.6874493 C26.9206666,91.2704275 25.6112387,87.0419348 27.7507577,82.7405652 C26.8929969,79.9245725 21.8823395,63.2996522 21.8823395,59.5166087 C21.8823395,57.7569203 22.5016525,54.542971 23.8257291,52.7669058 L23.4237046,50.0680072 C23.3447646,49.5406739 23.7060983,49.0501884 24.2285674,48.9715797 C24.7534779,48.8815072 25.240953,49.2548986 25.3182654,49.781413 L25.7845812,52.9069275 C25.8277134,53.1976159 25.73738,53.4923986 25.5379954,53.7069348 C24.5426999,54.7820725 23.7988732,57.6611159 23.7988732,59.5166087 C23.7988732,62.638029 28.0575658,77.2035652 29.6974026,82.5522319 C29.7739012,82.8019783 29.7470453,83.0713768 29.6225316,83.2990145 C27.6083401,87.0083623 28.7769781,90.7832174 29.8088952,94.113442 C30.4444845,96.1670942 30.9938095,97.9407029 30.7871005,99.537442 C30.7659414,99.702029 30.7024638,99.8584275 30.6023646,99.9918986 L29.4133812,101.586181 C28.8013925,102.409935 28.7395426,103.517007 29.2579426,104.406268 L32.4391445,110.531196 C32.4521655,110.555761 32.4643727,110.581964 32.4749523,110.608986 C32.4944839,110.655659 32.5286641,110.733449 32.6637574,110.710522 C32.7996644,110.682681 32.7996644,110.595065 32.7996644,110.543478 L32.7996644,62.2310652 C32.7996644,61.698 33.2285448,61.266471 33.7575244,61.266471 C34.2873178,61.266471 34.7161982,61.698 34.7161982,62.2310652 L34.7161982,110.543478 C34.7161982,111.557203 34.0252695,112.403884 33.0381122,112.601225 C32.8965084,112.629065 32.7565322,112.642986 32.6181837,112.642986" id="Fill-15" fill="#2F5266"></path>
            <g id="Group-19" transform="translate(33.366405, 42.222696)">
                <mask id="mask-2" fill="white">
                    <use xlink:href="#path-1"></use>
                </mask>
                <g id="Clip-18"></g>
                <path d="M3.74045538,47.6991014 C3.71848239,47.6991014 3.69488176,47.6982826 3.67209495,47.6966449 C3.14474298,47.6589783 2.74678757,47.1987899 2.78340923,46.6665435 C3.30669212,39.1807029 4.07574706,38.6083333 4.40452823,38.3643188 L15.4740365,30.6762246 C16.5181609,29.8377319 17.1374739,28.6798913 17.2123449,27.3672899 C17.3002369,25.7975725 16.60117,24.1042101 15.3405709,22.8358261 L1.01661739,10.0013188 C0.775728226,9.78514493 0.659352716,9.46252174 0.705740157,9.14153623 L1.91344126,0.877797101 C1.98993984,0.349644928 2.48311159,-0.0147391304 3.00069777,0.0638695652 C3.52398066,0.14165942 3.88694204,0.632144928 3.80962964,1.15784058 L2.67761331,8.90734783 L16.6556956,21.433971 C18.3370369,23.1224203 19.2452541,25.3676812 19.1248095,27.4770145 C19.0190136,29.3546159 18.1506733,30.9963913 16.614191,32.2246522 L5.64478192,39.8447826 C5.30460735,40.6063043 4.89200327,43.9840217 4.69587391,46.802471 C4.66006606,47.3101522 4.23932383,47.6991014 3.74045538,47.6991014" id="Fill-17" fill="#2F5266" mask="url(#mask-2)"></path>
            </g>
            <path d="M36.8422078,79.0433362 C36.7136251,79.0433362 36.5826009,79.0171333 36.4564597,78.9606333 C35.9722399,78.7469159 35.7525099,78.1770029 35.9665432,77.6906116 C39.7426436,69.0682203 45.0072113,68.7889957 45.2293827,68.7808072 C45.2407761,68.7799884 45.2521695,68.7799884 45.263563,68.7799884 C45.7770801,68.7799884 46.2027052,69.1902275 46.2197953,69.7110101 C46.238513,70.2399812 45.8291642,70.6846116 45.3042537,70.7075391 C45.1032414,70.7198217 40.9609243,71.0711043 37.7195002,78.4676913 C37.5616201,78.8279812 37.2108659,79.0433362 36.8422078,79.0433362" id="Fill-20" fill="#2F5266"></path>
            <path d="M42.3306559,68.6615022 C42.1581272,68.6615022 41.9839709,68.6148283 41.8269046,68.5165674 L35.956045,64.8604442 C35.5060054,64.5812196 35.3668431,63.9867413 35.6459815,63.5331036 C35.92512,63.0811036 36.5151357,62.940263 36.9651753,63.2211254 L42.8360349,66.8772486 C43.2860745,67.157292 43.4252368,67.7517703 43.1460983,68.2045891 C42.9646176,68.4993717 42.6521128,68.6615022 42.3306559,68.6615022" id="Fill-22" fill="#2F5266"></path>
            <path d="M25.7396586,46.5983341 C25.580151,46.5983341 25.417388,46.5582109 25.2684599,46.4730514 L20.0030784,43.4760949 C19.5603632,43.223892 19.3902759,42.6670804 19.6173302,42.2093486 L21.9822759,37.404392 C22.2174684,36.927008 22.7920216,36.7304862 23.2656618,36.9687688 C23.7401158,37.2045949 23.9338037,37.7826964 23.6986112,38.2600804 L21.7365039,42.2478341 L26.212485,44.7952471 C26.6722904,45.0564572 26.8350533,45.6452036 26.5738188,46.1086674 C26.3988486,46.4222833 26.0733227,46.5983341 25.7396586,46.5983341" id="Fill-24" fill="#2F5266"></path>
            <path d="M38.8934279,44.8958826 C38.3815385,44.8958826 37.9567272,44.4881 37.9363818,43.9681362 L37.5148257,32.9653754 C37.4847146,32.1694623 36.9256239,31.4824551 36.1573827,31.2957594 L32.4016276,30.378658 C31.9719334,30.2746652 31.6691943,29.8865348 31.6691943,29.4419043 L31.6691943,27.1466942 C31.6691943,26.6144478 32.0980747,26.1821 32.6278681,26.1821 C33.1568477,26.1821 33.5865419,26.6144478 33.5865419,27.1466942 L33.5865419,28.683658 L36.6074223,29.4214333 C38.2057545,29.8095638 39.3670681,31.2368029 39.4297319,32.8916797 L39.8521017,43.8944406 C39.8724471,44.426687 39.459843,44.8745928 38.9308634,44.8950638 C38.9186562,44.8950638 38.906449,44.8958826 38.8934279,44.8958826" id="Fill-26" fill="#2F5266"></path>
            <path d="M45.0042002,45.3428877 C44.9814134,45.3428877 44.9569989,45.3420688 44.9342121,45.3404312 L38.8249047,44.8933442 C38.296739,44.8540399 37.9004112,44.3930326 37.9378467,43.8616051 C37.9769098,43.3309964 38.4424118,42.9387717 38.9632532,42.9698877 L45.0725606,43.4161558 C45.6007264,43.4554601 45.997868,43.9172862 45.9596187,44.4478949 C45.9221832,44.9555761 45.501441,45.3428877 45.0042002,45.3428877" id="Fill-28" fill="#2F5266"></path>
            <path d="M45.1217964,49.5107043 L36.460366,49.5107043 C35.9313864,49.5107043 35.502506,49.0791754 35.502506,48.5461101 C35.502506,48.0138638 35.9313864,47.5823348 36.460366,47.5823348 L45.1217964,47.5823348 C45.650776,47.5823348 46.0804702,48.0138638 46.0804702,48.5461101 C46.0804702,49.0791754 45.650776,49.5107043 45.1217964,49.5107043" id="Fill-30" fill="#2F5266"></path>
            <path d="M29.9994906,11.7912225 C27.9551879,11.7912225 26.2925644,13.4641138 26.2925644,15.5210413 L26.2925644,23.242708 C26.2925644,25.2988167 27.9551879,26.971708 29.9994906,26.971708 C32.0437933,26.971708 33.7064168,25.2988167 33.7064168,23.242708 L33.7064168,15.5210413 C33.7064168,13.4641138 32.0437933,11.7912225 29.9994906,11.7912225 M29.9994906,28.9008964 C26.8980426,28.9008964 24.3760306,26.3624906 24.3760306,23.242708 L24.3760306,15.5210413 C24.3760306,12.4004399 26.8980426,9.8628529 29.9994906,9.8628529 C33.1009386,9.8628529 35.6229506,12.4004399 35.6229506,15.5210413 L35.6229506,23.242708 C35.6229506,26.3624906 33.1009386,28.9008964 29.9994906,28.9008964" id="Fill-32" fill="#2F5266"></path>
            <path d="M37.6933767,25.1230116 C37.1643971,25.1230116 36.7347029,24.6914826 36.7347029,24.1584174 L36.7347029,15.7153522 C36.7347029,11.9781638 33.7130087,8.9378087 29.999572,8.9378087 C26.2853214,8.9378087 23.2644411,11.9781638 23.2644411,15.7153522 L23.2644411,24.1584174 C23.2644411,24.6914826 22.8347469,25.1230116 22.3057673,25.1230116 C21.7759739,25.1230116 21.3470935,24.6914826 21.3470935,24.1584174 L21.3470935,15.7153522 C21.3470935,10.9144899 25.2289899,7.00943913 29.999572,7.00943913 C34.7701541,7.00943913 38.6520505,10.9144899 38.6520505,15.7153522 L38.6520505,24.1584174 C38.6520505,24.6914826 38.2223563,25.1230116 37.6933767,25.1230116" id="Fill-34" fill="#2F5266"></path>
            <mask id="mask-4" fill="white">
                <use xlink:href="#path-3"></use>
            </mask>
            <g id="Clip-37"></g>
            <path d="M26.2927272,20.3702971 L33.7057658,20.3702971 L33.7057658,16.7182681 L26.2927272,16.7182681 L26.2927272,20.3702971 Z M34.6644396,22.2994855 L25.3340534,22.2994855 C24.8050738,22.2994855 24.3761934,21.8679565 24.3761934,21.3348913 L24.3761934,15.7544928 C24.3761934,15.2214275 24.8050738,14.7898986 25.3340534,14.7898986 L34.6644396,14.7898986 C35.194233,14.7898986 35.6231133,15.2214275 35.6231133,15.7544928 L35.6231133,21.3348913 C35.6231133,21.8679565 35.194233,22.2994855 34.6644396,22.2994855 L34.6644396,22.2994855 Z" id="Fill-36" fill="#E14E3A" mask="url(#mask-4)"></path>
            <path d="M33.4470541,42.1507196 C33.3339338,42.1507196 33.2191859,42.1474442 33.100369,42.1408935 C32.5722032,42.1138717 32.1661096,41.6602341 32.1929655,41.1288065 C32.2198214,40.597379 32.6755577,40.1953283 33.1988406,40.2157993 C34.273076,40.2665674 35.0828217,39.9693283 35.6052908,39.31835 C35.9527897,38.8860022 36.0309159,38.285792 35.8087445,37.7527268 L33.8018773,32.9256616 C33.5976098,32.4343572 33.8271056,31.8693572 34.3145806,31.6638283 C34.8077523,31.4574804 35.3652154,31.69085 35.5686691,32.1805167 L37.577164,37.0084007 C38.0711495,38.1965384 37.8864136,39.5459877 37.0961994,40.5302341 C36.4915351,41.2819297 35.3766089,42.1499007 33.4470541,42.1507196" id="Fill-38" fill="#2F5266" mask="url(#mask-4)"></path>
            <path d="M27.6899657,42.511337 C27.4686081,42.511337 27.2708511,42.4998732 27.1080882,42.4851341 C25.874345,42.3721341 24.8074338,41.6785761 24.1067393,40.5330181 C23.8292285,40.0793804 23.9700185,39.485721 24.420058,39.2064964 C24.8700976,38.9280906 25.4609271,39.0681123 25.7392517,39.5225688 C26.0053692,39.958192 26.4887751,40.4920761 27.2822445,40.5641341 C27.5711488,40.5919746 28.5640028,40.6427428 29.2451657,40.2063007 C29.6911362,39.9180688 30.2844072,40.050721 30.5684285,40.4994457 C30.8540775,40.9489891 30.7230533,41.5442862 30.2770828,41.8308804 C29.415253,42.3844167 28.422399,42.511337 27.6899657,42.511337" id="Fill-39" fill="#2F5266" mask="url(#mask-4)"></path>
            <path d="M23.7369419,45.2765616 C23.2803918,45.2765616 22.8767397,44.9482065 22.7945444,44.4806486 L22.4665771,42.6300688 C22.3738022,42.1060109 22.7213011,41.6056993 23.2429564,41.5115326 C23.7556597,41.4157283 24.2610386,41.7686486 24.3538135,42.2918877 L24.680967,44.1432862 C24.7737419,44.6673442 24.4270568,45.1676558 23.9054016,45.2610036 C23.8492484,45.2716486 23.7922813,45.2765616 23.7369419,45.2765616" id="Fill-40" fill="#2F5266" mask="url(#mask-4)"></path>
            <path d="M49.6104731,44.6448261 C49.074983,44.6448261 48.6387783,45.0837246 48.6387783,45.6225217 L48.6387783,47.2331812 C48.6387783,47.7719783 49.074983,48.2108768 49.6104731,48.2108768 C50.1459632,48.2108768 50.5821679,47.7719783 50.5821679,47.2331812 L50.5821679,45.6225217 C50.5821679,45.0837246 50.1459632,44.6448261 49.6104731,44.6448261 M49.6104731,50.1400652 C48.0178376,50.1400652 46.7214307,48.8356522 46.7214307,47.2331812 L46.7214307,45.6225217 C46.7214307,44.0200507 48.0178376,42.7164565 49.6104731,42.7164565 C51.2031086,42.7164565 52.4995155,44.0200507 52.4995155,45.6225217 L52.4995155,47.2331812 C52.4995155,48.8356522 51.2031086,50.1400652 49.6104731,50.1400652" id="Fill-41" fill="#2F5266" mask="url(#mask-4)"></path>
            <path d="M30.6225472,54.1071022 C30.2400543,54.1071022 29.8518646,54.0039283 29.4994828,53.7885732 L17.2344806,47.2345732 C16.1236235,46.7285297 15.234124,45.7721239 14.7848982,44.5667906 C14.3348586,43.3614572 14.3788046,42.0521312 14.9077842,40.8811891 L19.2462307,32.2792688 C19.855778,31.0698413 20.9519864,30.1699355 22.2532762,29.8088268 L26.6633384,28.5912109 L26.6633384,27.2212906 C26.6633384,26.6890442 27.0922188,26.2566964 27.6211984,26.2566964 C28.1509918,26.2566964 28.5798722,26.6890442 28.5798722,27.2212906 L28.5798722,29.3257109 C28.5798722,29.7605152 28.2917817,30.1404572 27.8751086,30.2559138 L22.7610966,31.6692326 C21.9798345,31.8845877 21.3206445,32.4250225 20.9544279,33.1521529 L16.635513,41.7164065 C16.3352153,42.3821239 16.3091732,43.1665732 16.5793597,43.8887906 C16.8487324,44.6118268 17.3817811,45.1858341 18.080848,45.5051819 L30.447577,52.1132254 C30.6022018,52.2065732 30.733226,52.1861022 30.7893792,52.0952109 L32.3494621,49.5183196 C32.3803871,49.4675514 32.3755042,49.4159645 32.367366,49.3815732 C32.3584141,49.3471819 32.332372,49.2816746 32.2566872,49.2358196 L30.9814395,48.4546457 C30.9065685,48.4079717 30.8373943,48.4153413 30.8024003,48.421892 C30.7674062,48.4292616 30.720205,48.4497326 30.6900938,48.498863 C30.4150244,48.9549572 29.8258225,49.0982543 29.3733415,48.8214862 C28.9208605,48.5447181 28.7776291,47.9510587 29.0526985,47.4966022 C29.3489271,47.0077543 29.819312,46.6687543 30.3784028,46.5410152 C30.9277277,46.4157326 31.4949566,46.5107181 31.9791764,46.8071384 L33.2536103,47.5883123 C33.7370163,47.8847326 34.0820737,48.3506529 34.2228637,48.8984572 C34.3669089,49.4560877 34.2822722,50.0325514 33.9860436,50.5213993 L32.4259607,53.0991094 C32.0312605,53.7492688 31.3378904,54.1071022 30.6225472,54.1071022" id="Fill-42" fill="#2F5266" mask="url(#mask-4)"></path>
            <path d="M19.2466376,79.9117167 C18.717658,79.9117167 18.2879638,79.4801877 18.2879638,78.9471225 L18.2879638,68.6886877 C18.2879638,68.1564413 18.717658,67.7240935 19.2466376,67.7240935 C19.7756172,67.7240935 20.2053114,68.1564413 20.2053114,68.6886877 L20.2053114,78.9471225 C20.2053114,79.4801877 19.7756172,79.9117167 19.2466376,79.9117167" id="Fill-43" fill="#D3D0CA" mask="url(#mask-4)"></path>
            <path d="M15.8085958,89.5738717 C15.2796162,89.5738717 14.849922,89.1423428 14.849922,88.6092775 L14.849922,68.6885239 C14.849922,68.1562775 15.2796162,67.7239297 15.8085958,67.7239297 C16.3375754,67.7239297 16.7672696,68.1562775 16.7672696,68.6885239 L16.7672696,88.6092775 C16.7672696,89.1423428 16.3375754,89.5738717 15.8085958,89.5738717" id="Fill-44" fill="#D3D0CA" mask="url(#mask-4)"></path>
            <path d="M12.3713678,79.9117167 C11.8423882,79.9117167 11.412694,79.4801877 11.412694,78.9471225 L11.412694,68.6886877 C11.412694,68.1564413 11.8423882,67.7240935 12.3713678,67.7240935 C12.9003474,67.7240935 13.3300416,68.1564413 13.3300416,68.6886877 L13.3300416,78.9471225 C13.3300416,79.4801877 12.9003474,79.9117167 12.3713678,79.9117167" id="Fill-45" fill="#D3D0CA" mask="url(#mask-4)"></path>
            <path d="M27.8457299,47.6394899 C27.5934473,47.6394899 27.3501167,47.541229 27.1702636,47.3602652 C26.9912244,47.1801203 26.8854284,46.935287 26.8854284,46.6806275 C26.8854284,46.4276058 26.9912244,46.1737652 27.1702636,45.9928014 C27.5283421,45.6333304 28.1712558,45.6333304 28.5211961,45.9928014 C28.7010492,46.1737652 28.8068451,46.4276058 28.8068451,46.6806275 C28.8068451,46.935287 28.7091873,47.1801203 28.5211961,47.3602652 C28.3421569,47.541229 28.1061506,47.6394899 27.8457299,47.6394899" id="Fill-46" fill="#2F5266" mask="url(#mask-4)"></path>
            <path d="M12.3752741,82.9799942 C12.1148534,82.9799942 11.8707089,82.8817333 11.6916697,82.6934 C11.5126305,82.5140739 11.4149727,82.2766101 11.4149727,82.0137623 C11.4149727,81.7607406 11.5126305,81.5060812 11.6916697,81.3341246 C12.050562,80.9746536 12.6934757,80.9746536 13.0507403,81.3341246 C13.2216414,81.5060812 13.3274374,81.7607406 13.3274374,82.0137623 C13.3274374,82.2766101 13.2297796,82.5140739 13.0507403,82.6934 C12.8643768,82.8817333 12.6283705,82.9799942 12.3752741,82.9799942" id="Fill-47" fill="#D3D0CA" mask="url(#mask-4)"></path>
            <path d="M12.3752741,86.0018435 C12.1148534,86.0018435 11.8707089,85.9035826 11.6916697,85.7234377 C11.5126305,85.5351043 11.4149727,85.2976406 11.4149727,85.0356116 C11.4149727,84.781771 11.5126305,84.5361188 11.6916697,84.3559739 C12.050562,84.0038725 12.6934757,83.9956841 13.0507403,84.3559739 C13.2216414,84.5361188 13.3274374,84.781771 13.3274374,85.0356116 C13.3274374,85.2976406 13.2297796,85.5351043 13.0507403,85.7234377 C12.8643768,85.9035826 12.6283705,86.0018435 12.3752741,86.0018435" id="Fill-48" fill="#D3D0CA" mask="url(#mask-4)"></path>
            <path d="M19.2442776,82.9799942 C18.9911812,82.9799942 18.7478505,82.8817333 18.5688113,82.6934 C18.3897721,82.5140739 18.2921143,82.2676029 18.2921143,82.0137623 C18.2921143,81.7607406 18.3897721,81.5142696 18.5688113,81.3341246 C18.926076,80.9746536 19.5689896,80.9746536 19.9278819,81.3341246 C20.1069212,81.5142696 20.204579,81.7607406 20.204579,82.0137623 C20.204579,82.2676029 20.1069212,82.5140739 19.9278819,82.6934 C19.7398907,82.8817333 19.5038845,82.9799942 19.2442776,82.9799942" id="Fill-49" fill="#D3D0CA" mask="url(#mask-4)"></path>
            <path d="M15.8094096,92.6181572 C15.5498027,92.6181572 15.3137964,92.5198964 15.1347572,92.3307442 C14.946766,92.1514181 14.8491082,91.9139543 14.8491082,91.6519254 C14.8491082,91.3980848 14.9549041,91.1524326 15.1347572,90.9722877 C15.4765594,90.6201862 16.1276112,90.6119978 16.4848759,90.9722877 C16.6647289,91.1524326 16.7705248,91.4062732 16.7705248,91.6519254 C16.7705248,91.9057659 16.6647289,92.1514181 16.4848759,92.3307442 C16.3058366,92.5198964 16.062506,92.6181572 15.8094096,92.6181572" id="Fill-50" fill="#D3D0CA" mask="url(#mask-4)"></path>
            <path d="M15.8094096,95.1810464 C15.5498027,95.1810464 15.3137964,95.0827855 15.1347572,94.9026406 C14.946766,94.7224957 14.8491082,94.4768435 14.8491082,94.2230029 C14.8491082,93.9609739 14.9549041,93.7153217 15.1347572,93.5351768 C15.4765594,93.1830754 16.1276112,93.174887 16.4848759,93.5351768 C16.6647289,93.7153217 16.7705248,93.9691623 16.7705248,94.2230029 C16.7705248,94.4768435 16.6647289,94.7143072 16.4848759,94.9026406 C16.3058366,95.0827855 16.062506,95.1810464 15.8094096,95.1810464" id="Fill-51" fill="#D3D0CA" mask="url(#mask-4)"></path>
            <path d="M30.8413006,31.5306848 L31.239256,32.7638587 C31.2848296,32.9038804 31.41504,32.9996848 31.5623405,32.9996848 L32.8506092,32.9996848 C33.1793904,32.9996848 33.3161113,33.4222065 33.0499938,33.6170906 L32.0074971,34.3786123 C31.8886802,34.4654094 31.8390375,34.6201703 31.8846111,34.760192 L32.2825665,35.9933659 C32.3842934,36.3078007 32.0262149,36.5690109 31.7600975,36.3749457 L30.7184146,35.6134239 C30.5987838,35.525808 30.4384623,35.525808 30.3196453,35.6134239 L29.2771486,36.3749457 C29.0110312,36.5690109 28.6537665,36.3078007 28.7546796,35.9933659 L29.1534488,34.760192 C29.1982086,34.6201703 29.1485659,34.4654094 29.0297489,34.3786123 L27.9872522,33.6170906 C27.7219486,33.4222065 27.8586695,32.9996848 28.1866369,32.9996848 L29.4757194,32.9996848 C29.6222061,32.9996848 29.7524165,32.9038804 29.7979901,32.7638587 L30.1959455,31.5306848 C30.2976723,31.21625 30.7395738,31.21625 30.8413006,31.5306848" id="Fill-52" fill="#E14E3A" mask="url(#mask-4)"></path>
            <path d="M37.4605443,28.9021246 C37.1635019,28.9021246 36.8705286,28.7637406 36.6833512,28.5033493 C36.3732878,28.0718203 36.4685041,27.4691536 36.8981983,27.1563565 C39.9532589,24.9307478 41.7778316,21.339313 41.7778316,17.5497188 C41.7778316,11.0145522 36.4945462,5.69863913 29.9994906,5.69863913 C23.5052489,5.69863913 18.2211496,11.0145522 18.2211496,17.5497188 C18.2211496,21.339313 20.0457223,24.9307478 23.1007829,27.1563565 C23.5304771,27.4691536 23.6256934,28.0718203 23.31563,28.5033493 C23.0055666,28.9348783 22.4074127,29.0306826 21.9777186,28.7187043 C18.4254171,26.1311681 16.3046159,21.9559 16.3046159,17.5497188 C16.3046159,9.95087826 22.4481035,3.77026957 29.9994906,3.77026957 C37.5508777,3.77026957 43.6943653,9.95087826 43.6943653,17.5497188 C43.6943653,21.9559 41.5735641,26.1311681 38.0212627,28.7187043 C37.8511754,28.8423493 37.655046,28.9021246 37.4605443,28.9021246" id="Fill-53" fill="#2F5266" mask="url(#mask-4)"></path>
            <path d="M29.2182284,61.8716761 C27.6483798,61.8716761 26.2006033,61.5826254 25.1572928,61.2280674 C24.6567967,61.0577486 24.3866102,60.5099442 24.5566975,60.0055384 C24.725971,59.5027703 25.2671578,59.2309152 25.7709091,59.4004152 C26.0671377,59.5003138 33.0748966,61.7856978 35.9045305,56.1897413 C36.1454197,55.7156326 36.7240419,55.5264804 37.1936131,55.7672196 C37.6648118,56.0087775 37.852803,56.5893355 37.6127277,57.064263 C35.7238636,60.7981761 32.2456193,61.8716761 29.2182284,61.8716761" id="Fill-54" fill="#2F5266" mask="url(#mask-4)"></path>
            <path d="M31.407797,82.2507348 C31.0537876,82.2507348 30.7127992,82.0525754 30.546781,81.7119377 C30.3132162,81.2337348 30.5093456,80.6556333 30.9837996,80.4214449 L33.0810002,79.3847928 C33.556268,79.1506043 34.131635,79.3471261 34.3635722,79.8245101 C34.5971371,80.302713 34.4010077,80.8808145 33.9265537,81.1150029 L31.8301669,82.1516551 C31.6942598,82.2188 31.5494008,82.2507348 31.407797,82.2507348" id="Fill-55" fill="#2F5266" mask="url(#mask-4)"></path>
            <path d="M49.7313246,72.484587 C49.6068109,72.484587 49.4782282,72.4600217 49.356156,72.4067971 L47.2874389,71.5191739 C46.7999638,71.3103696 46.5745371,70.7445507 46.7820599,70.2540652 C46.9887689,69.7652174 47.5511149,69.5334855 48.0394037,69.7455652 L50.1081208,70.6331884 C50.5955959,70.8419928 50.8210225,71.4086304 50.6134998,71.8982971 C50.458875,72.2643188 50.1040517,72.484587 49.7313246,72.484587" id="Fill-56" fill="#2F5266" mask="url(#mask-4)"></path>
            <path d="M0.958022732,48.0545601 C0.836764333,48.0545601 0.713878305,48.0316326 0.59668898,47.983321 C0.19303686,47.8179152 -0.0486661224,47.3986688 0.00830091052,46.9638645 C1.0939298,38.7074949 6.23072854,36.4892558 6.44883089,36.3991833 C6.93874738,36.1961109 7.49783812,36.4311181 7.69966418,36.9232413 C7.90067642,37.4137268 7.66955303,37.9746326 7.18370562,38.1793428 C7.02582556,38.2473065 3.88205915,39.6630819 2.43753796,44.6465457 C3.86089997,44.0160384 5.35831912,44.1478717 6.63356684,44.3967993 C7.15278066,44.4983355 7.49214141,45.0035601 7.3920422,45.5267993 C7.29112917,46.0500384 6.78330876,46.3923138 6.26897783,46.2907775 C4.05458788,45.8576109 2.7817816,46.2457413 1.72545005,47.6672486 C1.5407141,47.9169949 1.25262367,48.0545601 0.958022732,48.0545601" id="Fill-57" fill="#2F5266" mask="url(#mask-4)"></path>
            <path d="M18.0751513,47.1924848 C17.632436,47.1924848 17.2352944,46.8821442 17.1392643,46.4285065 C17.0285855,45.9085428 17.3581805,45.3967674 17.8765805,45.2854051 L20.6451783,44.6909268 C21.1578816,44.5812022 21.6713987,44.9128326 21.7820775,45.4336152 C21.8919425,45.953579 21.5623475,46.4653543 21.0439475,46.5767167 L18.2753497,47.1711949 C18.2086169,47.1851152 18.1410703,47.1924848 18.0751513,47.1924848" id="Fill-58" fill="#2F5266" mask="url(#mask-4)"></path>
            <path d="M38.847366,49.2060138 C38.5902006,49.2060138 38.3330351,49.102021 38.1450439,48.8973109 C37.784524,48.5067239 37.8081246,47.8966877 38.1955004,47.5347601 L40.1397039,45.7210283 C40.5270797,45.3599196 41.1349993,45.3820283 41.4938916,45.7726152 C41.8535977,46.1623833 41.8308109,46.7724196 41.4426213,47.1351659 L39.4992316,48.9488978 C39.3144957,49.1208543 39.0809309,49.2060138 38.847366,49.2060138" id="Fill-59" fill="#2F5266" mask="url(#mask-4)"></path>
        </g>
    </g>
</svg>