<?xml version="1.0" encoding="UTF-8"?>
<svg width="282px" height="140px" viewBox="0 0 282 140" version="1.1" xmlns="http://www.w3.org/2000/svg" xmlns:xlink="http://www.w3.org/1999/xlink">
    <!-- Generator: Sketch 44.1 (41455) - http://www.bohemiancoding.com/sketch -->
    <title>Page 1</title>
    <desc>Created with Sketch.</desc>
    <defs>
        <polygon id="path-1" points="0 140 281.443 140 281.443 0.234 0 0.234"></polygon>
    </defs>
    <g id="Design-1" stroke="none" stroke-width="1" fill="none" fill-rule="evenodd">
        <g id="Page-1" transform="translate(0.000000, -1.000000)">
            <polygon id="Fill-1" fill="#E14E3A" points="140.7213 1.0005 129.6153 35.1815 93.6743 35.1815 101.5823 40.9265 127.7483 40.9265 127.1423 42.7925 104.1503 42.7925 112.1043 48.5705 125.2643 48.5705 124.6583 50.4365 114.6723 50.4365 122.7513 56.3065 111.6453 90.4875 140.7213 69.3625 169.7973 90.4875 158.6913 56.3065 166.7703 50.4365 156.7843 50.4365 156.1783 48.5705 169.3383 48.5705 177.2923 42.7925 154.3003 42.7925 153.6943 40.9265 179.8603 40.9265 187.7683 35.1815 151.8273 35.1815"></polygon>
            <path d="M135.4059,56.7128 L140.7219,40.3538 L146.0369,56.7128 L135.4059,56.7128 Z M157.2109,73.1228 L140.7219,22.4668 L124.2319,73.1228 L131.8789,67.5668 L133.6099,62.2398 L147.8329,62.2398 L149.5639,67.5668 L157.2109,73.1228 Z" id="Fill-2" fill="#FBF9E4"></path>
            <path d="M0,140.4114 L4.469,140.4114 L5.532,137.5384 L14.257,137.5384 L15.357,140.4114 L19.825,140.4114 L9.895,114.8764 L0,140.4114 Z M9.895,125.3394 L12.91,133.9564 L6.88,133.9564 L9.895,125.3394 Z" id="Fill-3" fill="#FBF9E4"></path>
            <g id="Group-16" transform="translate(0.000000, 0.766000)">
                <path d="M41.321,118.6146 C43.591,118.6146 45.683,119.5366 47.173,121.0256 L50.081,118.1186 C47.846,115.8486 44.761,114.4656 41.321,114.4656 C34.05,114.4656 28.873,119.7496 28.873,127.2326 C28.873,135.0346 34.476,139.9996 41.321,139.9996 C44.761,139.9996 47.846,138.6166 50.081,136.3826 L47.173,133.4396 C45.683,134.9286 43.591,135.8506 41.321,135.8506 C36.746,135.8506 33.093,132.5526 33.093,127.2326 C33.093,122.2316 36.214,118.6146 41.321,118.6146 L41.321,118.6146 Z" id="Fill-4" fill="#FBF9E4"></path>
                <polygon id="Fill-6" fill="#FBF9E4" points="59.3419 118.6146 64.5559 118.6146 64.5559 139.6456 68.6689 139.6456 68.6689 118.6146 73.8829 118.6146 73.8829 114.8196 59.3419 114.8196"></polygon>
                <mask id="mask-2" fill="white">
                    <use xlink:href="#path-1"></use>
                </mask>
                <g id="Clip-9"></g>
                <polygon id="Fill-8" fill="#FBF9E4" mask="url(#mask-2)" points="84.526 139.645 88.675 139.645 88.675 114.819 84.526 114.819"></polygon>
                <path d="M112.7238,135.9568 C101.9778,135.9568 102.0128,118.5438 112.7238,118.5438 C123.4698,118.5438 123.4698,135.9568 112.7238,135.9568 M112.7238,114.5008 C96.3738,114.5008 96.3388,139.9648 112.7238,139.9648 C129.0378,139.9648 129.0018,114.5008 112.7238,114.5008" id="Fill-10" fill="#FBF9E4" mask="url(#mask-2)"></path>
                <polygon id="Fill-11" fill="#FBF9E4" mask="url(#mask-2)" points="153.3723 132.4816 140.9953 114.8196 136.8103 114.8196 136.8103 139.6456 140.9593 139.6456 140.9593 121.9836 153.3013 139.6456 157.4863 139.6456 157.4863 114.8196 153.3723 114.8196"></polygon>
                <polygon id="Fill-12" fill="#FBF9E4" mask="url(#mask-2)" points="184.7642 125.1049 174.4442 125.1049 174.4442 114.8199 170.2952 114.8199 170.2952 139.6459 174.4442 139.6459 174.4442 129.2899 184.7642 129.2899 184.7642 139.6459 188.9132 139.6459 188.9132 114.8199 184.7642 114.8199"></polygon>
                <polygon id="Fill-13" fill="#FBF9E4" mask="url(#mask-2)" points="201.6506 139.6454 218.2126 139.6454 218.2126 135.4964 205.7996 135.4964 205.7996 129.2894 216.1206 129.2894 216.1206 125.1764 205.7996 125.1764 205.7996 118.9694 218.2126 118.9694 218.2126 114.8194 201.6506 114.8194"></polygon>
                <path d="M237.8295,125.1759 L233.7155,125.1759 L233.7155,118.9689 L237.8295,118.9689 C237.8295,118.9689 241.9785,118.9689 241.9785,122.0549 C241.9785,125.1759 237.8295,125.1759 237.8295,125.1759 M246.1285,122.0549 C246.1285,114.8199 237.8295,114.8199 237.8295,114.8199 L229.5655,114.8199 L229.5655,139.6449 L233.7155,139.6449 L233.7155,129.2899 L237.0845,129.2899 L241.8365,139.6449 L246.4115,139.6449 L241.3405,128.6509 C243.5745,127.8349 246.1285,126.0629 246.1285,122.0549" id="Fill-14" fill="#FBF9E4" mask="url(#mask-2)"></path>
                <path d="M269.2209,135.9568 C258.4749,135.9568 258.5099,118.5438 269.2209,118.5438 C279.9669,118.5438 279.9669,135.9568 269.2209,135.9568 M269.2209,114.5008 C252.8709,114.5008 252.8359,139.9648 269.2209,139.9648 C285.5349,139.9648 285.4989,114.5008 269.2209,114.5008" id="Fill-15" fill="#FBF9E4" mask="url(#mask-2)"></path>
            </g>
        </g>
    </g>
</svg>