<?xml version="1.0" encoding="UTF-8"?>
<svg width="160px" height="160px" viewBox="0 0 160 160" version="1.1" xmlns="http://www.w3.org/2000/svg" xmlns:xlink="http://www.w3.org/1999/xlink">
    <!-- Generator: Sketch 43.2 (39069) - http://www.bohemiancoding.com/sketch -->
    <title>Group 9</title>
    <desc>Created with Sketch.</desc>
    <defs>
        <polygon id="path-1" points="83.2945 0.504 0.2855 0.504 0.2855 72.2559 83.2945 72.2559 83.2945 0.504"></polygon>
        <polygon id="path-3" points="8.32578438 55 0 55 0 0.563996987 16.6515688 0.563996987 16.6515688 55 8.32578438 55"></polygon>
    </defs>
    <g id="Design-1" stroke="none" stroke-width="1" fill="none" fill-rule="evenodd">
        <g id="Group-9">
            <circle id="Oval-1-Copy" fill="#FFFEF3" cx="80" cy="80" r="80"></circle>
            <g id="Page-1" transform="translate(30.000000, 36.000000)">
                <path d="M20.2149,81.0051 C20.8819,81.3731 21.1239,82.2131 20.7559,82.8801 C20.3869,83.5471 19.5479,83.7891 18.8809,83.4211 C18.2139,83.0521 17.9709,82.2131 18.3399,81.5461 C18.7079,80.8791 19.5479,80.6371 20.2149,81.0051" id="Fill-1" fill="#2F5266"></path>
                <path d="M99.6169,39.4341 C99.6169,57.8281 82.0809,72.7401 60.4499,72.7401 C38.8179,72.7401 21.2829,57.8281 21.2829,39.4341 C21.2829,21.0401 38.8179,6.1281 60.4499,6.1281 C82.0809,6.1281 99.6169,21.0401 99.6169,39.4341" id="Fill-3" fill="#FBF9E4"></path>
                <g id="Group-7" transform="translate(15.000000, 0.496100)">
                    <mask id="mask-2" fill="white">
                        <use xlink:href="#path-1"></use>
                    </mask>
                    <g id="Clip-6"></g>
                    <path d="M76.5435,72.2559 C76.3295,72.2559 76.1155,72.1969 75.9255,72.0799 L65.0145,65.3479 C64.4605,65.0059 64.2885,64.2809 64.6305,63.7279 C64.9725,63.1739 65.6985,63.0029 66.2505,63.3439 L74.1915,68.2439 L70.8315,59.5009 C70.6615,59.0589 70.7725,58.5579 71.1135,58.2299 C77.4495,52.1349 80.9395,44.3019 80.9395,36.1729 C80.9395,17.8039 63.3765,2.8599 41.7905,2.8599 C20.2025,2.8599 2.6405,17.8039 2.6405,36.1729 C2.6405,54.5419 20.2025,69.4859 41.7905,69.4859 C46.4425,69.4859 50.9965,68.7969 55.3255,67.4359 C55.9435,67.2389 56.6065,67.5839 56.8015,68.2049 C56.9965,68.8259 56.6515,69.4859 56.0315,69.6819 C51.4745,71.1149 46.6825,71.8419 41.7905,71.8419 C18.9045,71.8419 0.2855,55.8409 0.2855,36.1729 C0.2855,16.5049 18.9045,0.5039 41.7905,0.5039 C64.6755,0.5039 83.2945,16.5049 83.2945,36.1729 C83.2945,44.7039 79.7545,52.9149 73.3065,59.3769 L77.6425,70.6549 C77.8235,71.1269 77.6845,71.6619 77.2955,71.9849 C77.0785,72.1639 76.8125,72.2559 76.5435,72.2559" id="Fill-5" fill="#2F5266" mask="url(#mask-2)"></path>
                </g>
                <path d="M75.1654,65.4473 C74.3964,65.8723 74.1174,66.8403 74.5424,67.6093 C74.9674,68.3783 75.9354,68.6573 76.7044,68.2323 C77.4734,67.8083 77.7524,66.8403 77.3274,66.0703 C76.9024,65.3013 75.9344,65.0223 75.1654,65.4473" id="Fill-8" fill="#2F5266"></path>
                <path d="M36.1509,87.1377 C31.8919,87.1377 27.7209,86.5047 23.7539,85.2567 C23.1329,85.0617 22.7879,84.4017 22.9839,83.7807 C23.1779,83.1597 23.8409,82.8147 24.4599,83.0107 C28.1989,84.1867 32.1319,84.7827 36.1509,84.7827 C46.2199,84.7827 55.6939,81.0007 62.1449,74.4077 C62.6019,73.9407 63.3449,73.9357 63.8099,74.3887 C64.2749,74.8437 64.2829,75.5887 63.8289,76.0537 C56.9379,83.0977 46.8489,87.1377 36.1509,87.1377" id="Fill-10" fill="#2F5266"></path>
                <g id="Group-14" transform="translate(0.000000, 32.496100)">
                    <mask id="mask-4" fill="white">
                        <use xlink:href="#path-3"></use>
                    </mask>
                    <g id="Clip-13"></g>
                    <path d="M6.0107,55 C5.7427,55 5.4757,54.908 5.2587,54.729 C4.8697,54.406 4.7307,53.871 4.9117,53.399 L8.6357,43.713 C3.0607,38.091 -0.0003,30.961 -0.0003,23.552 C-0.0003,14.966 4.1837,6.682 11.4777,0.824 C11.9857,0.416 12.7267,0.497 13.1337,1.005 C13.5407,1.512 13.4597,2.253 12.9527,2.66 C6.1187,8.148 2.3557,15.567 2.3557,23.552 C2.3557,30.559 5.3647,37.312 10.8277,42.566 C11.1697,42.895 11.2807,43.396 11.1107,43.838 L8.3617,50.988 L14.8557,46.981 C15.4097,46.64 16.1347,46.811 16.4757,47.365 C16.8177,47.919 16.6457,48.644 16.0917,48.985 L6.6287,54.824 C6.4387,54.941 6.2237,55 6.0107,55" id="Fill-12" fill="#2F5266" mask="url(#mask-4)"></path>
                </g>
                <path d="M49.2875,35.6884 C48.6315,34.5004 47.1365,34.0694 45.9495,34.7264 C44.7615,35.3824 44.3305,36.8764 44.9865,38.0644 C45.6425,39.2514 47.1375,39.6824 48.3255,39.0264 C49.5125,38.3704 49.9435,36.8764 49.2875,35.6884" id="Fill-15" fill="#E14E3A"></path>
                <path d="M47.1343,35.5879 C46.9243,35.5879 46.7103,35.6389 46.5133,35.7479 C46.2123,35.9139 45.9933,36.1889 45.8983,36.5199 C45.8033,36.8509 45.8423,37.1979 46.0093,37.4999 C46.1753,37.8019 46.4483,38.0199 46.7803,38.1149 C47.1093,38.2099 47.4593,38.1699 47.7603,38.0049 C48.3823,37.6609 48.6093,36.8749 48.2653,36.2529 C48.0303,35.8279 47.5893,35.5879 47.1343,35.5879 M47.1413,40.5019 C46.8043,40.5019 46.4663,40.4539 46.1333,40.3589 C45.2023,40.0909 44.4323,39.4769 43.9653,38.6289 C43.4963,37.7819 43.3863,36.8029 43.6553,35.8719 C43.9233,34.9419 44.5373,34.1719 45.3843,33.7039 C47.1343,32.7379 49.3423,33.3739 50.3093,35.1239 C51.2753,36.8729 50.6383,39.0819 48.8903,40.0479 C48.3453,40.3489 47.7473,40.5019 47.1413,40.5019" id="Fill-17" fill="#2F5266"></path>
                <path d="M58.9403,35.6884 C58.2843,34.5004 56.7893,34.0694 55.6023,34.7264 C54.4143,35.3824 53.9833,36.8764 54.6393,38.0644 C55.2953,39.2514 56.7903,39.6824 57.9783,39.0264 C59.1653,38.3704 59.5963,36.8764 58.9403,35.6884" id="Fill-19" fill="#E14E3A"></path>
                <path d="M56.7871,35.5879 C56.5771,35.5879 56.3631,35.6389 56.1661,35.7479 C55.8651,35.9139 55.6461,36.1889 55.5511,36.5199 C55.4561,36.8509 55.4951,37.1979 55.6621,37.4999 C55.8281,37.8019 56.1011,38.0199 56.4331,38.1149 C56.7631,38.2099 57.1121,38.1699 57.4131,38.0049 C58.0351,37.6609 58.2621,36.8749 57.9181,36.2529 C57.6831,35.8279 57.2421,35.5879 56.7871,35.5879 M56.7941,40.5019 C56.4571,40.5019 56.1191,40.4539 55.7861,40.3589 C54.8551,40.0909 54.0851,39.4769 53.6181,38.6289 C53.1491,37.7819 53.0391,36.8029 53.3081,35.8719 C53.5761,34.9419 54.1901,34.1719 55.0371,33.7039 C56.7871,32.7379 58.9961,33.3739 59.9621,35.1239 C60.9281,36.8729 60.2911,39.0819 58.5431,40.0479 C57.9981,40.3489 57.4001,40.5019 56.7941,40.5019" id="Fill-21" fill="#2F5266"></path>
                <path d="M68.5932,35.6884 C67.9372,34.5004 66.4422,34.0694 65.2552,34.7264 C64.0672,35.3824 63.6362,36.8764 64.2922,38.0644 C64.9482,39.2514 66.4432,39.6824 67.6312,39.0264 C68.8182,38.3704 69.2492,36.8764 68.5932,35.6884" id="Fill-23" fill="#E14E3A"></path>
                <path d="M66.4399,35.5879 C66.2299,35.5879 66.0159,35.6389 65.8189,35.7479 C65.5179,35.9139 65.2989,36.1889 65.2039,36.5199 C65.1089,36.8509 65.1479,37.1979 65.3149,37.4999 C65.6589,38.1219 66.4449,38.3479 67.0659,38.0049 C67.6879,37.6609 67.9149,36.8749 67.5709,36.2529 C67.3359,35.8279 66.8949,35.5879 66.4399,35.5879 M66.4489,40.4999 C65.1709,40.4999 63.9309,39.8239 63.2709,38.6289 C62.8019,37.7819 62.6919,36.8029 62.9609,35.8719 C63.2289,34.9419 63.8429,34.1719 64.6899,33.7039 C66.4399,32.7379 68.6479,33.3739 69.6149,35.1239 C70.5809,36.8729 69.9439,39.0819 68.1959,40.0479 C67.6419,40.3549 67.0409,40.4999 66.4489,40.4999" id="Fill-25" fill="#2F5266"></path>
            </g>
        </g>
    </g>
</svg>