<?xml version="1.0" encoding="utf-8"?>
<svg version="1.1" id="Capa_1" xmlns="http://www.w3.org/2000/svg" xmlns:xlink="http://www.w3.org/1999/xlink" x="0px" y="0px"
	 width="100%" height="100%"  viewBox="0 0 1200 1200" enable-background="new 0 0 1200 1200" xml:space="preserve">
<g>
	<line fill="none" x1="828.617" y1="91.688" x2="835.142" y2="63.169"/>
	<g>
		<g>
			<g>
				<g>
					<path fill="#17171C" d="M692.393,1041.679l-17.022-88.646c-1.666-8.666-15.095-6.087-13.433,2.569l17.031,88.659
						C680.632,1052.921,694.059,1050.343,692.393,1041.679z"/>
					<path fill="#17171C" d="M538.05,244.391l-17.017-88.652c-1.662-8.667-15.105-6.088-13.439,2.574l17.037,88.653
						C526.286,255.639,539.717,253.044,538.05,244.391z"/>
				</g>
				<g>
					<path fill="#17171C" d="M977.655,846.976l-74.731-50.64c-7.3-4.958-14.979,6.366-7.675,11.314l74.729,50.641
						C977.283,863.248,984.949,851.928,977.655,846.976z"/>
					<path fill="#17171C" d="M304.747,392.345l-74.729-50.646c-7.303-4.952-14.982,6.378-7.68,11.31l74.732,50.652
						C304.373,408.61,312.043,397.29,304.747,392.345z"/>
				</g>
				<g>
					<path fill="#17171C" d="M1041.682,507.603l-88.65,17.022c-8.666,1.666-6.081,15.098,2.572,13.436l88.652-17.03
						C1052.924,519.371,1050.338,505.93,1041.682,507.603z"/>
					<path fill="#17171C" d="M244.387,661.938l-88.652,17.031c-8.656,1.659-6.079,15.106,2.577,13.44l88.656-17.047
						C255.635,673.712,253.043,660.278,244.387,661.938z"/>
				</g>
				<g>
					<path fill="#17171C" d="M846.975,222.343l-50.638,74.731c-4.953,7.302,6.368,14.979,11.311,7.675l50.644-74.729
						C863.244,222.722,851.927,215.046,846.975,222.343z"/>
					<path fill="#17171C" d="M392.348,895.252L341.7,969.973c-4.948,7.304,6.375,14.977,11.317,7.68l50.645-74.731
						C408.615,895.628,397.293,887.956,392.348,895.252z"/>
				</g>
			</g>
			<g>
				<g>
					<path fill="#17171C" d="M859.053,969.471l-50.606-74.745c-4.938-7.309-16.257,0.353-11.323,7.652l50.603,74.767
						C852.668,984.455,863.995,976.772,859.053,969.471z"/>
					<path fill="#17171C" d="M402.866,297.62l-50.595-74.761c-4.945-7.31-16.265,0.355-11.333,7.655l50.608,74.764
						C396.487,312.589,407.811,304.918,402.866,297.62z"/>
				</g>
				<g>
					<path fill="#17171C" d="M1044.441,678.071l-88.648-17.075c-8.659-1.666-11.253,11.763-2.594,13.428l88.65,17.081
						C1050.514,693.173,1053.094,679.752,1044.441,678.071z"/>
					<path fill="#17171C" d="M246.792,525.573l-88.64-17.077c-8.666-1.668-11.255,11.763-2.602,13.423l88.649,17.082
						C252.864,540.668,255.451,527.239,246.792,525.573z"/>
				</g>
				<g>
					<path fill="#17171C" d="M969.476,340.947l-74.761,50.601c-7.303,4.939,0.366,16.273,7.666,11.327l74.758-50.603
						C984.448,347.327,976.776,336.001,969.476,340.947z"/>
					<path fill="#17171C" d="M297.616,797.124l-74.756,50.603c-7.303,4.956,0.366,16.272,7.663,11.333l74.761-50.608
						C312.586,803.512,304.921,792.191,297.616,797.124z"/>
				</g>
				<g>
					<path fill="#17171C" d="M678.068,155.561L661,244.2c-1.67,8.66,11.762,11.264,13.429,2.6l17.079-88.652
						C693.176,149.481,679.748,146.9,678.068,155.561z"/>
					<path fill="#17171C" d="M525.574,953.211l-17.086,88.633c-1.665,8.659,11.762,11.256,13.429,2.599L539,955.802
						C540.672,947.133,527.241,944.544,525.574,953.211z"/>
				</g>
			</g>
			<g>
				<path fill="#17171C" d="M806.428,795.404l-65.195-64.815c-6.371-6.335-16.187,3.545-9.814,9.881l65.195,64.813
					C802.98,811.625,812.807,801.739,806.428,795.404z"/>
				<path fill="#17171C" d="M880.524,869.063l-35.562-35.356c-6.371-6.336-16.196,3.552-9.825,9.888l35.564,35.348
					C877.068,885.275,886.896,875.404,880.524,869.063z"/>
				<path fill="#17171C" d="M990.177,978.077l-65.194-64.813c-6.374-6.343-16.19,3.536-9.824,9.871l65.198,64.818
					C986.727,994.287,996.553,984.413,990.177,978.077z"/>
				<path fill="#17171C" d="M284.849,276.863l-65.203-64.816c-6.374-6.342-16.194,3.538-9.825,9.874l65.203,64.813
					C281.392,293.076,291.208,283.198,284.849,276.863z"/>
				<path fill="#17171C" d="M358.932,350.521l-35.565-35.354c-6.369-6.339-16.194,3.542-9.82,9.879l35.565,35.355
					C355.476,366.735,365.299,356.851,358.932,350.521z"/>
				<path fill="#17171C" d="M468.581,459.536l-65.189-64.819c-6.378-6.342-16.197,3.543-9.832,9.87l65.202,64.814
					C465.133,475.745,474.956,465.864,468.581,459.536z"/>
				<path fill="#17171C" d="M884.146,592.208l-91.941,0.253c-8.985,0.044-8.939,13.972,0.043,13.938l91.933-0.264
					C893.168,606.107,893.128,592.173,884.146,592.208z"/>
				<path fill="#17171C" d="M988.617,591.896l-50.148,0.15c-8.979,0.021-8.942,13.951,0.04,13.923l50.154-0.145
					C997.646,605.797,997.6,591.862,988.617,591.896z"/>
				<path fill="#17171C" d="M1143.246,591.436l-91.946,0.276c-8.985,0.033-8.94,13.96,0.042,13.927l91.938-0.27
					C1152.268,605.343,1152.225,591.415,1143.246,591.436z"/>
				<path fill="#17171C" d="M148.648,594.352l-91.929,0.277c-8.988,0.033-8.942,13.946,0.037,13.928l91.939-0.271
					C157.671,608.26,157.627,594.332,148.648,594.352z"/>
				<path fill="#17171C" d="M253.129,594.049l-50.154,0.151c-8.986,0.025-8.942,13.954,0.046,13.921l50.144-0.138
					C262.152,607.95,262.102,594.022,253.129,594.049z"/>
				<path fill="#17171C" d="M407.752,593.595l-91.942,0.271c-8.979,0.035-8.939,13.956,0.042,13.937l91.934-0.276
					C416.773,607.503,416.728,593.569,407.752,593.595z"/>
				<path fill="#17171C" d="M795.395,393.57l-64.807,65.195c-6.338,6.375,3.543,16.193,9.871,9.826l64.824-65.206
					C811.614,397.014,801.739,387.196,795.395,393.57z"/>
				<path fill="#17171C" d="M869.06,319.478l-35.356,35.562c-6.33,6.365,3.541,16.196,9.877,9.812l35.364-35.555
					C885.271,322.922,875.397,313.104,869.06,319.478z"/>
				<path fill="#17171C" d="M978.078,209.824l-64.824,65.188c-6.327,6.368,3.555,16.2,9.882,9.832l64.819-65.202
					C994.286,213.269,984.408,203.449,978.078,209.824z"/>
				<path fill="#17171C" d="M276.863,915.153l-64.822,65.203c-6.333,6.371,3.548,16.19,9.877,9.825l64.819-65.203
					C293.07,918.611,283.195,908.799,276.863,915.153z"/>
				<path fill="#17171C" d="M350.519,841.075l-35.352,35.561c-6.341,6.368,3.537,16.187,9.879,9.82l35.35-35.569
					C366.724,844.513,356.849,834.7,350.519,841.075z"/>
				<path fill="#17171C" d="M459.53,731.42l-64.818,65.19c-6.329,6.378,3.547,16.198,9.878,9.825l64.819-65.203
					C475.746,734.865,465.858,725.041,459.53,731.42z"/>
				<path fill="#17171C" d="M592.203,315.85l0.265,91.941c0.023,8.982,13.958,8.949,13.932-0.034l-0.27-91.947
					C606.104,306.834,592.169,306.877,592.203,315.85z"/>
				<path fill="#17171C" d="M591.896,211.378l0.143,50.148c0.026,8.983,13.959,8.939,13.934-0.042l-0.146-50.147
					C605.791,202.353,591.87,202.396,591.896,211.378z"/>
				<path fill="#17171C" d="M591.438,56.76l0.274,91.941c0.023,8.976,13.957,8.933,13.929-0.043l-0.268-91.938
					C605.346,47.738,591.415,47.776,591.438,56.76z"/>
				<path fill="#17171C" d="M594.355,1051.353l0.27,91.933c0.023,8.976,13.958,8.937,13.938-0.039l-0.279-91.949
					C608.264,1042.324,594.33,1042.357,594.355,1051.353z"/>
				<path fill="#17171C" d="M594.053,946.869l0.145,50.142c0.025,8.995,13.954,8.948,13.928-0.04l-0.145-50.142
					C607.954,937.847,594.019,937.887,594.053,946.869z"/>
				<path fill="#17171C" d="M593.599,792.25l0.272,91.942c0.017,8.976,13.951,8.943,13.925-0.04l-0.27-91.947
					C607.5,783.229,593.564,783.271,593.599,792.25z"/>
			</g>
			<g>
				<path fill="#17171C" d="M714.098,860.344l-34.825-85.074c-3.406-8.313-16.296-3.042-12.892,5.273l34.83,85.075
					C704.601,873.936,717.505,868.661,714.098,860.344z"/>
				<path fill="#17171C" d="M753.676,957.037l-18.993-46.415c-3.408-8.31-16.297-3.028-12.893,5.282l18.995,46.407
					C744.19,970.623,757.081,965.354,753.676,957.037z"/>
				<path fill="#17171C" d="M812.253,1100.125l-34.822-85.077c-3.411-8.312-16.296-3.033-12.895,5.271l34.831,85.079
					C802.763,1113.717,815.661,1108.442,812.253,1100.125z"/>
				<path fill="#17171C" d="M435.473,179.675l-34.839-85.082c-3.398-8.316-16.291-3.033-12.888,5.275l34.836,85.083
					C425.977,193.269,438.861,187.994,435.473,179.675z"/>
				<path fill="#17171C" d="M475.041,276.363l-18.998-46.408c-3.406-8.316-16.299-3.034-12.889,5.282l19,46.4
					C465.551,289.949,478.446,284.677,475.041,276.363z"/>
				<path fill="#17171C" d="M533.618,419.457l-34.83-85.083c-3.405-8.317-16.291-3.025-12.893,5.271l34.836,85.081
					C524.128,433.056,537.022,427.774,533.618,419.457z"/>
				<path fill="#17171C" d="M864.773,703.414l-84.785-35.543c-8.295-3.471-13.674,9.385-5.39,12.853l84.788,35.541
					C867.677,719.732,873.063,706.884,864.773,703.414z"/>
				<path fill="#17171C" d="M961.122,743.788l-46.252-19.37c-8.278-3.478-13.658,9.375-5.38,12.841l46.252,19.387
					C964.034,760.106,969.421,747.259,961.122,743.788z"/>
				<path fill="#17171C" d="M1103.736,803.558l-84.794-35.535c-8.287-3.47-13.667,9.378-5.379,12.842l84.79,35.548
					C1106.634,819.877,1112.021,807.028,1103.736,803.558z"/>
				<path fill="#17171C" d="M186.436,419.134L101.649,383.6c-8.291-3.47-13.664,9.362-5.383,12.835l84.794,35.541
					C189.343,435.445,194.716,422.599,186.436,419.134z"/>
				<path fill="#17171C" d="M282.801,459.509l-46.253-19.374c-8.288-3.483-13.674,9.372-5.383,12.834l46.241,19.388
					C285.698,475.82,291.078,462.985,282.801,459.509z"/>
				<path fill="#17171C" d="M425.397,519.271l-84.792-35.535c-8.286-3.466-13.667,9.379-5.383,12.858l84.792,35.528
					C428.298,535.595,433.682,522.742,425.397,519.271z"/>
				<path fill="#17171C" d="M860.346,485.896l-85.083,34.829c-8.315,3.398-3.035,16.299,5.282,12.893l85.074-34.831
					C873.936,495.387,868.658,482.49,860.346,485.896z"/>
				<path fill="#17171C" d="M957.023,446.317l-46.408,18.993c-8.313,3.398-3.035,16.305,5.286,12.895l46.407-18.986
					C970.623,455.809,965.352,442.914,957.023,446.317z"/>
				<path fill="#17171C" d="M1100.123,387.748l-85.079,34.817c-8.312,3.403-3.032,16.305,5.278,12.901l85.085-34.83
					C1113.719,397.232,1108.44,384.336,1100.123,387.748z"/>
				<path fill="#17171C" d="M179.678,764.533l-85.089,34.829c-8.308,3.405-3.032,16.292,5.275,12.894l85.084-34.828
					C193.265,774.029,187.986,761.135,179.678,764.533z"/>
				<path fill="#17171C" d="M276.361,724.961l-46.409,19.002c-8.322,3.398-3.042,16.287,5.282,12.886l46.404-19.007
					C289.952,734.443,284.677,721.557,276.361,724.961z"/>
				<path fill="#17171C" d="M419.457,666.387l-85.083,34.827c-8.31,3.408-3.024,16.292,5.278,12.888l85.083-34.831
					C433.046,675.866,427.77,662.972,419.457,666.387z"/>
				<path fill="#17171C" d="M703.412,335.224l-35.534,84.794c-3.478,8.278,9.375,13.664,12.852,5.387l35.535-84.797
					C719.726,332.333,706.881,326.938,703.412,335.224z"/>
				<path fill="#17171C" d="M743.791,238.871l-19.379,46.253c-3.471,8.278,9.377,13.665,12.847,5.381l19.388-46.243
					C760.11,235.968,747.263,230.581,743.791,238.871z"/>
				<path fill="#17171C" d="M803.555,96.266l-35.539,84.794c-3.47,8.284,9.375,13.664,12.842,5.381l35.539-84.781
					C819.879,93.361,807.024,87.981,803.555,96.266z"/>
				<path fill="#17171C" d="M419.131,1013.56l-35.542,84.784c-3.47,8.29,9.375,13.672,12.847,5.396l35.543-84.801
					C435.449,1010.655,422.598,1005.268,419.131,1013.56z"/>
				<path fill="#17171C" d="M459.513,917.209l-19.383,46.241c-3.48,8.286,9.375,13.679,12.846,5.381l19.386-46.235
					C475.828,914.304,462.983,908.918,459.513,917.209z"/>
				<path fill="#17171C" d="M519.276,774.595l-35.535,84.799c-3.477,8.276,9.367,13.66,12.846,5.382l35.538-84.793
					C535.594,771.697,522.742,766.31,519.276,774.595z"/>
			</g>
		</g>
	</g>
</g>
</svg>
