<?xml version="1.0" encoding="UTF-8"?>
<svg width="53px" height="47px" viewBox="0 0 53 47" version="1.1" xmlns="http://www.w3.org/2000/svg" xmlns:xlink="http://www.w3.org/1999/xlink">
    <!-- Generator: Sketch 43.2 (39069) - http://www.bohemiancoding.com/sketch -->
    <title>Group 32</title>
    <desc>Created with Sketch.</desc>
    <defs>
        <polygon id="path-1" points="52.5927319 47 0 47 0 23.500038 0 7.60206246e-05 52.5927319 7.60206246e-05 52.5927319 47"></polygon>
    </defs>
    <g id="Design-1" stroke="none" stroke-width="1" fill="none" fill-rule="evenodd">
        <g id="Group-32">
            <g id="Group-62">
                <mask id="mask-2" fill="white">
                    <use xlink:href="#path-1"></use>
                </mask>
                <g id="Clip-61"></g>
                <path d="M0,23.415635 C0,27.363635 3.87855143,31.048435 9.99250084,33.125835 C8.77136594,39.235835 9.77380776,44.16026 13.1215852,46.079035 C16.5627504,48.05186 21.6884435,46.68651 26.552887,42.460035 C31.2955717,46.516135 36.0890877,48.11296 39.4333187,46.18831 C42.8709376,44.20961 43.9159359,38.951485 42.6617015,32.651135 C49.0298078,30.55846 52.5927319,27.415335 52.5927319,23.415635 C52.5927319,19.559285 48.7070877,16.22346 42.6747049,14.158985 C44.0258735,7.597785 42.8815767,2.79321 39.3954907,0.794535 C36.0347099,-1.13129 31.1856341,0.547785 26.373204,4.709635 C21.3669056,0.291635 16.5662968,-1.057265 13.0837572,0.947285 C9.72652277,2.878985 8.76781956,7.89271 9.99250084,14.11551 C4.08424115,16.163535 0,19.57456 0,23.415635" id="Fill-60" fill="#FEFEFE" mask="url(#mask-2)"></path>
            </g>
            <path d="M41.3974191,16.23521 C40.9127479,16.069535 40.4103449,15.912085 39.8937563,15.764035 C39.9788693,15.41976 40.0568895,15.07901 40.1266349,14.74531 C41.263839,9.25336 40.5202825,4.829485 37.9787142,3.372485 C35.542355,1.976585 31.5574123,3.43241 27.5334595,6.913935 C27.1457226,7.24881 26.7579857,7.60366 26.3702487,7.97496 C26.1113634,7.72821 25.8536602,7.49086 25.595957,7.264085 C21.3781358,3.541685 17.1508575,1.97306 14.6116535,3.433585 C12.1776585,4.834185 11.4565624,8.993685 12.4814646,14.19776 C12.5807631,14.70066 12.6954292,15.214135 12.826645,15.735835 C12.2284899,15.90386 11.6504309,16.08481 11.0983786,16.276335 C6.15355059,17.989485 2.99491315,20.675535 2.99491315,23.46146 C2.99491315,26.33786 6.38524705,29.22366 11.5357648,30.973235 C11.9424157,31.111885 12.3644342,31.24231 12.798274,31.36686 C12.6576012,31.93086 12.5346602,32.484285 12.4318153,33.02361 C11.4553803,38.13721 12.2178508,42.19801 14.6459351,43.590385 C17.1532218,45.02741 21.361586,43.550435 25.4600126,39.98901 C25.7839148,39.708185 26.1089992,39.409735 26.4340835,39.09601 C26.856102,39.50021 27.2781206,39.88326 27.6977749,40.241635 C31.6661678,43.637385 35.5872757,45.007435 38.0129958,43.611535 C40.5179182,42.170985 41.3324022,37.80821 40.2755826,32.500735 C40.194016,32.09536 40.1006282,31.68176 39.9954191,31.259935 C40.2909503,31.172985 40.5805708,31.083685 40.8630987,30.99086 C46.2181239,29.227185 49.7018457,26.376635 49.7018457,23.46146 C49.7018457,20.66496 46.4415455,17.961285 41.3974191,16.23521" id="Fill-63" fill="#53C0DE"></path>
            <path d="M36.9823012,5.0913925 C38.5462523,5.9879175 39.1550465,9.6033925 38.1715187,14.3445175 C38.1088661,14.6476675 38.0391207,14.9555175 37.9622826,15.2680675 C36.0247801,14.8239175 33.920598,14.4925675 31.7171174,14.2869425 C30.4333298,12.4703925 29.1034395,10.8195175 27.7688206,9.3895425 C28.1270044,9.0464425 28.4863703,8.7186175 28.843372,8.4095925 C32.29163,5.4274425 35.5141022,4.2500925 36.9823012,5.0913925 L36.9823012,5.0913925 Z M32.8661427,27.2389675 C32.1355895,28.4962175 31.3861224,29.6982425 30.6260162,30.8321175 C29.2393838,30.9308175 27.8078307,30.9813425 26.3479066,30.9813425 C24.8950752,30.9813425 23.481254,30.9366925 22.1194462,30.8485675 C21.3274226,29.6994175 20.5625879,28.4950425 19.8367632,27.2495425 L19.8367632,27.2495425 C19.1133029,26.0075675 18.4477666,24.7538425 17.8437008,23.5083425 C18.4465845,22.2604925 19.1109386,21.0055925 19.8308526,19.7659675 L19.8308526,19.7659675 C20.5519487,18.5228175 21.3108728,17.3243175 22.0958037,16.1822175 C23.4848003,16.0788175 24.9092607,16.0235925 26.3479066,16.0235925 L26.3479066,16.0235925 C27.7948273,16.0235925 29.2204698,16.0788175 30.6094664,16.1845675 C31.3813939,17.3172675 32.1355895,18.5122425 32.860232,19.7553925 C33.5919673,21.0126425 34.2645963,22.2593175 34.8733906,23.4801425 C34.2669605,24.7232925 33.5955137,25.9817175 32.8661427,27.2389675 L32.8661427,27.2389675 Z M35.9491241,25.7690425 C36.573286,27.1837425 37.0993315,28.5526175 37.5178037,29.8533425 C36.1630887,30.1600175 34.7008003,30.4079425 33.1604917,30.5912425 C33.6451629,29.8274925 34.1239234,29.0402425 34.5944091,28.2294925 C35.0708054,27.4093425 35.5223771,26.5880175 35.9491241,25.7690425 L35.9491241,25.7690425 Z M26.4259268,36.2547425 C25.480227,35.2407175 24.5368914,34.1185925 23.6160162,32.9118675 C24.5097025,32.9459425 25.4211207,32.9647425 26.3479066,32.9647425 C27.3006992,32.9647425 28.2416705,32.9435925 29.1672742,32.9024675 C28.2582202,34.1303425 27.3397093,35.2536425 26.4259268,36.2547425 L26.4259268,36.2547425 Z M19.5766958,30.6276675 C18.0470263,30.4572925 16.6036519,30.2281675 15.2713973,29.9391175 C15.6839589,28.6160675 16.1922725,27.2401425 16.7856992,25.8407175 C17.2041713,26.6432425 17.6451039,27.4457675 18.1096789,28.2424175 L18.1096789,28.2424175 C18.583711,29.0555175 19.0731106,29.8509925 19.5766958,30.6276675 L19.5766958,30.6276675 Z M18.1025862,18.7754425 C17.6403754,19.5709175 17.200625,20.3734425 16.7833349,21.1759675 C16.2029116,19.8070925 15.7052371,18.4593675 15.2997683,17.1586425 C16.6320229,16.8625425 18.0529369,16.6204925 19.5341393,16.4371925 C19.0435575,17.1974175 18.564797,17.9776175 18.1025862,18.7754425 L18.1025862,18.7754425 Z M26.3703669,10.8077675 C27.2912422,11.7982925 28.2121174,12.9051425 29.1188071,14.1059925 C28.2062067,14.0625175 27.280603,14.0401925 26.3479066,14.0401925 C25.4246671,14.0401925 24.5061562,14.0625175 23.5982843,14.1048175 C24.5061562,12.9157175 25.4353062,11.8100425 26.3703669,10.8077675 L26.3703669,10.8077675 Z M34.5861342,18.7613425 C34.1239234,17.9682175 33.6498914,17.1938925 33.1664024,16.4395425 C34.6570617,16.6275425 36.0838863,16.8754675 37.425598,17.1797925 C37.0224934,18.4628925 36.5212725,19.8035675 35.9302101,21.1783175 C35.5070094,20.3781425 35.0589841,19.5720925 34.5861342,18.7613425 L34.5861342,18.7613425 Z M14.4391815,13.8169425 C13.5620449,9.3578175 14.1448324,5.9949675 15.6118492,5.1501425 C17.1746182,4.2512675 20.629969,5.5331925 24.2709133,8.7468175 C24.5037919,8.9524425 24.7378526,9.1674675 24.9719133,9.3907175 C23.6148341,10.8383175 22.2743046,12.4880175 20.9928813,14.2845925 C18.7964934,14.4866925 16.6934934,14.8121675 14.7607194,15.2469175 C14.6389605,14.7616425 14.5313872,14.2834175 14.4391815,13.8169425 L14.4391815,13.8169425 Z M12.1813231,29.0978175 C9.90336863,28.3234925 8.02260809,27.3176925 6.73290995,26.2202425 C5.57442766,25.2344175 4.99045801,24.2556425 4.99045801,23.4613425 C4.99045801,21.7705175 7.52611568,19.6143925 11.7545761,18.1491675 C12.2676182,17.9705675 12.805485,17.8037175 13.3622658,17.6462675 C13.9474175,19.5356675 14.7134344,21.5120175 15.6390381,23.5095175 C14.7016132,25.5375675 13.923775,27.5444675 13.3338948,29.4561925 C12.9367008,29.3422175 12.5513282,29.2235425 12.1813231,29.0978175 L12.1813231,29.0978175 Z M18.9182523,41.7490425 C17.4807885,42.2542925 16.3353096,42.2683925 15.6425845,41.8724175 C14.169657,41.0275925 13.5561342,37.7669675 14.3918965,33.3936175 C14.4876486,32.8930675 14.6023147,32.3784175 14.7335305,31.8520175 C16.6462084,32.2726675 18.7633939,32.5758175 21.0271629,32.7579425 C22.3192253,34.5650925 23.6727582,36.2265425 25.0369302,37.6811925 C24.7390347,37.9678925 24.4423214,38.2393175 24.1467902,38.4966425 C22.3345929,40.0711425 20.5188492,41.1873925 18.9182523,41.7490425 L18.9182523,41.7490425 Z M38.3181022,32.8871925 C38.7850415,35.2336675 38.8512405,37.3557175 38.5427059,39.0136425 C38.2637245,40.5047175 37.7045794,41.4975925 37.0130364,41.8959175 C35.5412911,42.7430925 32.3932927,41.6421175 28.9982304,38.7386925 C28.6093113,38.4049925 28.2168459,38.0501425 27.8243804,37.6741425 C29.1400853,36.2429925 30.4557902,34.5803675 31.7395777,32.7332675 C33.9974361,32.5335175 36.1299892,32.2080425 38.0651275,31.7638925 C38.1596975,32.1457675 38.2448105,32.5205925 38.3181022,32.8871925 L38.3181022,32.8871925 Z M40.2355086,29.1083925 C39.9801696,29.1918175 39.7189201,29.2740675 39.4517599,29.3527925 C38.8606975,27.4927675 38.0627632,25.5140675 37.0863282,23.4707425 C38.0178425,21.4755925 38.7850415,19.5239175 39.3595541,17.6756425 C39.8371325,17.8131175 40.3005255,17.9576425 40.7473686,18.1103925 C45.070399,19.5897175 47.7065373,21.7763925 47.7065373,23.4613425 C47.7065373,25.2555675 44.8587987,27.5855925 40.2355086,29.1083925 L40.2355086,29.1083925 Z" id="Fill-65" fill="#FEFEFE"></path>
            <path d="M26.3483794,19.354365 C28.6523406,19.354365 30.5189157,21.210865 30.5189157,23.499765 C30.5189157,25.78984 28.6523406,27.645165 26.3483794,27.645165 C24.0444182,27.645165 22.1778432,25.78984 22.1778432,23.499765 C22.1778432,21.210865 24.0444182,19.354365 26.3483794,19.354365" id="Fill-67" fill="#53C0DE"></path>
        </g>
    </g>
</svg>