<?xml version="1.0" encoding="UTF-8"?>
<svg width="115px" height="47px" viewBox="0 0 115 47" version="1.1" xmlns="http://www.w3.org/2000/svg" xmlns:xlink="http://www.w3.org/1999/xlink">
    <!-- Generator: Sketch 43.2 (39069) - http://www.bohemiancoding.com/sketch -->
    <title>Group 50</title>
    <desc>Created with Sketch.</desc>
    <defs></defs>
    <g id="Design-1" stroke="none" stroke-width="1" fill="none" fill-rule="evenodd">
        <g id="Group-50">
            <path d="M114.526279,32.3924 C114.248479,29.681675 112.26842,28.4726 110.408938,28.4726 C109.557808,28.4726 108.880451,28.71465 108.620383,28.81805 L108.255107,28.97315 L107.943026,29.197575 C107.508004,29.526575 106.744351,29.975425 106.066994,30.2163 C106.03153,29.66405 106.049262,28.9567 106.135557,28.3692 L106.153289,28.2658 C106.656874,23.5 105.649704,20.71995 103.164877,20.0126 C102.748769,19.891575 102.313748,19.839875 101.879908,19.839875 C100.369152,19.839875 99.030987,20.56485 98.1621253,21.186425 C97.4327543,20.2711 96.2163479,19.752925 94.6878605,19.752925 C92.4122703,19.752925 90.5882518,20.8069 89.9286261,22.4989 C89.8588808,22.671625 89.7725857,22.930125 89.6673766,23.275575 C88.3303934,20.340425 85.6032315,19.2183 83.0663917,19.2183 C80.6690427,19.2183 78.341439,20.150075 77.4725772,20.8069 C77.4382956,20.840975 77.3862821,20.8586 77.3342686,20.9103 C75.0586784,22.51535 73.2866734,24.53635 72.0359853,26.97095 C71.4283732,24.864175 70.0902079,22.89605 67.6928589,21.41085 L67.6585772,21.376775 C67.5888319,21.341525 67.5368184,21.30745 67.467073,21.2722 C69.8124086,17.12915 71.8964946,11.638375 70.6458066,6.4061 C69.3253732,0.828375 66.0248808,0 64.1665806,0 C63.4017459,0 62.6203614,0.13865 61.821245,0.414775 L61.7692315,0.431225 L61.717218,0.44885 C58.2252214,1.813025 56.6967341,3.8681 56.3669212,4.351025 C56.0193766,4.8692 52.1975671,10.6361 51.2766919,19.07965 C51.1726649,20.0126 51.0686379,20.979625 50.964611,21.945475 C50.4255621,21.186425 49.5401506,20.495525 48.13224,20.0643 C47.6984002,19.92565 47.2468285,19.87395 46.7952568,19.87395 C44.8672113,19.87395 43.3032602,21.047775 42.4698622,21.825625 L42.4521304,21.808 C41.7227594,20.737575 40.5583664,20.098375 39.2733968,20.046675 L38.9601337,20.046675 C36.9103293,20.046675 35.277815,20.944375 34.0791405,21.9631 C33.3154879,20.634175 31.9075772,19.804625 30.257331,19.804625 C30.1190224,19.804625 29.9972636,19.804625 29.8755047,19.82225 L29.5977054,19.82225 C27.3221152,19.82225 25.5323782,20.892675 24.8030073,22.671625 C24.7509938,22.8091 24.6812484,22.981825 24.611503,23.20625 C22.8229482,20.996075 20.547358,19.9609 17.4892012,19.9609 L17.1948521,19.9609 C15.2833563,19.994975 10.5241219,20.789275 7.60545582,27.3164 C7.15388415,28.3175 6.80633946,29.336225 6.54508988,30.337325 C5.90319612,30.043575 5.31213373,29.975425 4.87829393,29.975425 C3.34980658,29.975425 2.20314553,30.837875 1.64636476,31.6498 C1.19479309,32.306625 -0.246217032,34.63665 0.465422091,36.91615 C0.847248398,38.141675 1.73384199,39.074625 2.98453002,39.55755 C4.07917757,39.98995 5.4681742,40.404725 6.51080826,40.6973 C7.15388415,42.148425 8.30054519,43.8228 10.3326177,45.3597 C11.7748099,46.44775 13.6153782,47 15.7869415,47 C19.4349786,47 22.9612568,45.429025 23.3442653,45.2563 L23.4825739,45.186975 L23.5180376,45.1529 C24.2119449,45.877875 25.1328201,46.39605 26.297213,46.620475 C26.6447577,46.6898 27.0963293,46.7415 27.6176464,46.7415 C29.5977054,46.7415 30.9701523,45.739225 32.2373901,43.85805 C33.2800241,45.480725 35.173788,46.39605 37.4150966,46.39605 L37.4316464,46.39605 C37.5534052,46.39605 37.6751641,46.481825 37.8146548,46.481825 C38.9955975,46.481825 40.4720713,46.068225 41.7050275,44.098925 C42.7299297,45.929575 44.6059617,46.982375 46.8295384,46.982375 C48.8107796,46.982375 50.529589,46.171625 50.8428521,46.01535 L50.9125975,45.981275 C51.5722231,45.635825 52.1278218,45.325625 52.5628437,45.083575 C54.0393175,45.86025 56.279444,46.723875 59.0243378,46.723875 C59.4936413,46.723875 59.9629449,46.70625 60.4322484,46.65455 L60.5528251,46.636925 L60.674584,46.620475 C66.4941843,45.480725 70.2817121,44.098925 72.5395705,43.046125 C74.1200713,44.80745 76.6391793,46.49945 80.2352029,46.75795 C80.634761,46.7932 81.0520511,46.80965 81.4516093,46.80965 C84.404557,46.80965 86.7664423,45.981275 88.5041658,45.06595 C89.0597644,45.65345 89.7548538,46.188075 90.6579971,46.55115 C91.197046,46.775575 91.7526447,46.878975 92.3259752,46.878975 C95.9385486,46.878975 97.6242585,42.597275 98.0923799,41.14615 L98.9612417,38.832575 C99.7260764,39.6445 100.698965,40.30015 101.931921,40.6456 C102.609279,40.83595 103.33865,40.93935 104.085753,40.93935 C108.063603,40.93935 111.885412,38.141675 112.494206,37.676375 C113.587672,36.778675 114.786346,34.9304 114.526279,32.3924" id="Fill-49" fill="#FEFEFE"></path>
            <path d="M111.574868,32.6818025 C111.401095,30.8687775 109.750849,31.5420525 109.750849,31.5420525 C109.750849,31.5420525 107.109982,33.5795025 104.782379,33.3550775 C102.472507,33.1130275 103.201878,27.9677025 103.201878,27.9677025 C103.201878,27.9677025 103.705463,23.2371525 102.333016,22.8400025 C100.960569,22.4428525 99.2760415,24.0655275 99.2760415,24.0655275 C99.2760415,24.0655275 97.1742236,26.3791025 96.183603,29.3142525 L95.9058037,29.4012025 C95.9058037,29.4012025 96.2190668,24.2382525 95.8537902,23.0644275 C95.5759909,22.4769275 93.0746148,22.5286275 92.6750567,23.5649775 C92.2577666,24.6013275 90.2599757,31.8358025 90.1216671,34.8743525 C90.1216671,34.8743525 86.2123804,38.1725775 82.7901292,38.7248275 C79.3678779,39.2606275 78.5522118,37.1362275 78.5522118,37.1362275 C78.5522118,37.1362275 87.8460769,34.5641525 87.515082,27.1910275 C87.203001,19.8179025 80.0286857,22.5462525 79.2118374,23.1502025 C78.430453,23.7377025 74.2433669,26.2416275 73.0104108,33.1999775 C72.9761292,33.4420275 72.8886519,34.4772025 72.8886519,34.4772025 C72.8886519,34.4772025 69.2926283,36.8777275 67.2948374,37.5169275 C67.2948374,37.5169275 72.8886519,28.1580525 66.0618813,23.8928025 C62.9694428,22.0457025 60.5023484,25.9302525 60.5023484,25.9302525 C60.5023484,25.9302525 69.7442,15.7089275 67.6943956,7.0585775 C66.7215069,2.9484275 64.6551528,2.4995775 62.743657,3.1728525 C59.8604546,4.3126025 58.7658071,5.9705275 58.7658071,5.9705275 C58.7658071,5.9705275 55.0314749,11.3579025 54.1626132,19.3690525 C53.2937514,27.3813775 52.0253315,37.0504525 52.0253315,37.0504525 C52.0253315,37.0504525 50.2533265,38.7765275 48.6208121,38.8634775 C46.9882978,38.9492525 47.7176688,34.0283525 47.7176688,34.0283525 C47.7176688,34.0283525 48.9860887,26.5177525 48.8986115,25.2569775 C48.8123164,23.9962025 48.7248391,23.3064775 47.2140836,22.8576275 C45.7198779,22.4076025 44.0696317,24.3075775 44.0696317,24.3075775 C44.0696317,24.3075775 39.7442371,30.8170775 39.3789605,31.8181775 L39.1531747,32.2329525 L38.9273889,31.9568275 C38.9273889,31.9568275 41.9855457,23.0820525 39.0668796,22.9610275 C36.1482135,22.8223775 34.2378998,26.1206025 34.2378998,26.1206025 C34.2378998,26.1206025 30.9196755,31.6454525 30.7801848,32.2670275 L30.554399,31.9909025 C30.554399,31.9909025 31.9268459,25.5683525 31.6490465,23.9797525 C31.3712472,22.3911525 29.8770415,22.7189775 29.8770415,22.7189775 C29.8770415,22.7189775 27.9667278,22.4945525 27.4619605,23.7200775 C26.9583754,24.9467775 25.1343568,33.0448775 24.908571,35.6169525 C24.908571,35.6169525 20.1316047,39.0185775 16.9871528,39.0526525 C13.843883,39.1055275 14.1736958,37.0680775 14.1736958,37.0680775 C14.1736958,37.0680775 25.6911376,33.1482775 22.5466857,25.4120775 C21.138775,23.4263275 19.4885288,22.8047525 17.178657,22.8400025 C14.8510533,22.8917025 12.1238914,24.2899525 10.2478594,28.4518025 C9.36126577,30.4375525 8.99717133,32.3187275 8.99717133,33.7522275 C8.99717133,33.7522275 6.84215784,34.1670025 5.74869241,33.2516775 C4.65404486,32.3539775 4.02870084,33.2516775 4.02870084,33.2516775 C4.02870084,33.2516775 2.11720506,35.9624025 3.97668735,36.6873775 C5.83498752,37.4123525 8.71818988,38.0868025 8.71818988,38.0868025 C8.97943946,39.2606275 9.76082395,41.1770525 12.0364142,42.8866775 C15.4409336,45.4587525 22.0076368,42.4895275 22.0076368,42.4895275 L24.700517,40.9009275 C24.700517,40.9009275 24.7868121,43.3002775 26.7503214,43.6633525 C28.7126486,44.0264275 29.5294968,43.6292775 32.9340162,35.4101525 C34.9318071,31.1966025 35.0712978,31.4210275 35.0712978,31.4210275 L35.2970836,31.3693275 C35.2970836,31.3693275 33.7508644,39.4157275 34.3419268,41.5918275 C34.9318071,43.7667525 37.5206604,43.5423275 37.5206604,43.5423275 C37.5206604,43.5423275 38.9273889,44.0428775 40.0740499,40.0549275 C41.220711,36.0658025 43.3922742,31.9051275 43.3922742,31.9051275 L43.6700735,31.9051275 C43.6700735,31.9051275 42.7149167,39.9162775 44.1736587,42.5412275 C45.6324007,45.1661775 49.4021966,43.3179025 49.4021966,43.3179025 C49.4021966,43.3179025 52.0430634,41.9372775 52.4603535,41.5225025 C52.4603535,41.5225025 55.5870735,44.1474525 60.0164951,43.6633525 C69.9014226,41.7293025 73.409969,39.1055275 73.409969,39.1055275 C73.409969,39.1055275 75.1122287,43.3696025 80.3584985,43.7667525 C86.3684209,44.2156025 89.6523636,40.4520775 89.6523636,40.4520775 C89.6523636,40.4520775 89.6003501,42.8866775 91.702168,43.7503025 C93.8039858,44.6127525 95.2107143,40.0549275 95.2107143,40.0549275 L98.7204428,30.7136775 L99.0325238,30.7136775 C99.0325238,30.7136775 99.2062961,36.6873775 102.680561,37.6896525 C106.172558,38.6731275 110.671724,35.2198025 110.671724,35.2198025 C110.671724,35.2198025 111.766372,34.4948275 111.574868,32.6818025 M13.6701106,33.5618775 C13.8084192,28.1756775 17.3524293,25.8268525 18.5853855,27.0006775 C19.8195238,28.1756775 19.3679521,30.7136775 17.0391663,32.3022775 C14.7292944,33.8908775 13.6701106,33.5618775 13.6701106,33.5618775 M59.8770044,12.7209025 C59.8770044,12.7209025 63.1089336,4.3466775 63.890318,8.4215775 C64.6717025,12.4964775 57.1155609,24.6177775 57.1155609,24.6177775 C57.1853062,21.8906025 59.8770044,12.7209025 59.8770044,12.7209025 M63.7508273,36.0141025 C61.6147278,41.5742025 56.4204715,39.3123275 56.4204715,39.3123275 C56.4204715,39.3123275 55.8305912,37.3265775 57.5151191,31.7488525 C59.1996469,26.1899275 63.160947,28.3648525 63.160947,28.3648525 C63.160947,28.3648525 65.8881089,30.4540025 63.7508273,36.0141025 M78.0829083,33.5618775 C78.0829083,33.5618775 77.5793231,31.8017275 79.4553551,28.4001025 C81.3136553,25.0149275 82.7735794,26.8632025 82.7735794,26.8632025 C82.7735794,26.8632025 84.3718121,28.5892775 82.5477936,31.1625275 C80.723775,33.7522275 78.0829083,33.5618775 78.0829083,33.5618775" id="Fill-51" fill="#E14C31"></path>
        </g>
    </g>
</svg>