<?xml version="1.0" encoding="UTF-8"?>
<svg width="1482px" height="185px" viewBox="0 0 1482 185" version="1.1" xmlns="http://www.w3.org/2000/svg" xmlns:xlink="http://www.w3.org/1999/xlink">
    <!-- Generator: Sketch 44.1 (41455) - http://www.bohemiancoding.com/sketch -->
    <title>Fill 1</title>
    <desc>Created with Sketch.</desc>
    <defs></defs>
    <g id="Page-1" stroke="none" stroke-width="1" fill="none" fill-rule="evenodd">
        <path d="M1481.722,184.824 L0,184.824 C19.807,184.824 35.14,153.765 69.151,153.765 C80.802,153.765 91.613,157.329 100.576,163.411 C108.166,145.428 124.565,132.08 144.367,128.72 C145.879,115.506 157.087,105.237 170.707,105.237 C171.202,105.237 171.685,105.284 172.173,105.311 C184.488,71.858 216.639,47.998 254.365,47.998 C262.934,47.998 271.212,49.232 279.037,51.527 C297.692,25.178 328.413,7.976 363.153,7.976 C411.437,7.976 451.944,41.207 463.092,86.041 C464.868,85.806 466.666,85.643 468.506,85.643 C486.126,85.643 501.137,96.74 506.967,112.325 C513.776,109.972 521.077,108.678 528.686,108.678 C551.764,108.678 572.09,120.438 584.015,138.288 C595.334,130.909 608.847,126.615 623.368,126.615 C655.416,126.615 682.566,147.508 691.982,176.412 C702.244,170.806 714.014,167.614 726.532,167.614 C736.686,167.614 746.339,169.728 755.102,173.513 C767.386,151.22 791.106,136.116 818.358,136.116 C833.352,136.116 847.264,140.702 858.8,148.529 C868.567,125.387 889.671,108.208 915.155,103.885 C917.102,86.879 931.526,73.664 949.053,73.664 C949.69,73.664 950.311,73.724 950.94,73.759 C966.789,30.707 1008.164,0 1056.716,0 C1097.576,0 1133.337,21.755 1153.085,54.309 C1154.491,54.235 1155.906,54.195 1157.33,54.195 C1194.848,54.195 1226.324,80.017 1234.986,114.855 C1236.366,114.672 1237.764,114.546 1239.194,114.546 C1256.668,114.546 1270.843,128.59 1271.095,146.004 C1271.103,146.004 1271.11,146.002 1271.118,146.002 C1289.456,146.002 1305.126,157.297 1311.62,173.302 C1321.467,157.161 1339.236,146.383 1359.527,146.383 C1381.161,146.383 1399.917,158.639 1409.267,176.582 C1415.276,170.862 1423.401,167.344 1432.352,167.344 C1453.14,167.344 1459.474,184.824 1481.722,184.824" id="Fill-1" fill="#FFFFFF"></path>
    </g>
</svg>