<?xml version="1.0" encoding="UTF-8"?>
<svg width="203px" height="151px" viewBox="0 0 203 151" version="1.1" xmlns="http://www.w3.org/2000/svg" xmlns:xlink="http://www.w3.org/1999/xlink">
    <!-- Generator: Sketch 43.2 (39069) - http://www.bohemiancoding.com/sketch -->
    <title>Page 1</title>
    <desc>Created with Sketch.</desc>
    <defs>
        <polygon id="path-1" points="0 0.151368876 0 93.5596529 83.312776 93.5596529 83.312776 0.151368876"></polygon>
        <polygon id="path-3" points="0 150.630182 202.666302 150.630182 202.666302 0 0 0"></polygon>
    </defs>
    <g id="Community" stroke="none" stroke-width="1" fill="none" fill-rule="evenodd">
        <g id="Page-1">
            <g id="Group-3" transform="translate(0.000000, 54.377801)">
                <mask id="mask-2" fill="white">
                    <use xlink:href="#path-1"></use>
                </mask>
                <g id="Clip-2"></g>
                <path d="M49.7732127,43.8494537 C50.3893858,60.4251035 65.7804911,64.9608825 74.9499229,65.004962 L74.9798941,65.004962 C76.6353635,65.004962 78.1947487,64.3596384 79.375086,63.1844793 C80.5748165,61.9899252 81.2359465,60.3977742 81.2359465,58.7042403 L81.2359465,43.8494537 L49.7732127,43.8494537 Z M1.03911999,93.5596529 C0.65654612,93.5596529 0.289839372,93.3480713 0.108249011,92.9830932 C-0.146506398,92.4691264 0.0632921743,91.8458425 0.576329019,91.5919446 L33.9246054,75.0480321 L33.9246054,25.2382132 C33.9246054,11.6317576 44.8138565,0.380028058 58.1968898,0.156104271 C64.8522647,0.0265105826 71.1744301,2.56108101 75.9328027,7.24055921 C80.6911754,11.920919 83.312776,18.1740348 83.312776,24.8485506 L83.3118945,42.7809669 C83.3118945,42.7906644 83.312776,42.8012435 83.312776,42.810941 L83.312776,58.7042403 C83.312776,60.9549389 82.4339139,63.0681094 80.8392685,64.6558525 C79.2578456,66.2303717 77.168675,67.1313564 74.9402263,67.0811058 C64.8143599,67.0326184 47.6778715,61.8665026 47.6778715,42.810941 L47.6778715,41.7733099 L81.2359465,41.7733099 L81.2359465,24.8485506 C81.2359465,18.7356075 78.835604,13.0079191 74.4765538,8.72074834 C70.1192667,4.43445915 64.3727251,2.13086523 58.2312686,2.23224805 C45.9730377,2.43677686 36.0005535,12.7575476 36.0005535,25.2382132 L36.0005535,76.3360346 L1.49926644,93.4512173 C1.35117333,93.5252709 1.19426515,93.5596529 1.03911999,93.5596529 L1.03911999,93.5596529 Z" id="Fill-1" fill="#2F5266" mask="url(#mask-2)"></path>
            </g>
            <path d="M101.739966,147.93763 C101.581295,147.93763 101.420861,147.901485 101.270123,147.824787 L67.6203717,130.706959 L67.6203717,119.7823 C67.6203717,119.209266 68.0849257,118.743787 68.6587865,118.743787 C69.2317658,118.743787 69.6963198,119.209266 69.6963198,119.7823 L69.6963198,129.433062 L102.211572,145.97433 C102.721965,146.233517 102.925593,146.858565 102.665548,147.369887 C102.483076,147.730457 102.118133,147.93763 101.739966,147.93763" id="Fill-4" fill="#2F5266"></path>
            <path d="M71.2096022,73.3761224 C70.3756969,73.3761224 69.6969368,74.0549465 69.6969368,74.8889304 L69.6969368,82.56934 C69.6969368,83.4042054 70.3756969,84.0830295 71.2096022,84.0830295 C72.0435074,84.0830295 72.7222675,83.4042054 72.7222675,82.56934 L72.7222675,74.8889304 C72.7222675,74.0549465 72.0435074,73.3761224 71.2096022,73.3761224 M71.2096022,86.1591733 C69.2306198,86.1591733 67.6201073,84.5485089 67.6201073,82.56934 L67.6201073,74.8889304 C67.6201073,72.9097615 69.2306198,71.2999786 71.2096022,71.2999786 C73.1885845,71.2999786 74.7990971,72.9097615 74.7990971,74.8889304 L74.7990971,82.56934 C74.7990971,84.5485089 73.1885845,86.1591733 71.2096022,86.1591733" id="Fill-6" fill="#2F5266"></path>
            <path d="M150.548282,81.82184 L150.548282,81.82184 C149.144923,81.82184 147.997202,80.6740102 147.997202,79.2705194 L147.997202,77.8335282 C147.997202,76.4309189 149.144923,75.2822075 150.548282,75.2822075 C151.95164,75.2822075 153.099362,76.4309189 153.099362,77.8335282 L153.099362,79.2705194 C153.099362,80.6740102 151.95164,81.82184 150.548282,81.82184" id="Fill-8" fill="#2F5266"></path>
            <path d="M167.702753,81.82184 L167.702753,81.82184 C166.299395,81.82184 165.151673,80.6740102 165.151673,79.2705194 L165.151673,77.8335282 C165.151673,76.4309189 166.299395,75.2822075 167.702753,75.2822075 C169.106112,75.2822075 170.253833,76.4309189 170.253833,77.8335282 L170.253833,79.2705194 C170.253833,80.6740102 169.106112,81.82184 167.702753,81.82184" id="Fill-10" fill="#2F5266"></path>
            <path d="M201.626918,138.1407 C201.471773,138.1407 201.314864,138.105437 201.166771,138.032265 L166.664603,120.9162 L166.664603,115.032471 C166.664603,114.458556 167.129157,113.993958 167.703018,113.993958 C168.275997,113.993958 168.740551,114.458556 168.740551,115.032471 L168.740551,119.628198 L202.088827,136.172992 C202.602746,136.42689 202.812544,137.050174 202.557789,137.564141 C202.376198,137.929119 202.00861,138.1407 201.626918,138.1407" id="Fill-12" fill="#2F5266"></path>
            <path d="M117.466749,138.1407 C117.088583,138.1407 116.723639,137.933527 116.541168,137.572956 C116.281123,137.061634 116.484751,136.436587 116.995143,136.1774 L149.510396,119.636132 L149.510396,115.274908 C149.510396,114.700993 149.97495,114.236395 150.547929,114.236395 C151.12179,114.236395 151.586344,114.700993 151.586344,115.274908 L151.586344,120.909148 L117.936592,138.027857 C117.785855,138.104555 117.625421,138.1407 117.466749,138.1407" id="Fill-14" fill="#2F5266"></path>
            <path d="M83.5235443,93.7052286 C83.1347998,93.7052286 82.7469369,93.6981759 82.359074,93.6831888 C81.7860947,93.6611491 81.3391709,93.1789195 81.3612085,92.6058862 C81.3832462,92.0337345 81.8645488,91.5867685 82.4384096,91.6088083 C84.3794872,91.6810986 86.3461284,91.5567945 88.2810354,91.2367774 C89.0241455,91.1124732 89.5292488,90.4054383 89.4067193,89.6613766 C89.2815454,88.9208412 88.5754586,88.4148087 87.8305855,88.5373497 C85.9767771,88.8441429 84.090353,88.9516969 82.2277295,88.8608931 C81.6547502,88.8326822 81.2139969,88.3451631 81.2430867,87.7730114 C81.2712949,87.1990965 81.7631756,86.7538937 82.3308658,86.7873941 C84.0489222,86.8729083 85.7828457,86.7732887 87.492087,86.4885352 C89.3652885,86.181742 91.1406428,87.4521128 91.4544592,89.3202014 C91.763868,91.1953427 90.4927355,92.9717459 88.621297,93.2847103 C86.9332118,93.5641742 85.2239705,93.7052286 83.5235443,93.7052286" id="Fill-16" fill="#2F5266"></path>
            <path d="M56.2356258,76.0208916 L40.5888835,76.0208916 C40.0159042,76.0208916 39.5504687,75.5562938 39.5504687,74.9823789 C39.5504687,74.4093456 40.0159042,73.9447478 40.5888835,73.9447478 L56.2356258,73.9447478 C56.8086051,73.9447478 57.2740405,74.4093456 57.2740405,74.9823789 C57.2740405,75.5562938 56.8086051,76.0208916 56.2356258,76.0208916" id="Fill-18" fill="#2F5266"></path>
            <path d="M56.2356258,81.0900324 L44.9964165,81.0900324 C44.4234372,81.0900324 43.9580018,80.6254346 43.9580018,80.0515197 C43.9580018,79.4784864 44.4234372,79.0138886 44.9964165,79.0138886 L56.2356258,79.0138886 C56.8086051,79.0138886 57.2740405,79.4784864 57.2740405,80.0515197 C57.2740405,80.6254346 56.8086051,81.0900324 56.2356258,81.0900324" id="Fill-20" fill="#2F5266"></path>
            <path d="M56.2356258,86.1591733 L49.4039496,86.1591733 C48.8309703,86.1591733 48.3655348,85.6945755 48.3655348,85.1206606 C48.3655348,84.5476273 48.8309703,84.0830295 49.4039496,84.0830295 L56.2356258,84.0830295 C56.8086051,84.0830295 57.2740405,84.5476273 57.2740405,85.1206606 C57.2740405,85.6945755 56.8086051,86.1591733 56.2356258,86.1591733" id="Fill-22" fill="#2F5266"></path>
            <path d="M34.6387139,76.0208916 L18.9919717,76.0208916 C18.4189924,76.0208916 17.9535569,75.5562938 17.9535569,74.9823789 C17.9535569,74.4093456 18.4189924,73.9447478 18.9919717,73.9447478 L34.6387139,73.9447478 C35.2116932,73.9447478 35.6771287,74.4093456 35.6771287,74.9823789 C35.6771287,75.5562938 35.2116932,76.0208916 34.6387139,76.0208916" id="Fill-24" fill="#2F5266"></path>
            <path d="M34.6387139,81.0900324 L23.3995047,81.0900324 C22.8265254,81.0900324 22.3610899,80.6254346 22.3610899,80.0515197 C22.3610899,79.4784864 22.8265254,79.0138886 23.3995047,79.0138886 L34.6387139,79.0138886 C35.2116932,79.0138886 35.6771287,79.4784864 35.6771287,80.0515197 C35.6771287,80.6254346 35.2116932,81.0900324 34.6387139,81.0900324" id="Fill-26" fill="#2F5266"></path>
            <path d="M34.6387139,86.1591733 L27.8070377,86.1591733 C27.2340584,86.1591733 26.7686229,85.6945755 26.7686229,85.1206606 C26.7686229,84.5476273 27.2340584,84.0830295 27.8070377,84.0830295 L34.6387139,84.0830295 C35.2116932,84.0830295 35.6771287,84.5476273 35.6771287,85.1206606 C35.6771287,85.6945755 35.2116932,86.1591733 34.6387139,86.1591733" id="Fill-28" fill="#2F5266"></path>
            <path d="M77.3917843,111.504878 C77.1264508,111.504878 76.8602358,111.403495 76.6574893,111.200729 L72.2878611,106.829807 L77.0982426,102.018972 C77.5037356,101.613441 78.1613396,101.613441 78.5668326,102.018972 C78.9714441,102.424503 78.9714441,103.081288 78.5668326,103.486819 L75.2232781,106.829807 L78.1260793,109.732882 C78.5306908,110.138413 78.5306908,110.795198 78.1260793,111.200729 C77.9233328,111.403495 77.6571178,111.504878 77.3917843,111.504878" id="Fill-30" fill="#2F5266"></path>
            <path d="M157.508129,103.650266 C157.242796,103.650266 156.976581,103.548883 156.773834,103.346117 C156.369223,102.940586 156.369223,102.283802 156.773834,101.878271 L160.117389,98.5344007 L157.214588,95.6322074 C156.809976,95.2266761 156.809976,94.5698918 157.214588,94.1643605 C157.620081,93.7588292 158.277684,93.7588292 158.683178,94.1643605 L163.052806,98.5344007 L158.242424,103.346117 C158.039678,103.548883 157.773463,103.650266 157.508129,103.650266" id="Fill-32" fill="#2F5266"></path>
            <path d="M159.546613,51.5864866 C150.729784,51.5864866 143.556083,58.7608637 143.556083,67.5794056 L143.556083,95.5989715 C143.556083,104.417513 150.729784,111.591009 159.546613,111.591009 C168.364324,111.591009 175.538025,104.417513 175.538025,95.5989715 L175.538025,67.5794056 C175.538025,58.7608637 168.364324,51.5864866 159.546613,51.5864866 M159.546613,113.668034 C149.584707,113.668034 141.479254,105.561817 141.479254,95.5989715 L141.479254,67.5794056 C141.479254,57.6156786 149.584707,49.5103428 159.546613,49.5103428 C169.508519,49.5103428 177.613973,57.6156786 177.613973,67.5794056 L177.613973,95.5989715 C177.613973,105.561817 169.508519,113.668034 159.546613,113.668034" id="Fill-34" fill="#2F5266"></path>
            <path d="M187.634323,108.874743 C187.061343,108.874743 186.595908,108.410145 186.595908,107.83623 L186.595908,68.2845892 C186.595908,53.3680912 174.461969,41.2330088 159.546878,41.2330088 C144.631786,41.2330088 132.497848,53.3680912 132.497848,68.2845892 L132.497848,107.83623 C132.497848,108.410145 132.032412,108.874743 131.459433,108.874743 C130.886453,108.874743 130.421018,108.410145 130.421018,107.83623 L130.421018,68.2845892 C130.421018,52.2237878 143.486709,39.1559835 159.546878,39.1559835 C175.606165,39.1559835 188.672737,52.2237878 188.672737,68.2845892 L188.672737,107.83623 C188.672737,108.410145 188.207302,108.874743 187.634323,108.874743" id="Fill-36" fill="#2F5266"></path>
            <mask id="mask-4" fill="white">
                <use xlink:href="#path-3"></use>
            </mask>
            <g id="Clip-39"></g>
            <path d="M143.555995,87.6379519 L175.537936,87.6379519 L175.537936,69.4666247 L143.555995,69.4666247 L143.555995,87.6379519 Z M141.479166,89.7140956 L177.613884,89.7140956 L177.613884,67.3895993 L141.479166,67.3895993 L141.479166,89.7140956 Z" id="Fill-38" fill="#2F5266" mask="url(#mask-4)"></path>
            <path d="M136.12084,108.874743 C135.54786,108.874743 135.082425,108.410145 135.082425,107.83623 L135.082425,102.611929 C135.082425,102.038896 135.54786,101.573417 136.12084,101.573417 C136.693819,101.573417 137.159254,102.038896 137.159254,102.611929 L137.159254,107.83623 C137.159254,108.410145 136.693819,108.874743 136.12084,108.874743" id="Fill-40" fill="#2F5266" mask="url(#mask-4)"></path>
            <path d="M140.381602,108.874743 C139.808623,108.874743 139.343187,108.410145 139.343187,107.83623 L139.343187,102.611929 C139.343187,102.038896 139.808623,101.573417 140.381602,101.573417 C140.954581,101.573417 141.420017,102.038896 141.420017,102.611929 L141.420017,107.83623 C141.420017,108.410145 140.954581,108.874743 140.381602,108.874743" id="Fill-41" fill="#2F5266" mask="url(#mask-4)"></path>
            <path d="M178.87391,108.874743 C178.300931,108.874743 177.835495,108.410145 177.835495,107.83623 L177.835495,102.611929 C177.835495,102.038896 178.300931,101.573417 178.87391,101.573417 C179.446889,101.573417 179.912325,102.038896 179.912325,102.611929 L179.912325,107.83623 C179.912325,108.410145 179.446889,108.874743 178.87391,108.874743" id="Fill-42" fill="#2F5266" mask="url(#mask-4)"></path>
            <path d="M183.134672,108.874743 C182.561693,108.874743 182.096257,108.410145 182.096257,107.83623 L182.096257,102.611929 C182.096257,102.038896 182.561693,101.573417 183.134672,101.573417 C183.707652,101.573417 184.173087,102.038896 184.173087,102.611929 L184.173087,107.83623 C184.173087,108.410145 183.707652,108.874743 183.134672,108.874743" id="Fill-43" fill="#2F5266" mask="url(#mask-4)"></path>
            <path d="M149.343439,69.4667128 C148.770459,69.4667128 148.305024,69.0021151 148.305024,68.4282002 L148.305024,63.2038995 C148.305024,62.6308662 148.770459,62.1653868 149.343439,62.1653868 C149.916418,62.1653868 150.381854,62.6308662 150.381854,63.2038995 L150.381854,68.4282002 C150.381854,69.0021151 149.916418,69.4667128 149.343439,69.4667128" id="Fill-44" fill="#2F5266" mask="url(#mask-4)"></path>
            <path d="M153.604201,69.323719 C153.031222,69.323719 152.565786,68.8591212 152.565786,68.2852063 L152.565786,66.6216465 C152.565786,66.0477316 153.031222,65.5831338 153.604201,65.5831338 C154.17718,65.5831338 154.642616,66.0477316 154.642616,66.6216465 L154.642616,68.2852063 C154.642616,68.8591212 154.17718,69.323719 153.604201,69.323719" id="Fill-45" fill="#2F5266" mask="url(#mask-4)"></path>
            <path d="M127.369066,53.0117527 C127.181305,53.0117527 126.991781,52.9606205 126.824295,52.8565929 L118.816689,47.9152825 C118.328334,47.6137789 118.176715,46.9746263 118.47819,46.4871072 C118.779665,45.9987065 119.419639,45.8470731 119.906231,46.1485767 L125.296644,49.4748147 L123.014423,43.537308 C122.864567,43.148527 122.962414,42.7068505 123.26389,42.4168075 C127.879458,37.9771217 130.420842,32.2723547 130.420842,26.3533613 C130.420842,12.9673031 117.609906,2.07614378 101.862672,2.07614378 C86.1163196,2.07614378 73.3045026,12.9673031 73.3045026,26.3533613 C73.3045026,39.7403011 86.1163196,50.6305789 101.862672,50.6305789 C105.26088,50.6305789 108.585042,50.1271911 111.744361,49.1345211 C112.287369,48.9599663 112.873571,49.2649964 113.045465,49.8133452 C113.217359,50.3599308 112.91412,50.9426616 112.366705,51.1145716 C109.006402,52.1715977 105.472442,52.7076042 101.862672,52.7076042 C84.9712425,52.7076042 71.2285546,40.8854862 71.2285546,26.3533613 C71.2285546,11.8221181 84.9712425,0 101.862672,0 C118.754983,0 132.497671,11.8221181 132.497671,26.3533613 C132.497671,32.6267537 129.909568,38.6638801 125.196152,43.4271093 L128.337842,51.6012091 C128.497394,52.0173195 128.374865,52.4880884 128.031959,52.7728419 C127.840672,52.9306464 127.60531,53.0117527 127.369066,53.0117527" id="Fill-46" fill="#2F5266" mask="url(#mask-4)"></path>
            <path d="M90.4632932,82.6272604 C90.1873816,82.6272604 89.914996,82.5170617 89.7140125,82.3081249 C89.3913811,81.9713577 89.3323202,81.4609172 89.570327,81.0597939 L92.5260186,76.0752857 C90.5205911,73.8854168 89.4248784,71.1745284 89.4248784,68.3596125 C89.4248784,61.510542 95.8616396,55.9380134 103.77228,55.9380134 C111.683802,55.9380134 118.119681,61.510542 118.119681,68.3596125 C118.119681,75.2095646 111.683802,80.7829747 103.77228,80.7829747 C102.474702,80.7829747 101.188584,80.6322229 99.9474227,80.3351271 C99.3903106,80.2028887 99.046523,79.6421976 99.1796305,79.0841513 C99.312738,78.5269866 99.8742577,78.1805219 100.430488,78.3162867 C101.512978,78.5754741 102.637781,78.7059494 103.77228,78.7059494 C110.538725,78.7059494 116.043733,74.0652611 116.043733,68.3596125 C116.043733,62.6548454 110.538725,58.0141572 103.77228,58.0141572 C97.0058352,58.0141572 91.5008264,62.6548454 91.5008264,68.3596125 C91.5008264,70.8650904 92.5815535,73.2841726 94.5446687,75.1716562 C94.8919823,75.5057787 94.9633844,76.0347325 94.717444,76.4499613 L93.2656027,78.8981359 L95.6007137,77.6383442 C96.1031724,77.365933 96.7352127,77.5537116 97.0075982,78.0588625 C97.2791022,78.5640134 97.0913413,79.1934685 96.586238,79.4658797 L90.9560553,82.5029563 C90.8000287,82.5867073 90.6307794,82.6272604 90.4632932,82.6272604" id="Fill-47" fill="#2F5266" mask="url(#mask-4)"></path>
            <path d="M52.8382993,150.630182 L22.9622774,136.747788 C22.4421885,136.506233 22.2165228,135.88912 22.4580556,135.368982 C22.6995885,134.849726 23.3166431,134.622276 23.836732,134.864713 L52.801276,148.323943 L79.4668509,134.8797 C79.9798877,134.620512 80.6031129,134.826804 80.8613943,135.339008 C81.1196757,135.851212 80.9142847,136.475377 80.4021294,136.732801 L52.8382993,150.630182 Z" id="Fill-48" fill="#2F5266" mask="url(#mask-4)"></path>
            <path d="M135.556147,97.732683 C134.991982,98.0447658 134.786591,98.7553271 135.098645,99.3195445 C135.410698,99.8837619 136.121192,100.089172 136.685356,99.7770896 C137.249521,99.4650068 137.454912,98.7544455 137.142858,98.1902281 C136.830805,97.6260107 136.120311,97.4206003 135.556147,97.732683" id="Fill-49" fill="#2F5266" mask="url(#mask-4)"></path>
            <path d="M182.569891,97.732683 C182.005727,98.0447658 181.800336,98.7553271 182.112389,99.3195445 C182.424442,99.8837619 183.134937,100.089172 183.699101,99.7770896 C184.263265,99.4650068 184.468656,98.7544455 184.156603,98.1902281 C183.844549,97.6260107 183.134055,97.4206003 182.569891,97.732683" id="Fill-50" fill="#2F5266" mask="url(#mask-4)"></path>
            <path d="M135.556147,93.875728 C134.991982,94.1878108 134.786591,94.8983721 135.098645,95.4625895 C135.410698,96.0268069 136.121192,96.2322173 136.685356,95.9201346 C137.249521,95.6080518 137.454912,94.8974905 137.142858,94.3332731 C136.830805,93.7690557 136.120311,93.5636453 135.556147,93.875728" id="Fill-51" fill="#2F5266" mask="url(#mask-4)"></path>
            <path d="M153.03942,62.1816962 C152.475255,62.493779 152.269864,63.2043403 152.581918,63.7685577 C152.893971,64.3327751 153.604465,64.5381855 154.16863,64.2261028 C154.732794,63.91402 154.938185,63.2034587 154.626132,62.6392413 C154.314078,62.0750239 153.603584,61.8696135 153.03942,62.1816962" id="Fill-52" fill="#2F5266" mask="url(#mask-4)"></path>
            <path d="M115.349018,47.4762509 C114.784854,47.7883336 114.579463,48.4988949 114.891516,49.0631123 C115.203569,49.6273298 115.914064,49.8327402 116.478228,49.5206574 C117.042392,49.2085746 117.247783,48.4980133 116.93573,47.9337959 C116.623677,47.3695785 115.913182,47.1641681 115.349018,47.4762509" id="Fill-53" fill="#2F5266" mask="url(#mask-4)"></path>
            <path d="M142.517757,18.9957017 C141.944777,18.9957017 141.479342,18.5311039 141.479342,17.957189 L141.479342,9.58208676 C141.479342,9.00905344 141.944777,8.54445567 142.517757,8.54445567 C143.090736,8.54445567 143.556172,9.00905344 143.556172,9.58208676 L143.556172,17.957189 C143.556172,18.5311039 143.090736,18.9957017 142.517757,18.9957017" id="Fill-54" fill="#2F5266" mask="url(#mask-4)"></path>
            <path d="M146.704913,14.8081506 L138.3306,14.8081506 C137.757621,14.8081506 137.292186,14.3435528 137.292186,13.7696379 C137.292186,13.1966046 137.757621,12.7320068 138.3306,12.7320068 L146.704913,12.7320068 C147.277892,12.7320068 147.743328,13.1966046 147.743328,13.7696379 C147.743328,14.3435528 147.277892,14.8081506 146.704913,14.8081506" id="Fill-55" fill="#2F5266" mask="url(#mask-4)"></path>
            <path d="M23.3995047,105.148704 C22.8265254,105.148704 22.3610899,104.684106 22.3610899,104.110191 L22.3610899,95.7350889 C22.3610899,95.1620556 22.8265254,94.6974578 23.3995047,94.6974578 C23.972484,94.6974578 24.4379195,95.1620556 24.4379195,95.7350889 L24.4379195,104.110191 C24.4379195,104.684106 23.972484,105.148704 23.3995047,105.148704" id="Fill-56" fill="#2F5266" mask="url(#mask-4)"></path>
            <path d="M27.5866611,100.961153 L19.2123483,100.961153 C18.639369,100.961153 18.1739335,100.496555 18.1739335,99.92264 C18.1739335,99.3496067 18.639369,98.885009 19.2123483,98.885009 L27.5866611,98.885009 C28.1596404,98.885009 28.6250759,99.3496067 28.6250759,99.92264 C28.6250759,100.496555 28.1596404,100.961153 27.5866611,100.961153" id="Fill-57" fill="#2F5266" mask="url(#mask-4)"></path>
            <polygon id="Fill-58" fill="#2F5266" mask="url(#mask-4)" points="159.482087 124.486727 162.293212 133.13953 171.39036 133.13953 164.030661 138.487253 166.841786 147.140056 159.482087 141.792333 152.122388 147.140056 154.933513 138.487253 147.573814 133.13953 156.670962 133.13953"></polygon>
        </g>
    </g>
</svg>