<?xml version="1.0" encoding="UTF-8"?>
<svg width="40px" height="39px" viewBox="0 0 40 39" version="1.1" xmlns="http://www.w3.org/2000/svg" xmlns:xlink="http://www.w3.org/1999/xlink">
    <!-- Generator: Sketch 43.2 (39069) - http://www.bohemiancoding.com/sketch -->
    <title>Page 1</title>
    <desc>Created with Sketch.</desc>
    <defs>
        <polygon id="path-1" points="40 19.7909 40 0.582 0 0.582 0 19.7909 0 38.9998 40 38.9998 40 19.7909"></polygon>
    </defs>
    <g id="Community" stroke="none" stroke-width="1" fill="none" fill-rule="evenodd">
        <g id="Page-1" transform="translate(0.000000, -1.000000)">
            <g id="Group-3" transform="translate(0.000000, 0.417900)">
                <mask id="mask-2" fill="white">
                    <use xlink:href="#path-1"></use>
                </mask>
                <g id="Clip-2"></g>
                <path d="M20,2.2248 C9.877,2.2248 1.643,9.4208 1.643,18.2658 C1.643,23.0798 4.089,27.5988 8.355,30.6628 C8.612,30.8468 8.74,31.1628 8.685,31.4728 L7.695,37.0638 C7.67,37.2028 7.744,37.2788 7.81,37.3188 C7.878,37.3598 7.98,37.3888 8.09,37.3018 L12.986,33.4828 C13.199,33.3168 13.48,33.2648 13.74,33.3478 C15.746,33.9838 17.852,34.3068 20,34.3068 C30.123,34.3068 38.357,27.1108 38.357,18.2658 C38.357,9.4208 30.123,2.2248 20,2.2248 M7.94,38.9998 C7.605,38.9998 7.268,38.9098 6.964,38.7258 C6.288,38.3198 5.94,37.5538 6.078,36.7778 L6.979,31.6878 C2.536,28.3188 0,23.4548 0,18.2658 C0,8.5148 8.972,0.5818 20,0.5818 C31.028,0.5818 40,8.5148 40,18.2658 C40,28.0168 31.028,35.9498 20,35.9498 C17.832,35.9498 15.7,35.6438 13.659,35.0408 L9.1,38.5978 C8.758,38.8648 8.35,38.9998 7.94,38.9998" id="Fill-1" fill="#2F5266" mask="url(#mask-2)"></path>
            </g>
            <path d="M15.3117,24.5929 C15.1497,23.5799 13.4387,23.8989 13.5947,24.8679 L13.7147,25.6169 C13.8587,26.5199 15.5937,26.3549 15.4317,25.3409 L15.3117,24.5929 Z M14.8607,22.2029 C15.0237,23.2159 13.3687,23.4589 13.2097,22.4679 L11.6517,12.7549 C11.4827,11.6979 13.1377,11.4549 13.3037,12.4899 L14.8607,22.2029 Z" id="Fill-4" fill="#2F5266"></path>
            <path d="M24.1659,25.6375 C23.9959,26.6485 22.1889,26.2315 22.3409,25.3295 L22.4369,24.7575 C22.5999,23.7905 24.4329,24.0535 24.2619,25.0655 L24.1659,25.6375 Z M25.6549,13.3125 C24.0709,13.0455 21.8709,13.0815 21.0279,14.7265 C20.6569,15.4555 19.2499,14.8115 19.6839,13.9795 C20.9159,11.6315 23.8059,11.5305 25.9169,11.8855 C28.6009,12.3385 31.8829,14.3385 31.2579,17.5135 C30.7949,19.8555 28.8869,20.3035 27.1189,20.7295 C25.8979,20.9985 24.7639,21.2825 24.5869,22.3375 L24.4979,22.8655 C24.3459,23.7675 22.7549,23.5445 22.9139,22.5995 L23.0069,22.0495 C23.3249,20.1575 24.9979,19.7605 26.6009,19.3755 C27.9649,19.0625 29.3599,18.7085 29.6589,17.1995 C30.0779,14.9845 27.5249,13.6275 25.6549,13.3125 L25.6549,13.3125 Z" id="Fill-6" fill="#2F5266"></path>
        </g>
    </g>
</svg>