<?xml version="1.0" encoding="UTF-8"?>
<svg width="40px" height="40px" viewBox="0 0 40 40" version="1.1" xmlns="http://www.w3.org/2000/svg" xmlns:xlink="http://www.w3.org/1999/xlink">
    <!-- Generator: Sketch 43.2 (39069) - http://www.bohemiancoding.com/sketch -->
    <title>Page 1</title>
    <desc>Created with Sketch.</desc>
    <defs></defs>
    <g id="Community" stroke="none" stroke-width="1" fill="none" fill-rule="evenodd">
        <g id="Page-1">
            <path d="M20,0 C31.046,0 40,8.954 40,20 C40,31.046 31.046,40 20,40 C8.954,40 0,31.046 0,20 C0,8.954 8.954,0 20,0" id="Fill-1" fill="#2FA9E0"></path>
            <path d="M32.8237,12.0443 C31.8807,12.4633 30.8667,12.7463 29.8017,12.8733 C30.8887,12.2223 31.7217,11.1903 32.1157,9.9623 C31.0997,10.5653 29.9737,11.0033 28.7737,11.2393 C27.8137,10.2163 26.4467,9.5783 24.9327,9.5783 C22.0277,9.5783 19.6727,11.9333 19.6727,14.8393 C19.6727,15.2513 19.7187,15.6533 19.8077,16.0393 C15.4347,15.8193 11.5587,13.7243 8.9637,10.5423 C8.5107,11.3193 8.2507,12.2233 8.2507,13.1873 C8.2507,15.0123 9.1797,16.6223 10.5917,17.5663 C9.7287,17.5393 8.9177,17.3023 8.2077,16.9083 L8.2077,16.9743 C8.2077,19.5243 10.0217,21.6503 12.4287,22.1333 C11.9867,22.2543 11.5217,22.3173 11.0417,22.3173 C10.7027,22.3173 10.3737,22.2853 10.0517,22.2253 C10.7217,24.3143 12.6647,25.8353 14.9657,25.8783 C13.1657,27.2903 10.8967,28.1313 8.4317,28.1313 C8.0077,28.1313 7.5877,28.1063 7.1767,28.0563 C9.5047,29.5503 12.2697,30.4213 15.2417,30.4213 C24.9187,30.4213 30.2107,22.4043 30.2107,15.4523 C30.2107,15.2233 30.2057,14.9973 30.1947,14.7713 C31.2257,14.0263 32.1187,13.0993 32.8237,12.0443" id="Fill-3" fill="#FEFEFE"></path>
        </g>
    </g>
</svg>